<?xml version="1.0" encoding="UTF-8"?>
<!DOCTYPE svg PUBLIC "-//W3C//DTD SVG 1.1//EN" "http://www.w3.org/Graphics/SVG/1.1/DTD/svg11.dtd">
<!-- Creator: CorelDRAW X7 -->
<svg xmlns="http://www.w3.org/2000/svg" xml:space="preserve" width="89.3205mm" height="40.0459mm" version="1.1" style="shape-rendering:geometricPrecision; text-rendering:geometricPrecision; image-rendering:optimizeQuality; fill-rule:evenodd; clip-rule:evenodd"
viewBox="0 0 6739 3021"
 xmlns:xlink="http://www.w3.org/1999/xlink">
 <defs>
  <style type="text/css">
   <![CDATA[
    .fil0 {fill:#1B4E9B;fill-rule:nonzero}
   ]]>
  </style>
 </defs>
 <g id="Слой_x0020_1">
  <metadata id="CorelCorpID_0Corel-Layer"/>
  <path class="fil0" d="M1398 49c-130,314 -285,630 -463,950l417 149 252 -538 174 581 425 -145c-145,-324 -265,-656 -359,-997l-446 0zm888 1047c0,0 1,-13 1,-39 1,-26 1,-58 2,-95 0,-38 1,-77 1,-118 1,-42 1,-77 1,-107 0,-81 -2,-182 -6,-305 -4,-122 -11,-265 -19,-429 0,0 9,0 27,1 19,0 40,1 63,2 24,1 47,2 71,3 23,0 39,0 48,0 9,0 26,0 53,0 27,-1 55,-2 84,-3 30,-1 56,-2 78,-2 23,-1 34,-1 34,-1 -4,88 -7,172 -8,251 -2,78 -3,152 -3,220 0,21 1,57 1,106 1,50 1,104 2,160 1,57 3,113 4,169 2,56 3,100 3,133 1,33 1,51 1,54l-438 0zm501 -718l0 -38c0,-107 12,-219 37,-337 175,10 320,14 436,14 68,0 146,-1 234,-4 87,-4 184,-8 290,-13 -16,59 -32,119 -45,182 -14,62 -26,126 -37,191l-242 -9 27 732 -443 0 22 -740 -279 22zm1654 -375c189,0 332,47 429,141 98,94 146,231 146,410 0,168 -49,301 -146,397 -102,97 -243,145 -422,145 -191,0 -333,-43 -429,-129 -114,-102 -172,-246 -172,-433 0,-171 51,-302 152,-394 102,-91 249,-137 442,-137zm-11 351c-46,0 -85,15 -118,45 -36,32 -53,75 -53,127 0,45 18,84 55,115 38,32 79,47 126,47 51,0 93,-19 126,-58 30,-36 45,-76 45,-121 0,-21 -5,-41 -16,-59 -11,-19 -26,-35 -44,-49 -17,-14 -37,-26 -58,-34 -21,-8 -42,-13 -63,-13z"/>
  <path class="fil0" d="M0 2264l0 -38c0,-107 12,-220 36,-337 176,9 321,14 437,14 68,0 146,-2 233,-5 88,-3 185,-7 291,-13 -17,59 -32,120 -46,182 -13,63 -25,127 -36,192l-242 -10 26 733 -442 0 22 -741 -279 23zm1498 167l0 61c64,-23 118,-60 162,-110 37,-43 55,-81 55,-112 0,-29 -16,-57 -50,-85 -12,-10 -30,-23 -57,-39 -26,-16 -59,-36 -99,-59 -4,57 -7,114 -9,171 -1,57 -2,115 -2,173zm-436 -542l367 0c62,0 114,0 158,1 44,1 78,3 103,5 71,6 134,31 189,74 62,49 111,101 146,154 35,53 53,100 53,141 0,67 -9,129 -26,186 -16,57 -42,107 -77,149 -34,42 -78,75 -130,98 -53,23 -115,34 -186,34 -41,0 -93,-3 -155,-9 0,94 7,181 19,260l-463 0c11,-109 18,-211 23,-305 5,-94 7,-180 7,-259 0,-147 -9,-324 -28,-529zm1093 11c4,120 7,218 9,292 1,74 2,126 2,155 0,59 -2,140 -6,245 -5,104 -11,232 -19,382 3,0 15,1 35,4 21,3 47,5 80,8 32,2 61,4 85,4 22,0 44,-2 67,-4 24,-3 35,-4 35,-4 164,-160 324,-328 481,-504l23 504 392 0c-5,-116 -9,-212 -12,-288 -3,-77 -5,-135 -5,-175 0,-72 2,-159 6,-263 5,-104 11,-225 19,-363 -30,-4 -59,-7 -86,-9 -26,-2 -51,-3 -74,-3 -17,0 -38,0 -63,1 -24,1 -52,3 -84,5 -160,123 -314,264 -463,422l38 -428 -460 19zm1255 11c0,0 24,-1 73,-3 48,-3 106,-5 175,-8 68,-3 139,-6 213,-8 74,-2 136,-3 187,-3 14,0 27,1 37,3 11,2 21,6 30,11 10,5 20,12 30,21 11,9 23,20 38,34 64,59 113,108 147,147 35,40 52,71 52,94 0,14 -7,30 -19,49l-137 200 0 20c21,17 42,36 65,56 23,21 43,42 62,63 19,22 35,43 48,62 12,20 18,38 18,52 0,21 -15,50 -45,85l-101 114c-34,36 -71,59 -113,71 -27,7 -73,11 -139,11l-614 0 0 -544c0,-37 0,-84 0,-140 0,-55 -1,-110 -1,-164 -1,-53 -2,-101 -3,-143 -1,-42 -2,-69 -3,-80zm422 252l11 203c42,-8 77,-24 103,-47 23,-19 34,-37 34,-52 0,-16 -5,-30 -15,-43 -11,-12 -23,-23 -38,-32 -15,-9 -31,-16 -48,-21 -17,-4 -33,-7 -47,-8zm15 420l17 200c27,-6 54,-19 81,-39 27,-20 40,-43 40,-68 0,-19 -12,-37 -37,-55 -24,-18 -58,-30 -101,-38zm1101 -699l370 0 516 1084 -444 19 -64 -178c-51,-2 -94,-2 -130,-3 -36,0 -65,-1 -86,-1 -22,0 -46,1 -71,1 -25,1 -52,1 -80,3l-62 178 -405 -15c81,-175 160,-353 236,-534 76,-182 149,-366 220,-554zm222 392l-96 216 195 20 -99 -236zm1336 -414c-199,65 -350,149 -453,252 -104,103 -156,217 -156,343 0,122 56,233 167,333 110,99 267,177 470,231l156 -345c-59,-13 -104,-24 -134,-31 -31,-8 -47,-12 -49,-13 -77,-20 -125,-39 -145,-58 8,-1 19,-2 33,-2 15,0 33,0 54,0 41,0 81,2 120,4 40,3 79,7 118,12l52 -310c-42,4 -85,7 -130,9 -44,2 -88,3 -133,3l-101 0c9,-7 26,-15 50,-25 24,-9 56,-20 96,-31 50,-14 89,-26 119,-35 30,-9 51,-16 62,-21l-196 -316z"/>
 </g>
</svg>
