<?xml version="1.0" encoding="UTF-8"?>
<!DOCTYPE svg PUBLIC "-//W3C//DTD SVG 1.1//EN" "http://www.w3.org/Graphics/SVG/1.1/DTD/svg11.dtd">
<!-- Creator: CorelDRAW X7 -->
<svg xmlns="http://www.w3.org/2000/svg" xml:space="preserve" width="82.7435mm" height="15.367mm" version="1.1" style="shape-rendering:geometricPrecision; text-rendering:geometricPrecision; image-rendering:optimizeQuality; fill-rule:evenodd; clip-rule:evenodd"
viewBox="0 0 6513 1210"
 xmlns:xlink="http://www.w3.org/1999/xlink">
 <defs>
  <style type="text/css">
   <![CDATA[
    .fil0 {fill:#FEFEFE;fill-rule:nonzero}
   ]]>
  </style>
 </defs>
 <g id="Слой_x0020_1">
  <metadata id="CorelCorpID_0Corel-Layer"/>
  <path class="fil0" d="M634 0c-207,68 -364,156 -472,263 -108,107 -162,227 -162,358 0,127 58,243 173,347 116,104 280,185 491,242l163 -360c-62,-15 -108,-26 -140,-33 -32,-8 -49,-12 -51,-13 -78,-21 -128,-42 -151,-63l90 0c43,0 85,2 126,4 41,3 82,7 122,13l55 -324c-44,4 -89,8 -135,10 -46,2 -93,3 -140,3l-105 0c10,-8 27,-16 53,-26 25,-10 58,-21 100,-33 51,-14 93,-26 124,-36 31,-10 53,-17 65,-22l-206 -330zm309 23l906 0 33 353c-75,-15 -149,-26 -223,-34 -74,-8 -146,-12 -218,-12l-23 0c-5,45 -10,99 -13,161 -3,63 -5,133 -5,211 0,92 2,177 5,255 3,77 9,148 17,212l-479 0c6,-128 10,-244 14,-349 3,-105 4,-199 4,-283 0,-27 0,-69 -2,-126 -2,-57 -4,-114 -7,-172 -2,-57 -5,-108 -6,-151 -2,-43 -3,-65 -3,-65zm1019 16c5,126 8,228 9,305 2,78 3,132 3,162 0,62 -2,147 -7,256 -4,109 -11,242 -19,398 3,0 15,2 37,4 21,3 49,6 83,9 33,2 63,4 88,4 23,0 47,-2 71,-4 24,-3 36,-4 36,-4 171,-167 338,-342 501,-526l25 526 409 0c-5,-121 -10,-221 -13,-301 -3,-80 -5,-141 -5,-183 0,-74 2,-166 7,-274 4,-109 11,-235 19,-378 -31,-5 -61,-8 -89,-10 -28,-2 -54,-3 -78,-3 -18,0 -39,0 -65,1 -26,1 -55,3 -88,5 -167,128 -328,275 -483,441l39 -447 -480 19zm1797 1130l-465 0c0,0 0,-15 0,-45 1,-29 1,-65 2,-107 1,-43 1,-87 2,-132 0,-45 0,-85 0,-117 0,-71 -2,-167 -6,-291 -4,-123 -11,-273 -20,-449 97,9 212,16 346,20 134,5 287,8 458,8 75,0 145,-1 208,-2 63,-1 119,-3 170,-5 -2,61 -4,118 -5,171 -1,54 -2,104 -2,151 0,153 2,295 5,428 4,132 8,256 13,370 -34,-2 -66,-3 -96,-5 -30,-1 -58,-2 -84,-2 -35,0 -70,0 -105,1 -34,0 -66,1 -96,2 -29,1 -55,2 -76,3 -22,0 -37,1 -46,1 0,0 1,-10 1,-28 1,-18 2,-40 3,-67 1,-27 2,-55 2,-85 1,-31 1,-57 1,-80 0,-138 -5,-292 -15,-462 -47,-10 -82,-15 -107,-15 -16,0 -46,2 -88,5l0 732zm772 -1146l805 0 71 301c-85,-7 -151,-10 -195,-10 -16,0 -38,1 -68,2 -29,2 -66,4 -108,6l-7 118c27,3 55,4 82,5 28,1 55,2 81,2 25,0 55,-1 90,-3 35,-2 75,-6 119,-10l-55 324c-40,-6 -76,-10 -106,-13 -30,-2 -55,-4 -76,-4 -28,0 -66,2 -117,5l-6 120 355 20 -89 302c0,0 -19,-1 -58,-4 -38,-3 -83,-6 -135,-9 -52,-3 -104,-6 -156,-9 -52,-3 -92,-4 -120,-4 -16,0 -41,0 -75,2 -34,1 -68,2 -102,2 -34,1 -64,1 -89,3 -25,1 -38,1 -38,1 11,-73 19,-163 24,-270 5,-107 8,-230 8,-369l0 -51c0,-164 -12,-317 -35,-457zm942 396l0 -39c0,-112 12,-229 38,-352 183,10 334,15 455,15 71,0 152,-2 244,-5 91,-3 193,-8 303,-13 -17,61 -33,124 -47,189 -15,66 -27,132 -38,200l-253 -10 28 765 -462 0 23 -773 -291 23z"/>
 </g>
</svg>
