<?xml version="1.0" encoding="UTF-8"?>
<!DOCTYPE svg PUBLIC "-//W3C//DTD SVG 1.1//EN" "http://www.w3.org/Graphics/SVG/1.1/DTD/svg11.dtd">
<!-- Creator: CorelDRAW X7 -->
<svg xmlns="http://www.w3.org/2000/svg" xml:space="preserve" width="82.8039mm" height="15.4577mm" version="1.1" style="shape-rendering:geometricPrecision; text-rendering:geometricPrecision; image-rendering:optimizeQuality; fill-rule:evenodd; clip-rule:evenodd"
viewBox="0 0 8282 1546"
 xmlns:xlink="http://www.w3.org/1999/xlink">
 <defs>
  <style type="text/css">
   <![CDATA[
    .str0 {stroke:#008DD2;stroke-width:7.62117}
    .fil0 {fill:#FEFEFE;fill-rule:nonzero}
   ]]>
  </style>
 </defs>
 <g id="Слой_x0020_1">
  <metadata id="CorelCorpID_0Corel-Layer"/>
  <path class="fil0 str0" d="M809 5c-263,86 -462,198 -599,334 -138,136 -206,288 -206,454 0,162 73,309 220,441 147,132 355,235 623,307l207 -457c-78,-19 -137,-33 -178,-42 -40,-10 -62,-15 -64,-16 -99,-27 -163,-54 -192,-80l114 0c55,0 108,2 160,5 52,4 104,9 155,16l70 -411c-56,5 -113,10 -171,13 -59,2 -119,3 -178,3l-134 0c13,-10 35,-20 68,-33 31,-12 73,-26 127,-42 64,-17 118,-33 157,-45 40,-13 68,-22 83,-28l-262 -419zm393 29l1150 0 42 448c-95,-19 -189,-33 -283,-43 -94,-10 -185,-15 -277,-15l-29 0c-6,57 -13,125 -17,204 -3,80 -6,169 -6,268 0,117 3,225 6,324 4,98 12,188 22,269l-608 0c7,-162 12,-310 17,-443 4,-133 5,-253 5,-359 0,-35 0,-88 -2,-160 -3,-73 -5,-145 -9,-219 -3,-72 -6,-137 -8,-192 -2,-54 -3,-82 -3,-82zm1294 20c6,160 10,290 11,387 3,100 4,168 4,206 0,79 -2,187 -9,325 -5,139 -14,308 -24,506 4,0 19,3 47,5 27,4 62,8 106,11 41,3 80,6 111,6 30,0 60,-3 91,-6 30,-3 45,-5 45,-5 217,-212 430,-434 637,-668l31 668 520 0c-6,-153 -13,-280 -17,-382 -3,-102 -6,-179 -6,-232 0,-94 3,-211 9,-348 5,-139 14,-299 24,-481 -39,-6 -77,-10 -113,-12 -36,-3 -69,-4 -99,-4 -23,0 -50,0 -83,1 -33,1 -69,4 -111,7 -213,162 -417,349 -614,560l50 -568 -610 24zm2282 1435l-590 0c0,0 0,-19 0,-57 1,-37 1,-82 2,-136 2,-54 2,-110 3,-167 0,-57 0,-108 0,-149 0,-90 -3,-212 -8,-370 -5,-156 -14,-346 -25,-570 123,12 269,20 439,26 171,6 365,10 582,10 95,0 184,-2 264,-3 80,-1 151,-4 216,-6 -2,77 -5,150 -6,217 -1,69 -3,132 -3,192 0,194 3,375 7,543 5,168 10,326 16,470 -43,-2 -84,-3 -122,-6 -38,-1 -73,-2 -106,-2 -45,0 -89,0 -134,1 -43,0 -84,1 -122,2 -37,2 -70,3 -96,4 -28,0 -47,1 -59,1 0,0 2,-12 2,-35 1,-23 2,-51 3,-85 2,-35 3,-70 3,-108 1,-40 1,-73 1,-102 0,-175 -6,-371 -19,-587 -60,-12 -104,-19 -136,-19 -20,0 -58,3 -112,7l0 929zm981 -1455l1023 0 90 382c-108,-9 -192,-13 -248,-13 -20,0 -48,2 -86,3 -37,2 -84,5 -137,8l-9 149c34,4 69,6 104,7 35,1 70,2 103,2 31,0 70,-1 114,-3 44,-3 95,-8 151,-13l-70 411c-51,-7 -96,-12 -134,-16 -38,-3 -70,-5 -97,-5 -35,0 -84,2 -149,6l-7 153 451 25 -113 384c0,0 -24,-2 -74,-6 -48,-3 -105,-7 -171,-11 -66,-4 -133,-8 -199,-11 -66,-4 -116,-5 -152,-5 -20,0 -52,0 -95,2 -43,1 -87,3 -130,3 -43,1 -81,1 -113,3 -32,2 -48,2 -48,2 14,-93 24,-207 30,-343 7,-136 11,-292 11,-469l0 -65c0,-208 -16,-402 -45,-580zm1197 503l0 -50c0,-142 15,-291 48,-447 232,13 424,19 578,19 90,0 193,-2 310,-6 115,-4 245,-10 385,-17 -22,78 -42,158 -60,240 -19,84 -34,168 -48,254l-322 -12 36 971 -587 0 29 -981 -369 29z"/>
 </g>
</svg>
