<?xml version="1.0" encoding="UTF-8"?>
<!DOCTYPE svg PUBLIC "-//W3C//DTD SVG 1.1//EN" "http://www.w3.org/Graphics/SVG/1.1/DTD/svg11.dtd">
<!-- Creator: CorelDRAW X7 -->
<svg xmlns="http://www.w3.org/2000/svg" xml:space="preserve" width="153.126mm" height="17.1208mm" version="1.1" style="shape-rendering:geometricPrecision; text-rendering:geometricPrecision; image-rendering:optimizeQuality; fill-rule:evenodd; clip-rule:evenodd"
viewBox="0 0 13360 1494"
 xmlns:xlink="http://www.w3.org/1999/xlink">
 <defs>
  <style type="text/css">
   <![CDATA[
    .fil0 {fill:#FEFEFE;fill-rule:nonzero}
   ]]>
  </style>
 </defs>
 <g id="Слой_x0020_1">
  <metadata id="CorelCorpID_0Corel-Layer"/>
  <path class="fil0" d="M0 922l148 11c66,-152 131,-305 194,-459 64,-155 125,-311 184,-470l429 0 428 841 169 -34 0 603 -404 80 -70 -221 -670 0 -49 141 -359 -59 0 -433zm729 -436l-157 465c17,0 39,-1 67,-2 28,-1 58,-3 89,-5 31,-3 62,-6 93,-10 31,-5 58,-10 81,-18l-173 -430zm1583 -477c218,0 384,54 496,163 113,109 169,267 169,475 0,194 -57,347 -170,459 -118,112 -280,167 -488,167 -220,0 -385,-49 -495,-149 -133,-118 -199,-285 -199,-501 0,-198 59,-350 176,-455 117,-106 287,-159 511,-159zm-13 406c-53,0 -99,17 -137,51 -41,38 -62,87 -62,148 0,52 22,96 65,133 43,36 92,55 145,55 59,0 108,-23 146,-68 35,-41 53,-88 53,-140 0,-24 -7,-47 -20,-68 -12,-22 -29,-41 -50,-57 -20,-16 -43,-29 -67,-39 -24,-10 -49,-15 -73,-15zm944 -397l369 -13c68,173 152,361 252,563 48,-77 97,-163 145,-256 48,-92 96,-194 145,-305l353 15c6,195 26,394 60,596 34,203 83,412 148,628l-527 27c-44,-177 -75,-328 -93,-453l-284 466 -273 -468 -117 455 -486 0c58,-204 113,-410 164,-617 51,-208 99,-420 144,-638zm1568 1255c0,0 0,-15 1,-45 1,-31 1,-67 2,-110 1,-43 1,-89 2,-137 0,-48 1,-89 1,-123 0,-93 -3,-211 -8,-352 -5,-142 -12,-307 -22,-497 0,0 11,0 32,1 22,1 46,2 73,3 28,1 55,2 81,2 27,1 46,1 57,1 9,0 30,0 61,-1 31,0 63,-1 97,-2 34,-1 64,-2 90,-3 27,-1 40,-1 40,-1 -5,102 -9,199 -10,290 -2,91 -3,176 -3,255 0,24 0,65 1,123 0,57 1,119 2,185 2,65 3,130 5,195 2,64 3,115 4,154 0,38 1,59 1,62l-507 0zm603 0c0,0 0,-16 1,-48 1,-32 1,-72 2,-118 0,-47 1,-96 2,-147 0,-51 1,-95 1,-131 0,-78 -3,-185 -8,-322 -5,-136 -12,-302 -22,-498 0,0 11,0 32,1 22,1 46,1 75,2 29,0 57,1 84,2 27,0 46,1 57,1 10,0 31,-1 63,-1 32,-1 65,-2 99,-2 34,-1 65,-1 91,-2 27,-1 41,-1 41,-1 3,88 7,164 10,230 4,65 7,120 10,164 68,7 111,11 129,11 2,0 11,-1 25,-1 15,-1 28,-2 40,-2 11,-1 18,-1 21,-1l0 -401 533 24c-2,67 -4,130 -5,189 -1,60 -2,116 -2,168 0,169 2,327 5,473 4,147 9,284 15,410l-557 0c2,-32 4,-72 6,-119 2,-47 3,-91 4,-134 0,-42 1,-78 1,-108 0,-30 0,-45 0,-45 -54,-11 -95,-16 -123,-16 -18,0 -51,2 -98,5 -5,79 -8,153 -11,222 -2,70 -3,135 -3,195l-518 0zm1396 0c0,0 0,-15 0,-45 1,-31 2,-67 2,-110 1,-43 2,-89 2,-137 1,-48 1,-89 1,-123 0,-93 -2,-211 -7,-352 -5,-142 -12,-307 -22,-497 0,0 11,0 32,1 21,1 45,2 73,3 27,1 54,2 81,2 26,1 45,1 56,1 10,0 30,0 61,-1 31,0 64,-1 98,-2 34,-1 64,-2 90,-3 26,-1 39,-1 39,-1 -5,102 -8,199 -10,290 -2,91 -3,176 -3,255 0,24 1,65 1,123 1,57 2,119 3,185 1,65 3,130 4,195 2,64 4,115 4,154 1,38 1,59 1,62l-506 0zm579 -1235l488 -22 22 419 38 0c31,-59 61,-125 91,-197 31,-73 61,-152 91,-238l529 100c-111,162 -216,341 -315,539l-4 19c96,137 229,308 401,512l-540 107c-99,-131 -188,-264 -266,-397l-30 0c-4,75 -6,133 -6,173 0,8 1,31 2,68 1,37 3,88 5,152l-501 0c0,0 1,-23 2,-69 1,-46 3,-100 4,-161 1,-61 2,-122 3,-183 2,-61 2,-105 2,-133 0,-164 -5,-394 -16,-689zm1940 -34l428 0 598 1253 -514 22 -75 -206c-58,-1 -108,-2 -150,-3 -42,0 -75,-1 -99,-1 -26,0 -53,1 -82,1 -29,1 -60,2 -93,3l-71 206 -468 -17c93,-202 184,-409 272,-618 88,-210 173,-423 254,-640zm257 453l-111 250 226 24 -115 -274zm851 816c0,0 0,-16 1,-48 0,-32 1,-72 1,-118 1,-47 2,-96 2,-147 1,-51 1,-95 1,-131 0,-78 -2,-185 -7,-322 -5,-136 -12,-302 -22,-498 0,0 11,0 32,1 21,1 46,1 75,2 28,0 56,1 83,2 28,0 47,1 58,1 9,0 30,-1 63,-1 32,-1 65,-2 99,-2 34,-1 64,-1 91,-2 27,-1 40,-1 40,-1 4,88 7,164 11,230 4,65 7,120 9,164 68,7 111,11 129,11 3,0 11,-1 26,-1 14,-1 28,-2 39,-2 12,-1 19,-1 21,-1l0 -401 534 24c-3,67 -4,130 -6,189 -1,60 -2,116 -2,168 0,169 2,327 6,473 4,147 8,284 15,410l-558 0c3,-32 5,-72 6,-119 2,-47 3,-91 4,-134 1,-42 1,-78 1,-108 0,-30 0,-45 0,-45 -53,-11 -94,-16 -122,-16 -18,0 -51,2 -98,5 -5,79 -9,153 -11,222 -3,70 -4,135 -4,195l-517 0zm1898 -1269l428 0 597 1253 -513 22 -75 -206c-58,-1 -108,-2 -150,-3 -42,0 -75,-1 -100,-1 -25,0 -52,1 -81,1 -30,1 -61,2 -93,3l-71 206 -469 -17c94,-202 185,-409 273,-618 88,-210 172,-423 254,-640zm257 453l-111 250 225 24 -114 -274z"/>
 </g>
</svg>
