<?xml version="1.0" encoding="UTF-8"?>
<!DOCTYPE svg PUBLIC "-//W3C//DTD SVG 1.1//EN" "http://www.w3.org/Graphics/SVG/1.1/DTD/svg11.dtd">
<!-- Creator: CorelDRAW X7 -->
<svg xmlns="http://www.w3.org/2000/svg" xml:space="preserve" width="153.199mm" height="17.2083mm" version="1.1" style="shape-rendering:geometricPrecision; text-rendering:geometricPrecision; image-rendering:optimizeQuality; fill-rule:evenodd; clip-rule:evenodd"
viewBox="0 0 15322 1721"
 xmlns:xlink="http://www.w3.org/1999/xlink">
 <defs>
  <style type="text/css">
   <![CDATA[
    .str0 {stroke:#008DD2;stroke-width:7.62105}
    .fil0 {fill:#FEFEFE;fill-rule:nonzero}
   ]]>
  </style>
 </defs>
 <g id="Слой_x0020_1">
  <metadata id="CorelCorpID_0Corel-Layer"/>
  <path class="fil0 str0" d="M4 1061l169 13c76,-175 151,-350 223,-526 73,-178 143,-357 211,-539l491 0 491 964 194 -39 0 691 -463 92 -81 -254 -768 0 -56 162 -411 -68 0 -496 0 0zm835 -500l-180 533c20,0 45,-1 77,-2 32,-1 67,-3 102,-6 36,-3 71,-7 107,-11 35,-6 66,-12 93,-21l-199 -493zm1815 -546c250,0 440,62 568,186 130,125 194,306 194,545 0,222 -66,398 -195,526 -135,128 -321,191 -559,191 -252,0 -442,-56 -568,-170 -152,-136 -228,-327 -228,-575 0,-227 68,-401 202,-521 134,-122 329,-182 586,-182zm-15 465c-61,0 -114,19 -157,58 -47,44 -71,100 -71,170 0,60 25,110 74,152 49,42 106,64 166,64 68,0 124,-27 168,-78 40,-47 60,-101 60,-161 0,-27 -8,-54 -22,-78 -14,-25 -34,-47 -58,-65 -23,-18 -49,-33 -77,-45 -27,-11 -56,-17 -83,-17l0 0zm1082 -455l423 -15c78,198 174,414 288,645 55,-88 112,-186 167,-293 55,-106 110,-222 166,-350l404 18c7,223 30,451 69,683 39,232 95,472 170,719l-604 31c-51,-202 -86,-376 -107,-519l-325 534 -313 -536 -134 521 -557 0c66,-233 129,-470 188,-707 58,-238 113,-481 165,-731l0 0zm1797 1438c0,0 0,-17 1,-51 1,-36 1,-77 2,-126 1,-50 1,-102 3,-157 0,-55 1,-102 1,-141 0,-107 -4,-242 -9,-404 -6,-162 -14,-352 -26,-569 0,0 13,0 37,1 25,1 53,2 84,3 32,1 63,3 92,3 31,1 53,1 66,1 10,0 34,0 70,-1 35,0 72,-2 111,-3 39,-1 73,-2 103,-3 31,-1 46,-1 46,-1 -6,117 -10,228 -12,332 -2,104 -3,202 -3,292 0,28 0,75 1,141 0,66 1,137 2,212 3,75 4,149 6,224 2,73 4,132 5,176 0,44 1,68 1,71l-581 0 0 0zm691 0c0,0 0,-18 1,-55 1,-36 1,-82 2,-135 0,-54 2,-110 3,-168 0,-59 1,-109 1,-151 0,-89 -4,-212 -9,-369 -6,-155 -14,-346 -26,-570 0,0 13,0 37,1 25,1 53,1 86,2 33,0 65,1 96,2 31,0 53,2 66,2 11,0 35,-2 72,-2 37,-1 74,-2 113,-2 39,-1 75,-1 105,-2 31,-1 47,-1 47,-1 3,101 8,188 11,263 5,75 8,138 12,188 77,8 127,13 147,13 3,0 13,-1 29,-1 17,-1 32,-3 46,-3 13,-1 21,-1 24,-1l0 -459 611 27c-2,77 -5,149 -6,217 -1,69 -2,133 -2,192 0,194 2,375 6,542 4,169 10,326 17,470l-639 0c3,-36 5,-82 7,-136 3,-54 4,-104 5,-154 0,-48 1,-89 1,-123 0,-35 0,-52 0,-52 -62,-13 -109,-18 -141,-18 -21,0 -58,2 -112,5 -6,91 -9,176 -13,255 -2,80 -3,155 -3,223l-594 0zm1600 0c0,0 0,-17 0,-51 1,-36 2,-77 2,-126 1,-50 3,-102 3,-157 1,-55 1,-102 1,-141 0,-107 -3,-242 -8,-404 -6,-162 -14,-352 -26,-569 0,0 13,0 37,1 24,1 52,2 84,3 31,1 62,3 93,3 29,1 51,1 64,1 11,0 34,0 70,-1 35,0 73,-2 112,-3 39,-1 73,-2 103,-3 30,-1 45,-1 45,-1 -6,117 -9,228 -12,332 -2,104 -3,202 -3,292 0,28 1,75 1,141 1,66 2,137 4,212 1,75 3,149 4,224 2,73 5,132 5,176 1,44 1,68 1,71l-580 0 0 0zm664 -1415l559 -25 25 480 44 0c35,-68 70,-143 104,-226 35,-84 70,-174 104,-273l607 115c-128,186 -248,391 -362,618l-4 22c110,157 262,353 459,586l-618 123c-114,-150 -216,-303 -305,-455l-35 0c-4,86 -7,152 -7,198 0,9 2,36 3,78 1,43 3,101 5,174l-574 0c0,0 1,-26 3,-79 1,-52 3,-114 4,-184 1,-70 2,-140 4,-210 2,-70 2,-120 2,-152 0,-188 -6,-452 -18,-790l0 0zm2223 -39l491 0 685 1436 -589 25 -86 -236c-67,-1 -124,-2 -172,-3 -48,0 -86,-1 -113,-1 -30,0 -61,1 -94,1 -34,1 -69,2 -107,3l-81 236 -537 -19c107,-232 211,-469 312,-709 101,-240 198,-484 291,-733zm295 519l-128 287 259 27 -131 -314 0 0zm975 935c0,0 0,-18 1,-55 0,-36 1,-82 1,-135 1,-54 3,-110 3,-168 1,-59 1,-109 1,-151 0,-89 -3,-212 -8,-369 -6,-155 -14,-346 -26,-570 0,0 13,0 37,1 24,1 53,1 86,2 32,0 64,1 95,2 32,0 54,2 67,2 10,0 34,-2 72,-2 37,-1 74,-2 113,-2 39,-1 74,-1 105,-2 31,-1 46,-1 46,-1 4,101 8,188 12,263 5,75 8,138 10,188 78,8 128,13 148,13 4,0 13,-1 30,-1 16,-1 32,-3 45,-3 14,-1 22,-1 24,-1l0 -459 612 27c-4,77 -5,149 -7,217 -1,69 -2,133 -2,192 0,194 2,375 7,542 4,169 9,326 17,470l-640 0c4,-36 6,-82 7,-136 2,-54 4,-104 5,-154 1,-48 1,-89 1,-123 0,-35 0,-52 0,-52 -61,-13 -108,-18 -140,-18 -21,0 -58,2 -112,5 -6,91 -11,176 -13,255 -3,80 -4,155 -4,223l-593 0 0 0zm2175 -1454l491 0 684 1436 -588 25 -86 -236c-66,-1 -124,-2 -172,-3 -48,0 -86,-1 -114,-1 -29,0 -60,1 -93,1 -35,1 -70,2 -107,3l-81 236 -538 -19c108,-232 212,-469 313,-709 101,-240 197,-484 291,-733zm295 519l-127 287 258 27 -131 -314 0 0z"/>
 </g>
</svg>
