<?xml version="1.0" encoding="UTF-8"?>
<!DOCTYPE svg PUBLIC "-//W3C//DTD SVG 1.1//EN" "http://www.w3.org/Graphics/SVG/1.1/DTD/svg11.dtd">
<!-- Creator: CorelDRAW X7 -->
<svg xmlns="http://www.w3.org/2000/svg" xml:space="preserve" width="44.4066mm" height="14.9999mm" version="1.1" style="shape-rendering:geometricPrecision; text-rendering:geometricPrecision; image-rendering:optimizeQuality; fill-rule:evenodd; clip-rule:evenodd"
viewBox="0 0 4442 1500"
 xmlns:xlink="http://www.w3.org/1999/xlink">
 <defs>
  <style type="text/css">
   <![CDATA[
    .str0 {stroke:#1B4E9B;stroke-width:7.62192}
    .fil0 {fill:#FEFEFE;fill-rule:nonzero}
   ]]>
  </style>
 </defs>
 <g id="Слой_x0020_1">
  <metadata id="CorelCorpID_0Corel-Layer"/>
  <path class="fil0 str0" d="M791 22c251,0 441,63 569,186 129,125 194,307 194,545 0,223 -65,397 -194,525 -136,130 -322,193 -560,193 -253,0 -443,-57 -569,-172 -152,-134 -227,-326 -227,-573 0,-227 68,-402 201,-522 134,-122 330,-182 586,-182l0 0zm-15 466c-60,0 -113,20 -157,57 -46,44 -70,101 -70,170 0,61 25,110 73,152 50,43 106,64 167,64 68,0 124,-26 167,-79 41,-46 61,-100 61,-159 0,-29 -8,-54 -23,-78 -14,-26 -33,-47 -57,-65 -23,-20 -50,-35 -77,-45 -29,-12 -56,-17 -84,-17l0 0zm1289 -472l491 0 685 1437 -590 24 -85 -236c-67,0 -124,-2 -173,-3 -48,0 -85,0 -114,0 -29,0 -60,0 -93,0 -33,1 -69,3 -107,3l-81 236 -536 -18c107,-233 211,-470 311,-709 101,-241 199,-485 292,-734l0 0zm294 519l-127 287 259 27 -132 -314zm964 -519l1024 0 90 382c-108,-9 -191,-12 -248,-12 -20,0 -49,0 -86,3 -38,1 -84,4 -139,7l-7 149c34,3 69,6 104,8 34,1 69,1 102,1 32,0 71,-1 114,-4 46,-3 95,-6 151,-12l-69 411c-52,-6 -97,-12 -134,-15 -39,-3 -71,-6 -98,-6 -35,0 -84,3 -148,7l-9 152 452 24 -113 385c0,0 -24,-1 -72,-6 -50,-3 -107,-7 -173,-10 -67,-5 -133,-9 -199,-12 -66,-3 -116,-5 -150,-5 -21,0 -53,0 -97,2 -43,1 -87,3 -129,3 -44,0 -81,1 -113,3 -32,1 -48,3 -48,3 13,-93 24,-209 30,-345 6,-135 9,-292 9,-468l0 -64c0,-210 -14,-404 -44,-581l0 0z"/>
 </g>
</svg>
