<?xml version="1.0" encoding="UTF-8"?>
<!DOCTYPE svg PUBLIC "-//W3C//DTD SVG 1.1//EN" "http://www.w3.org/Graphics/SVG/1.1/DTD/svg11.dtd">
<!-- Creator: CorelDRAW X7 -->
<svg xmlns="http://www.w3.org/2000/svg" xml:space="preserve" width="44.3262mm" height="14.8032mm" version="1.1" style="shape-rendering:geometricPrecision; text-rendering:geometricPrecision; image-rendering:optimizeQuality; fill-rule:evenodd; clip-rule:evenodd"
viewBox="0 0 2946 984"
 xmlns:xlink="http://www.w3.org/1999/xlink">
 <defs>
  <style type="text/css">
   <![CDATA[
    .fil0 {fill:#FEFEFE;fill-rule:nonzero}
   ]]>
  </style>
 </defs>
 <g id="Слой_x0020_1">
  <metadata id="CorelCorpID_0Corel-Layer"/>
  <path class="fil0" d="M523 4c167,0 293,42 378,124 86,83 129,204 129,362 0,148 -43,264 -129,349 -90,86 -214,128 -372,128 -168,0 -294,-38 -378,-114 -101,-89 -151,-217 -151,-381 0,-151 45,-267 134,-347 89,-81 219,-121 389,-121zm-10 310c-40,0 -75,13 -104,38 -31,29 -47,67 -47,113 0,40 17,73 49,101 33,28 70,42 111,42 45,0 82,-17 111,-52 27,-31 40,-67 40,-106 0,-19 -5,-36 -15,-52 -9,-17 -22,-31 -38,-43 -15,-13 -33,-23 -51,-30 -19,-8 -37,-11 -56,-11zm857 -314l326 0 455 955 -392 16 -56 -157c-45,0 -83,-1 -115,-2 -32,0 -57,0 -76,0 -19,0 -40,0 -62,0 -22,1 -46,2 -71,2l-54 157 -356 -12c71,-155 140,-312 207,-471 67,-160 132,-322 194,-488zm195 345l-84 191 172 18 -88 -209zm641 -345l680 0 60 254c-72,-6 -127,-8 -165,-8 -13,0 -32,0 -57,2 -25,1 -56,3 -92,5l-5 99c23,2 46,4 69,5 23,1 46,1 68,1 21,0 47,-1 76,-3 30,-2 63,-4 100,-8l-46 273c-34,-4 -64,-8 -89,-10 -26,-2 -47,-4 -65,-4 -23,0 -56,2 -98,5l-6 101 300 16 -75 256c0,0 -16,-1 -48,-4 -33,-2 -71,-5 -115,-7 -44,-3 -88,-6 -132,-8 -44,-2 -77,-3 -100,-3 -14,0 -35,0 -64,1 -29,1 -58,2 -86,2 -29,0 -54,1 -75,2 -21,1 -32,2 -32,2 9,-62 16,-139 20,-229 4,-90 6,-194 6,-311l0 -43c0,-139 -9,-268 -29,-386z"/>
 </g>
</svg>
