<?xml version="1.0" encoding="UTF-8"?>
<!DOCTYPE svg PUBLIC "-//W3C//DTD SVG 1.1//EN" "http://www.w3.org/Graphics/SVG/1.1/DTD/svg11.dtd">
<!-- Creator: CorelDRAW X7 -->
<svg xmlns="http://www.w3.org/2000/svg" xml:space="preserve" width="107.229mm" height="14.9769mm" version="1.1" style="shape-rendering:geometricPrecision; text-rendering:geometricPrecision; image-rendering:optimizeQuality; fill-rule:evenodd; clip-rule:evenodd"
viewBox="0 0 10723 1498"
 xmlns:xlink="http://www.w3.org/1999/xlink">
 <defs>
  <style type="text/css">
   <![CDATA[
    .str0 {stroke:#FEFEFE;stroke-width:7.61987}
    .fil0 {fill:#006CB5;fill-rule:nonzero}
   ]]>
  </style>
 </defs>
 <g id="Слой_x0020_1">
  <metadata id="CorelCorpID_0Corel-Layer"/>
  <path class="fil0 str0" d="M12 168l0 -49c118,-62 242,-99 376,-115 173,56 298,114 376,175 83,66 124,143 124,232 0,110 -79,241 -235,393 82,66 138,116 166,154 34,47 52,101 52,161 0,81 -18,143 -52,188 -17,22 -43,45 -76,67 -35,21 -72,42 -113,60 -40,18 -81,33 -122,44 -41,12 -76,16 -108,16 -91,0 -218,-27 -381,-85l0 -50c43,-30 79,-57 108,-77 29,-21 51,-39 64,-52 41,-41 62,-81 62,-124 0,-25 -8,-50 -24,-77 -17,-27 -36,-52 -61,-77 -23,-26 -49,-49 -78,-69 -29,-21 -58,-39 -86,-52l6 -88c92,-49 158,-98 201,-150 42,-52 63,-114 63,-186 0,-110 -87,-189 -262,-239l0 0zm1562 -141l491 0 684 1436 -588 25 -86 -235c-67,-1 -124,-3 -172,-4 -48,0 -86,-1 -114,-1 -29,0 -60,1 -94,1 -34,1 -69,3 -106,4l-81 235 -537 -18c106,-233 210,-469 312,-709 100,-241 198,-485 291,-734l0 0 0 0zm294 520l-127 286 259 27 -132 -313 0 0zm976 935c0,0 0,-18 1,-55 0,-36 1,-82 2,-136 0,-53 1,-110 1,-168 2,-59 2,-108 2,-151 0,-88 -3,-211 -9,-367 -5,-157 -13,-347 -24,-572 0,0 12,0 36,1 24,1 53,1 86,3 33,0 64,1 96,1 31,1 53,1 66,1 11,0 35,0 71,-1 38,0 75,-1 114,-1 39,-2 74,-2 105,-3 30,-1 46,-1 46,-1 4,100 9,189 12,264 4,74 7,137 11,187 77,8 127,13 148,13 3,0 13,-1 29,-1 16,-1 32,-1 46,-2 12,-2 20,-2 22,-2l0 -459 612 28c-2,76 -5,148 -6,216 -1,69 -1,133 -1,192 0,194 1,375 6,543 4,169 10,325 17,470l-640 0c3,-37 5,-83 8,-136 2,-55 3,-105 4,-154 0,-49 0,-90 0,-124 0,-34 0,-51 0,-51 -60,-13 -107,-19 -139,-19 -21,0 -59,2 -113,6 -5,90 -10,175 -12,255 -3,80 -4,153 -4,223l-593 0 0 0 0 0zm1581 -1314l0 -49c116,-62 241,-99 374,-115 173,56 299,114 376,175 83,66 124,143 124,232 0,110 -78,241 -234,393 83,66 137,116 165,154 35,47 52,101 52,161 0,81 -17,143 -52,188 -17,22 -43,45 -76,67 -34,21 -72,42 -112,60 -41,18 -81,33 -122,44 -41,12 -77,16 -107,16 -92,0 -220,-27 -382,-85l0 -50c42,-30 78,-57 109,-77 29,-21 50,-39 64,-52 41,-41 60,-81 60,-124 0,-25 -7,-50 -24,-77 -16,-27 -35,-52 -59,-77 -23,-26 -50,-49 -80,-69 -29,-21 -57,-39 -85,-52l6 -88c92,-49 159,-98 201,-150 41,-52 62,-114 62,-186 0,-110 -86,-189 -260,-239l0 0zm985 1314c0,0 0,-18 1,-52 0,-35 1,-77 1,-127 2,-49 3,-101 3,-155 1,-56 1,-103 1,-142 0,-107 -2,-242 -9,-404 -4,-162 -13,-351 -25,-569 0,0 12,0 38,1 24,1 52,1 83,4 31,1 62,2 93,2 30,1 52,1 64,1 11,0 35,0 70,-1 35,0 73,-1 111,-2 40,-3 74,-3 104,-4 31,-1 45,-1 45,-1 -6,117 -10,227 -11,332 -2,104 -3,202 -3,293 0,28 0,75 1,140 0,67 1,137 2,213 3,75 4,149 6,222 2,74 4,133 4,177 1,45 1,68 1,72l-580 0 0 0zm664 -1420l1130 -41 0 440c-91,-13 -184,-27 -278,-38 -95,-10 -192,-20 -293,-26l11 156 422 68c34,4 73,20 115,45 43,25 82,55 117,91 35,35 65,74 90,116 25,41 37,81 37,121 0,12 -2,29 -6,52 -4,22 -7,45 -13,69 -6,23 -12,46 -20,65 -8,21 -15,35 -21,44l-135 150c-44,47 -94,78 -150,94 -35,10 -96,14 -183,14l-823 0c0,0 0,-21 1,-65 1,-42 1,-95 2,-157 0,-62 1,-127 1,-196 2,-68 2,-127 2,-176 0,-58 0,-130 0,-215 0,-88 0,-172 -2,-257 0,-84 -1,-159 -1,-226 -1,-68 -2,-110 -3,-128l0 0zm579 892l23 265c35,-9 71,-26 106,-52 36,-27 54,-57 54,-90 0,-25 -17,-49 -49,-73 -33,-23 -78,-40 -134,-50l0 0zm1459 -927l490 0 685 1436 -589 25 -86 -235c-66,-1 -123,-3 -172,-4 -48,0 -85,-1 -113,-1 -29,0 -61,1 -94,1 -34,1 -69,3 -107,4l-81 235 -537 -18c107,-233 211,-469 312,-709 101,-241 199,-485 292,-734l0 0 0 0zm293 520l-127 286 259 27 -132 -313 0 0zm1546 204l0 82c85,-31 156,-80 214,-146 50,-57 74,-106 74,-149 0,-37 -22,-75 -66,-112 -16,-12 -41,-30 -76,-51 -34,-22 -79,-48 -131,-78 -6,74 -10,149 -12,226 -3,76 -3,152 -3,228l0 0zm-579 -718l488 0c82,0 151,1 209,2 58,2 104,4 136,6 93,9 178,42 252,98 82,66 146,135 192,205 47,70 70,131 70,186 0,89 -11,171 -33,248 -23,76 -56,141 -102,197 -46,55 -104,99 -173,129 -70,31 -152,46 -247,46 -54,0 -123,-4 -205,-12 0,126 8,240 25,344l-614 0c15,-145 24,-279 30,-403 8,-125 10,-240 10,-344 0,-195 -12,-429 -38,-702l0 0 0 0z"/>
 </g>
</svg>
