<?xml version="1.0" encoding="UTF-8"?>
<!DOCTYPE svg PUBLIC "-//W3C//DTD SVG 1.1//EN" "http://www.w3.org/Graphics/SVG/1.1/DTD/svg11.dtd">
<!-- Creator: CorelDRAW X7 -->
<svg xmlns="http://www.w3.org/2000/svg" xml:space="preserve" width="189.285mm" height="99.6195mm" version="1.1" style="shape-rendering:geometricPrecision; text-rendering:geometricPrecision; image-rendering:optimizeQuality; fill-rule:evenodd; clip-rule:evenodd"
viewBox="0 0 18801 9895"
 xmlns:xlink="http://www.w3.org/1999/xlink">
 <defs>
  <style type="text/css">
   <![CDATA[
    .str0 {stroke:#00ACF2;stroke-width:19.8648}
    .fil63 {fill:#006788}
    .fil74 {fill:#006A97}
    .fil71 {fill:#007799}
    .fil20 {fill:#0078A8}
    .fil44 {fill:#007AB6}
    .fil78 {fill:#0085AA}
    .fil39 {fill:#0088B8}
    .fil10 {fill:#0088C8}
    .fil41 {fill:#008AD7}
    .fil35 {fill:#008CEA}
    .fil7 {fill:#008D57}
    .fil34 {fill:#0094BB}
    .fil47 {fill:#0097C8}
    .fil18 {fill:#0097D8}
    .fil28 {fill:#009BE3}
    .fil26 {fill:#00A4CB}
    .fil27 {fill:#00A7D8}
    .fil48 {fill:#00ABE4}
    .fil1 {fill:#00ACF2}
    .fil0 {fill:#00ACF2}
    .fil50 {fill:#00B3E4}
    .fil58 {fill:#00BDF2}
    .fil21 {fill:#00C2F4}
    .fil25 {fill:#00C4EB}
    .fil32 {fill:#00CAF9}
    .fil69 {fill:#0159DB}
    .fil72 {fill:#04748B}
    .fil73 {fill:#075775}
    .fil66 {fill:#084B66}
    .fil30 {fill:#0C5335}
    .fil62 {fill:#0D394E}
    .fil45 {fill:#0D7154}
    .fil51 {fill:#0F181D}
    .fil38 {fill:#0F2B34}
    .fil61 {fill:#114B55}
    .fil67 {fill:#145174}
    .fil8 {fill:#145265}
    .fil12 {fill:#14536A}
    .fil11 {fill:#173A4A}
    .fil3 {fill:#184C65}
    .fil14 {fill:#194759}
    .fil57 {fill:#1B5267}
    .fil83 {fill:#254859}
    .fil55 {fill:#263A4C}
    .fil80 {fill:#2E4C55}
    .fil70 {fill:#4C6C73}
    .fil91 {fill:#5A622F}
    .fil75 {fill:#93A496}
    .fil46 {fill:#B01327}
    .fil76 {fill:#B1C8A8}
    .fil88 {fill:#B1F3FC}
    .fil52 {fill:#B2B4B5}
    .fil2 {fill:#B71326}
    .fil37 {fill:#B76E1C}
    .fil56 {fill:#B9C7C7}
    .fil40 {fill:#C41428}
    .fil42 {fill:#C7C8C9}
    .fil59 {fill:#C91833}
    .fil90 {fill:#C9FBFE}
    .fil64 {fill:#CAD5D6}
    .fil49 {fill:#CFCECE}
    .fil77 {fill:#D1C669}
    .fil85 {fill:#D2EDEF}
    .fil33 {fill:#D4D6A2}
    .fil86 {fill:#D5DBE5}
    .fil24 {fill:#D81B34}
    .fil54 {fill:#D8D8D8}
    .fil4 {fill:#D9162E}
    .fil89 {fill:#D9FAFB}
    .fil36 {fill:#DAE7E7}
    .fil23 {fill:#E2E2E2}
    .fil92 {fill:#E4FDFE}
    .fil15 {fill:#E5E5E5}
    .fil29 {fill:#E8E7E7}
    .fil82 {fill:#E9F5F6}
    .fil19 {fill:#EA1935}
    .fil68 {fill:#ECECEC}
    .fil84 {fill:#ECFDFD}
    .fil43 {fill:#F2F3F2}
    .fil79 {fill:#F3FDFD}
    .fil87 {fill:#F47788}
    .fil81 {fill:#F6F6F6}
    .fil65 {fill:#FAAEB7}
    .fil9 {fill:#FAFAFA}
    .fil31 {fill:#FAFFFF}
    .fil16 {fill:#FB2648}
    .fil60 {fill:#FB8E28}
    .fil22 {fill:#FC243C}
    .fil13 {fill:#FCFBFC}
    .fil17 {fill:#FEAB2A}
    .fil53 {fill:#FEFDFE}
    .fil6 {fill:#FF2444}
    .fil5 {fill:#FFB328}
   ]]>
  </style>
 </defs>
 <g id="Слой_x0020_1">
  <metadata id="CorelCorpID_0Corel-Layer"/>
  <rect class="fil0 str0" x="10" y="10" width="18781" height="9875"/>
  <path class="fil1" d="M11830 8200l40 39 -42 41 -39 -42 41 -38zm-470 -61c25,24 54,52 83,77 -59,38 -37,15 -73,77 -21,-32 -57,-62 -81,-84 54,-26 43,-18 71,-70zm-73 -323l-42 39c-18,-25 -10,-16 -39,-42l50 -41 31 44zm381 -1354c-23,-15 -23,-13 -37,-30 59,-9 25,-22 37,30zm-292 -281l375 0 98 8 -1 123c-87,22 -162,65 -244,40l-23 3c-27,16 10,5 -82,-5 -63,-6 -164,9 -216,-37 -50,-45 -47,-79 11,-103 -57,20 -54,-16 -57,-18l139 -11zm43 -251c117,3 168,56 202,145 44,-7 84,-16 124,11 12,8 39,38 42,47 18,61 15,29 -13,46l-717 -3c17,-116 80,-111 189,-98 34,-143 92,-86 152,-187l21 39zm-61 -133c69,-43 19,-12 33,0 -3,1 -7,5 -8,6 -62,18 -6,6 -25,-6zm-22 -117c42,-34 9,-23 38,0 -25,19 5,35 -38,0zm-1 -105c21,-31 -12,-15 34,-35 -18,42 10,28 -34,35zm33 -364c15,-7 -22,-55 33,0 -60,47 -18,9 -33,0zm26 -117c45,-30 14,-17 39,0 -19,15 -17,18 -39,0zm50 -129c16,15 43,-6 0,37l0 -37zm37 -90l35 0c-3,2 -8,7 -10,7l-18 0c-1,-3 -5,-5 -7,-7zm2151 4593c-49,-56 -75,-37 -81,-145 -5,-72 0,-161 -1,-235 0,-163 0,-325 -1,-487l-537 -130 23 -92 68 -325c18,-47 4,-69 40,-91 22,-83 83,-130 96,-200 -23,-40 -39,-31 -80,-65 -2,-2 -5,-5 -8,-7 -114,-95 -295,8 -431,67 -67,29 12,-7 -49,35l-418 196c-4,2 -15,8 -19,10 -19,9 -28,14 -41,19 -155,58 -110,-3 -218,128 -82,-33 -2,-29 -112,-21 -56,4 -30,1 -111,-29l-61 -40c-53,-66 0,-19 -61,-36 7,-36 18,-62 -2,-94 7,-27 -16,-7 11,-8 1,0 20,9 24,11l-14 -59c1,-54 -184,-471 -211,-501 -52,7 -8,-11 -34,21 -2,3 -2,40 -8,19 -1,-2 -2,7 -4,11 -36,-73 -73,-47 -25,-88l-52 -26c3,-3 7,-6 9,-8l36 -39c-86,0 -8,6 -42,-28 -53,-77 -55,-229 -66,-324 -10,-85 -57,-308 -24,-366 44,-48 304,-63 399,-68 95,-19 556,-81 649,-70 38,-35 58,-8 109,-33 -29,-170 -56,-302 -58,-491 -107,-32 -175,-200 -354,-185 -4,-62 -13,-58 -62,-81 -115,-55 -221,-108 -330,-84 -19,-34 13,-44 -116,-64l-93 -18 -29 15 -9 -30c-212,-14 -559,-90 -738,-101 -64,-3 -68,15 -110,8 -63,-11 -27,-26 -71,-60 82,-143 74,-63 200,-49 85,8 190,6 278,11 181,9 367,21 548,13 25,-1 86,0 109,-4 90,-18 8,-41 112,-21 84,16 286,-25 347,-72 37,-28 3,-17 56,-20 109,-7 383,-153 408,-204 -58,-33 -106,-66 -160,-92 -52,-6 -36,-6 -64,-49 -48,-10 -68,-30 -107,-55 -19,-11 -35,-22 -55,-32 -47,-23 -15,-12 -48,-16l-47 -7c16,28 1,21 35,41 -68,10 -60,19 -74,40l-138 231c-65,-12 -26,-11 -51,-18 -34,-10 -1,3 -34,-9l-42 -22c-28,-20 -15,-11 -33,-28 -79,-76 -48,-71 -89,-124l-34 -4 4 -33 -10 -39c-9,-47 -29,33 0,-18 -53,-38 -156,-53 -188,-97 45,-27 129,-41 194,-54 85,-16 114,-19 135,-92 -141,-81 -375,-242 -502,-290 -64,-24 -82,-36 -137,-69 -105,-61 -71,-31 -107,-85 -53,-82 -43,-26 -89,-100 -26,-42 -32,-79 -78,-106 -69,-1 -21,-1 -41,16l1 48c-15,76 52,0 -8,95 -6,-25 -4,-21 -13,-45 -1,-4 -7,-17 -9,-21l-54 79c-33,57 -34,1 -15,77 -126,64 -55,52 -120,243 -10,28 -1,14 -11,24 -40,42 9,-56 -37,32 -13,23 -16,56 -23,81 -29,99 -107,110 -14,119 -62,83 -31,-21 -70,147 -16,69 -16,33 -35,83l-40 192c11,115 29,-27 25,86 -3,75 -36,85 -22,211l-90 -19c-6,73 -20,126 -15,221 12,221 0,474 0,702 29,20 -2,13 57,15l0 28c-73,20 -43,102 -67,181 -1,3 -2,8 -4,11 27,15 31,8 41,14 65,38 5,29 49,157 8,22 6,14 13,45 7,33 12,47 19,88 10,61 30,40 -20,62l52 106c1,4 2,8 4,11 8,23 7,11 19,54 9,32 15,85 25,121l164 408c1,4 2,8 4,11l15 41c7,35 7,23 -5,51l42 0c-24,40 -5,31 -56,45 41,27 17,0 37,33 9,14 12,38 27,62 39,64 58,32 91,69 29,34 8,33 62,100 30,37 32,82 17,114 113,6 62,42 83,107l105 128c86,55 53,77 111,138 2,3 6,5 8,7 2,3 5,5 7,7l484 504c34,14 37,21 77,32l3 115c81,7 192,74 261,119 37,24 46,27 58,73 75,-6 21,-74 163,42 80,66 15,63 137,126l54 34c3,2 6,4 9,6l118 43c81,14 162,6 236,7 57,1 923,38 969,-24z"/>
  <path class="fil2" d="M13632 9468l71 7 1228 -6 25 -3c125,-85 88,-188 88,-378 1,-147 -8,-321 5,-465 -30,150 -14,400 -20,567 -44,-43 -29,-39 -46,-84l-16 61 -32 -40c-70,-82 -52,-170 -70,-332 -43,2 -35,-33 -51,-36l-873 -27c1,-3 3,-8 4,-11 1,-2 3,-6 4,-8 9,-25 11,3 2,-13 -39,35 -73,51 -132,16 -64,19 52,-33 -20,16l-66 31 -25 366c-117,-1 23,-69 -86,44l-66 -571 -7 -1c1,162 1,324 1,487 1,74 -4,163 1,235 6,108 32,89 81,145z"/>
  <path class="fil3" d="M16075 6889c155,-40 300,78 329,199 41,171 -74,312 -206,341 -360,80 -481,-446 -123,-540zm568 11c18,-52 51,-70 37,-117 41,0 19,-7 50,23 -68,57 -25,55 -87,94zm-94 -65c28,-43 29,-78 77,-98 3,2 7,5 8,5l14 17c2,28 -23,77 -50,109l2 -57c-105,82 20,46 -51,24zm-57 -22c-11,-24 -25,36 -7,-44 9,-41 30,-61 56,-74 22,9 17,8 32,25 1,2 -2,111 -81,93zm-93 -55c45,-99 32,-100 79,-108 22,24 49,35 -3,76 -18,14 -59,28 -76,32zm-30 -49c-9,-59 -16,-64 15,-102 60,16 26,3 39,38 -33,7 5,4 -36,-8 3,40 2,63 -12,92 -37,-5 -37,-7 -49,-38 12,-6 2,-20 43,18zm-76 -45c-9,-69 -22,-58 18,-104l23 36c-1,1 -6,3 -7,3l-17 2c10,53 18,40 -11,82 -38,-2 -36,-5 -47,-38 21,-8 -4,-10 18,-1 5,2 13,15 15,11 1,-3 5,6 8,9zm-129 -48c26,-40 35,-80 101,-87l-40 112 -61 -25zm-70 -30c15,-55 25,-80 65,-114 53,26 43,56 -3,80 -3,2 -7,3 -11,4l-41 22c-2,-3 -6,5 -10,8zm230 -249c-4,3 -14,14 -16,15 -1,1 -7,10 -8,7 -2,-2 -6,4 -10,8l-112 -75 -48 -12c-88,7 -111,82 -151,155 -23,42 -83,164 -112,181 -41,108 -126,230 -187,339 -62,109 -123,207 -182,316 31,18 1,-5 38,29l43 43c48,29 112,24 187,23 66,0 64,5 101,-32 36,68 -14,-3 -8,72 85,46 -67,-13 33,8 3,1 15,3 18,4l15 2c-25,18 -5,-21 -29,30 -29,60 -7,32 0,45 65,-25 25,-51 70,-68 20,24 15,6 11,45 -12,112 -98,31 -105,119 45,-17 15,-26 73,-17 3,0 7,2 9,2 37,7 121,19 135,-4 42,-69 -29,13 -3,-67l109 -3c-7,3 -33,9 -34,9l-47 26 265 61c-18,37 -16,25 -7,69l96 -22 11 -15c9,-53 38,-86 65,-133 23,-41 40,-77 65,-99l19 -36c25,-55 102,-210 145,-243 29,-128 178,-246 158,-371 -63,-70 -349,-189 -393,-247 -53,-19 -55,-27 -97,-52 12,-30 5,-6 23,-27 7,-10 8,0 21,-29 -32,-49 -51,-228 -50,-304 1,-94 35,-239 60,-325l-67 19c17,83 -3,65 -6,144 -1,54 6,120 5,177 -2,86 -9,92 -23,162 -16,76 11,91 -25,146l-59 -16c-1,-4 -4,-10 -4,-13l8 -46z"/>
  <path class="fil3" d="M12623 3812c26,-54 22,-36 41,0l-41 0zm110 -49c11,-6 -4,-36 41,0 -62,64 -39,2 -41,0zm112 -27c21,-16 -14,-13 24,-11 48,3 -5,-11 23,10 -27,33 -20,35 -47,1zm120 -17l40 0c-28,21 51,34 -30,9 -2,-1 -6,-6 -10,-9zm-1338 -749l35 25c75,38 21,-9 74,43 20,19 64,69 87,87l223 144c62,43 42,35 72,102 49,107 121,36 208,145 26,33 36,106 50,146 117,-33 127,-2 111,116l26 47 36 -3 6 33c35,34 63,49 84,82l46 59c38,23 41,48 89,81 41,28 73,42 108,82 62,71 96,135 90,250 41,-27 55,-46 95,-80 29,-25 72,-55 101,-76 79,-57 141,-89 227,-141 -19,-24 -97,-69 -254,-285 -82,-111 -170,-183 -245,-283l45 -49c17,-49 -27,-145 -60,-183 -25,-29 -75,-50 -97,-80 -43,-59 10,-58 -77,-79 -23,32 -9,40 -29,66 -41,-13 -73,-35 -111,-45 -50,-14 -101,-4 -138,-25 -16,-9 -132,-92 -79,-175l-48 43c-13,-11 -39,-43 -23,-66l-40 56c-55,-13 -20,10 -56,-43l-1 59c-1,0 -27,25 -28,28 -23,40 -1,-19 -11,24 -6,28 3,52 8,78 30,19 79,33 90,84 -49,15 -28,5 -94,-27 -176,-84 -271,-183 -374,-222 -5,-45 1,-80 -7,-107l-68 -2 -29 -84 -38 26c-24,26 -22,11 -16,46 13,89 64,-29 12,103z"/>
  <path class="fil4" d="M14004 8225l-10 27 -29 182c128,4 721,-17 786,10l-17 10c-45,15 -688,13 -781,2l-24 117 -22 92c-33,3 -11,10 -58,-1 -57,-13 -11,-4 -33,-19 -80,8 -175,-29 -260,-43l66 571c109,-113 -31,-45 86,-44l25 -366 66 -31c72,-49 -44,3 20,-16 59,35 93,19 132,-16 9,16 7,-12 -2,13 -1,2 -3,6 -4,8 -1,3 -3,8 -4,11l873 27c16,3 8,38 51,36 18,162 0,250 70,332l32 40 16 -61c17,45 2,41 46,84 6,-167 -10,-417 20,-567l1 8 -7 -78 2 -361 3 -77 -3 -133 0 -41 3 -67 1 -91c-33,68 0,649 -28,799 -37,-43 -24,-102 -25,-168 0,-56 -8,-100 -11,-119l-2 275c-5,-2 -10,-5 -13,-6l-58 -26c-1,-1 -7,0 -8,-3 -1,-3 -5,-2 -8,-3 -11,-299 -18,-288 -316,-288l-519 2c-19,-2 -15,-2 -33,-9 -4,-1 -20,-10 -24,-12z"/>
  <path class="fil5" d="M16917 4959c-38,24 -123,36 -180,32l42 36c-55,46 -25,39 -63,85l-16 14c-17,189 -86,280 -116,425 93,-14 86,-72 209,-189 69,-66 134,-119 210,-176l-76 129c17,11 -30,12 30,4 103,-36 237,-57 343,-78 111,-22 227,-88 337,-102 53,60 84,139 101,219 59,39 43,34 134,41 18,79 46,112 92,166 16,-112 -8,-93 -26,-165 -26,-20 -3,8 -33,-33 -17,-24 -14,-22 -23,-49 -41,-123 -51,-218 -36,-351l129 -40c26,-25 50,-33 40,-96 -26,12 -8,4 -9,-10 -81,-14 -117,5 -197,11 -23,-54 -51,-114 -62,-181 -27,-24 -47,-71 -60,-142 -38,-90 14,-214 -91,-266l17 193c-40,58 -90,63 -70,151 21,96 31,91 3,195 -212,29 -152,47 -229,79 -79,33 -308,105 -400,98z"/>
  <path class="fil6" d="M14157 7625c4,5 9,10 11,14 2,3 6,10 8,13 2,3 8,20 9,25l628 -4c139,21 57,269 55,272 -44,50 -562,12 -708,22l-61 24 -75 164 -20 70c4,2 20,11 24,12 18,7 14,7 33,9l519 -2c298,0 305,-11 316,288 3,1 7,0 8,3 1,3 7,2 8,3l58 26c3,1 8,4 13,6l2 -275c3,19 11,63 11,119 1,66 -12,125 25,168 28,-150 -5,-731 28,-799l0 -167 -3 -37c-45,-134 -140,-114 -306,-115l-179 0 -467 -3c25,58 46,72 63,164z"/>
  <path class="fil7" d="M15080 4010c114,57 211,95 311,156 111,69 188,142 286,196 0,-78 149,78 153,82 31,24 29,14 59,43l91 99c97,86 32,59 92,100l25 -60c45,-30 198,-30 165,64 -1,3 -68,54 41,174 25,27 23,-22 44,84l60 193c22,8 12,-13 9,75 1,0 47,-14 47,-14l35 -77c61,-157 49,-202 162,-194 -3,-2 -9,-9 -11,-6l-68 -21c30,-61 30,-89 65,-118 2,-45 4,-67 35,-92 1,-69 -2,-42 34,-71l-14 -52c-94,-1 -185,25 -275,8 -3,2 -8,4 -11,5l-91 16c-38,2 -74,3 -112,4l-100 -1c12,-123 87,-235 68,-347 -25,-150 -117,-101 -207,-49 -30,17 -87,55 -113,42 -41,-21 1,-80 29,-100 4,-81 62,-101 62,-196 -60,-57 -76,-61 -162,-89 -37,-10 -666,117 -709,146z"/>
  <path class="fil1" d="M10820 3618c22,63 150,31 214,49 194,52 92,-8 351,175 55,39 119,65 167,106 95,11 76,-61 161,-96 62,51 42,21 23,101 224,-10 91,-28 208,-96 62,44 23,49 47,92 248,3 118,-58 385,-287 -14,-40 -24,-113 -50,-146 -87,-109 -159,-38 -208,-145 -30,-67 -10,-59 -72,-102l-223 -144c-23,-18 -67,-68 -87,-87 -53,-52 1,-5 -74,-43l-35 -25c-7,41 -11,116 -12,158 -1,58 117,171 143,163 2,0 11,-23 34,-3 16,14 99,156 -41,249 -67,44 -180,47 -287,47 -107,22 78,-30 -26,19l-95 13c-107,7 -38,18 -91,14 -23,-2 -34,-9 -39,-10 -72,-10 -56,23 -166,3 -49,-9 -88,-4 -122,-24 -14,-8 15,-2 -31,-27 -3,3 -6,4 -7,9 -13,64 -58,13 -67,5l0 32z"/>
  <path class="fil8" d="M14132 3444c14,-39 28,-33 56,25 22,-36 16,-25 20,-80l36 15c-63,-219 -358,-412 -394,-465l311 -11c-51,-101 -260,-112 -325,-145 104,-81 271,-90 404,-146 -28,-91 -152,-99 -263,-77 -114,22 -156,57 -239,100 1,-68 31,-183 45,-248 20,-98 47,-160 67,-246 -142,66 -202,252 -214,408 -52,-96 -43,-289 -85,-401 -144,152 -21,437 8,531 -118,-38 -153,-134 -433,-131l49 51c17,15 24,17 42,30l299 159c-86,48 -154,32 -245,110 -55,48 -116,127 -81,227 28,-14 4,0 26,-18 3,-2 20,-19 23,-22l130 -104c40,-25 157,-80 207,-84 -42,57 -65,143 -67,241 -1,50 5,105 14,153 22,113 41,90 54,97l46 -333c49,23 81,176 230,234 -8,-105 -47,-190 -70,-292 173,88 298,381 349,422z"/>
  <path class="fil9" d="M14753 4076c145,-28 541,200 647,271 362,239 660,656 766,1108 80,338 49,504 12,837l112 75c4,-4 8,-10 10,-8 1,3 7,-6 8,-7 2,-1 12,-12 16,-15l45 -318c-24,-106 -6,-250 -21,-368 -13,-107 -54,-241 -61,-328 -128,-250 -128,-442 -429,-761l-144 -150c-31,-27 -32,-15 -37,-50 -98,-54 -175,-127 -286,-196 -100,-61 -197,-99 -311,-156l-292 -90 -35 156z"/>
  <path class="fil9" d="M13395 4112c-86,52 -148,84 -227,141 -29,21 -72,51 -101,76 -40,34 -54,53 -95,80 -28,45 -71,80 -111,123 -19,20 -39,39 -56,59 -37,44 -3,24 -57,54 -28,54 -63,98 -101,155 -40,61 -60,106 -100,165l-74 164c-21,90 -60,185 -83,275 -22,84 -31,231 -56,293l-7 182c2,189 29,321 58,491 42,-35 60,-106 59,-178l53 -2c-25,-219 -37,-378 2,-592 35,-495 475,-1098 918,-1330 97,-51 404,-216 520,-191l-34 -158c-94,35 -178,52 -268,85 -89,33 -160,72 -240,108z"/>
  <path class="fil10" d="M13722 9522c-25,22 -36,-40 -27,57l-35 -28c-2,-2 -6,-6 -8,-8 -2,-2 -5,-6 -8,-9 -124,42 -333,14 -484,20 -134,6 -325,18 -452,47 69,53 54,12 138,20 62,7 110,18 177,28 137,19 233,23 386,23 65,0 125,-4 182,11 55,15 92,6 151,6 265,-3 983,18 1120,1 236,-30 534,-12 771,-31 11,-34 13,15 -5,-14 -29,-50 -17,24 -10,-11 78,0 129,-9 165,-53 -45,-18 -780,-55 -879,-47l12 -51 -26 46c-16,45 10,71 -62,76 -91,6 -67,-54 -76,-127l-897 -2c0,76 23,117 -51,129 -83,13 -81,-23 -82,-83z"/>
  <path class="fil11" d="M15429 7371c-6,50 2,19 -13,51l-18 25c-1,-3 -4,4 -6,7 -42,75 -73,103 -42,193 53,-4 65,6 110,51l45 30c59,15 -9,-14 20,6 20,14 15,12 27,24 59,25 28,12 47,38 57,7 255,130 322,170 95,58 223,164 308,91l22 -58 27 -62 12 0 -310 -1c20,-77 19,-58 92,-76 76,-19 39,-33 95,-66 14,-8 32,-14 55,-18 9,-2 36,-6 39,-6 47,-12 82,-58 111,-103 -9,-44 -11,-32 7,-69l-265 -61 47 -26c1,0 27,-6 34,-9l-109 3c-26,80 45,-2 3,67 -14,23 -98,11 -135,4 -2,0 -6,-2 -9,-2 -58,-9 -28,0 -73,17 7,-88 93,-7 105,-119 4,-39 9,-21 -11,-45 -45,17 -5,43 -70,68 -7,-13 -29,15 0,-45 24,-51 4,-12 29,-30l-15 -2c-3,-1 -15,-3 -18,-4 -100,-21 52,38 -33,-8 -6,-75 44,-4 8,-72 -37,37 -35,32 -101,32 -75,1 -139,6 -187,-23l-43 -43c-37,-34 -7,-11 -38,-29 -30,49 -40,71 -69,100z"/>
  <path class="fil12" d="M16569 5733l-56 -2c83,-164 34,-160 129,-167 -65,86 -32,39 -53,120 -11,45 -3,21 -20,49zm-140 -130c0,64 -7,66 -18,123 132,23 46,29 104,95 -4,-54 28,-49 76,-57 5,-1 50,-6 52,-6 74,6 27,-16 57,24 25,14 74,89 98,122 156,211 169,428 210,483 42,-99 -18,-303 -62,-383 -60,-110 -140,-165 -225,-244 117,-11 109,30 169,96 46,50 85,88 125,138 120,152 139,202 200,284l32 35c-6,-313 -334,-456 -395,-551 173,22 117,-23 311,187 90,98 126,173 182,242 2,3 5,6 7,9l16 16c2,-3 6,5 9,8 -33,-200 -199,-331 -317,-407 29,-25 0,-17 50,-21 43,-4 35,7 44,13 128,77 309,352 356,383 -13,-101 -76,-192 -145,-256 -25,-23 -33,-30 -54,-57 -28,-23 -24,-16 -45,-30 -73,-48 -25,8 -45,-59l69 -9c109,10 187,55 270,57 -40,-44 -130,-119 -224,-106 -61,9 -163,110 -275,19 142,-32 315,-44 439,-77 -127,-54 -399,-35 -455,87l-167 -27c62,-34 199,-56 277,-82 74,-24 187,-63 236,-121 -111,-4 -210,28 -294,26l-89 50c-135,69 -86,131 -285,115 19,-22 1,-7 33,-31l84 -47c39,-24 71,-49 104,-72 75,-53 125,-105 188,-155 40,-69 56,-51 90,-100 -122,21 -361,198 -454,298 -64,69 -32,108 -83,109 -62,1 -18,11 -56,-30 84,-58 107,-84 170,-180 153,-238 113,-134 158,-195 -60,8 -13,7 -30,-4l76 -129c-76,57 -141,110 -210,176 -123,117 -116,175 -209,189 30,-145 99,-236 116,-425l0 -57c-74,76 -189,284 -206,406 -12,89 20,125 -65,128z"/>
  <path class="fil13" d="M12178 6838l13 85c-51,36 -364,63 -419,65l-15 -103 421 -47zm-15 -132l10 85c-61,33 -348,55 -422,65l-3 -105 415 -45zm-18 -138l2 99c-87,9 -177,22 -264,34 -141,18 -147,49 -156,-87l418 -46zm-518 -95l84 711 31 -3c60,-41 203,-6 339,-48l247 -23c78,-22 144,-27 230,-33l11 6c12,-53 -2,-70 -19,-104 -24,-49 -17,-61 -83,-71l-224 17 -4 -93 254 -37 -92 -17 -173 13 -9 -94 199 -23c-28,-59 16,-7 -34,-23 -14,-5 -38,-4 -54,-4l-117 8 -13 -93 197 -33c-30,-40 -34,-65 -44,-131l-77 5c-93,-11 -554,51 -649,70z"/>
  <path class="fil6" d="M10754 3806c46,27 52,64 78,106 46,74 36,18 89,100 36,54 2,24 107,85 55,33 73,45 137,69 127,48 361,209 502,290 46,-25 23,-8 58,-53 15,-20 32,-43 43,-65l-3 -31c-34,42 8,26 -50,25 -49,-1 -21,-5 -49,-25 -106,-75 22,43 -88,-27 -67,-43 -40,-72 -91,-148 -33,-50 -26,-30 -13,-55 -37,-29 743,501 691,473 4,-47 -167,-272 -113,-281 37,-6 -542,-319 -500,-321 -48,-41 -112,-67 -167,-106 -259,-183 -157,-123 -351,-175 -64,-18 -192,14 -214,-49 -67,-35 -188,-27 -259,-42 -62,-9 -23,-10 -31,14 84,66 125,155 145,172l79 44z"/>
  <path class="fil8" d="M14604 3196c59,-7 18,-6 35,14 -19,33 -29,42 -50,79 -17,30 -22,61 -36,84 20,-36 47,-76 67,-113 19,28 18,-2 12,48 54,-43 106,-179 181,-232l-28 251c82,-40 101,-126 160,-210 45,71 39,196 88,261 87,-101 -7,-318 -56,-406 178,8 294,129 346,149 -13,-181 -142,-229 -321,-237 40,-45 213,-109 307,-247 -74,1 -143,27 -204,57 -69,34 -90,73 -145,101 27,-129 75,-365 -56,-441l-17 301c-45,-79 -54,-187 -218,-277 17,91 115,255 138,393 -120,-31 -355,-121 -418,27l90 24c31,5 61,9 91,15 57,12 123,20 167,49 -75,51 -201,57 -247,153 104,9 164,-13 260,-25 -44,67 -61,48 -146,182z"/>
  <path class="fil14" d="M12003 5305l-16 203 -230 -78 5 -87 241 -38zm-562 -51c45,31 78,24 131,31 -68,43 -82,7 -166,12 -8,25 -29,-36 -1,44 152,-13 159,-11 179,31l-76 20c-40,7 -100,-6 -132,10 48,20 75,8 128,6 -9,32 -3,2 -22,28 -28,41 -2,-30 -17,29 129,20 97,30 116,64 109,-24 215,29 330,84 49,23 58,19 62,81 179,-15 247,153 354,185l7 -182c-106,-44 -192,-180 -138,-340 39,-118 146,-188 277,-228l74 -164c-41,-6 -47,-15 -74,-32 -25,51 -299,197 -408,204 -53,3 -19,-8 -56,20 -61,47 -263,88 -347,72 -104,-20 -22,3 -112,21 -23,4 -84,3 -109,4z"/>
  <path class="fil15" d="M12385 6370c-51,25 -71,-2 -109,33l77 -5c10,66 14,91 44,131 63,4 20,-29 54,36 20,39 13,29 21,78 -66,-11 -100,-22 -142,4 16,0 40,-1 54,4 50,16 6,-36 34,23l42 -13c48,28 50,57 62,106l-93 -2 -28 13 92 17 46 -1c35,48 37,47 51,104l-84 -1 -39 11c66,10 59,22 83,71 17,34 31,51 19,104l152 -34c22,52 22,55 52,99 26,47 15,29 52,65 42,40 42,37 73,74 38,44 53,43 78,93 39,17 38,21 70,52 30,29 45,36 79,60 58,57 176,105 223,156 51,-23 74,-54 134,-87 -31,-33 -138,-85 -183,-118 -236,-167 -171,-147 -313,-272 -60,-52 -90,-96 -136,-156 -242,-316 -259,-494 -353,-825l-53 2c1,72 -17,143 -59,178z"/>
  <path class="fil16" d="M11537 7054c-69,4 -57,0 -122,18 35,-98 47,-13 21,-157l-146 22c26,-92 97,-84 126,-96l14 -101c53,30 8,-8 40,43 40,63 -7,27 40,48 36,17 79,0 118,60 -59,20 -75,13 -136,14 -14,160 3,76 45,149zm63 -497l2 74c-43,41 -253,44 -325,51l-10 -79 333 -46zm-282 716l197 -13 36 1c14,-9 -8,-3 33,-15 19,-5 22,-5 41,-7 45,-7 46,4 86,-14l-84 -710c-95,4 -355,19 -399,68 -33,57 14,281 24,365 11,96 13,247 66,325z"/>
  <path class="fil17" d="M11683 7378c46,21 31,16 60,69 61,3 28,-8 83,-5l69 16c-4,58 -36,26 -118,69 26,150 45,63 74,127 -48,17 -64,27 -94,39 -28,-70 41,15 -27,-144l-151 59c59,-95 12,-77 108,-120 -6,-51 -21,-74 -4,-110zm-132 -158l-36 -2c-49,39 -48,16 -95,71l18 80c27,30 212,447 211,501 19,16 10,4 27,24 8,10 12,20 13,21l66 2c86,-70 219,-77 310,-150 0,-106 -135,-272 -140,-381 -49,-49 -55,-137 -102,-182 -20,73 3,36 -144,97 -65,27 -126,54 -186,54l-7 -66 140 -67 -75 -2z"/>
  <path class="fil18" d="M18046 4837l-13 82c5,3 58,13 76,69 27,82 -47,103 -71,172 -39,111 15,248 -13,374l-23 -79c-20,144 24,90 -38,110 -46,-54 -74,-87 -92,-166 -91,-7 -75,-2 -134,-41 -3,-4 -8,-14 -11,-10 0,0 -18,-21 -60,-26 -5,-1 -55,2 -63,3 -47,6 -91,21 -152,35 -113,26 -186,51 -320,57 -63,50 -113,102 -188,155 -33,23 -65,48 -104,72l-84 47c-32,24 -14,9 -33,31 199,16 150,-46 285,-115l89 -50 -34 -9c99,-57 100,-42 220,-65 146,-28 236,-48 412,-45 23,30 12,-35 22,37l22 -35 20 30c2,2 5,5 7,7 22,11 21,5 56,-9 -3,5 -6,10 -8,14l-10 26c-1,0 -30,30 58,93 0,1 27,16 33,18 160,61 108,64 151,21 42,69 -41,55 76,53 -16,-77 -24,-12 -27,-87 38,-26 64,-46 66,-102l-51 13 4 -195c0,0 -70,-85 57,-177 105,-77 86,-179 31,-248l-141 -87c-8,28 16,36 -4,80l-11 -53z"/>
  <path class="fil19" d="M14152 7785l546 -2c22,2 18,2 37,7l-537 21c-51,-5 -43,16 -46,-26zm0 0l-53 206 61 -24c146,-10 664,28 708,-22 2,-3 84,-251 -55,-272l-628 4c-1,-5 -7,-22 -9,-25 -2,-3 -6,-10 -8,-13 -2,-4 -7,-9 -11,-14l-5 160z"/>
  <path class="fil9" d="M13587 8146c244,-46 324,341 68,385 -255,43 -335,-334 -68,-385zm135 -45c-75,-17 -94,-19 -48,-96l152 36c9,98 -27,78 -104,60zm-106 -65c-9,70 17,26 -33,41l14 -40c-42,-20 -15,11 -31,-32 21,-9 1,-20 49,-4 7,12 34,-24 1,35zm-513 18c68,15 130,30 198,45 69,16 144,22 185,57 -100,65 -122,158 -70,305l-381 -82 -23 92 537 130 7 1c85,14 180,51 260,43 42,-41 -1,0 35,-31l-4 -56 -93 -17 22 -34c2,-4 5,-7 7,-10 76,-100 80,-137 38,-279l78 9 35 0c8,-43 15,-56 40,-78l-34 -7 -87 -24c5,-113 32,-87 -104,-115 -64,-13 -124,-31 -191,-39l-18 2 -31 79 -194 -49 -138 -35 -34 2c-36,22 -22,44 -40,91z"/>
  <path class="fil20" d="M12808 7452l-743 315c-91,73 -224,80 -310,150l57 33c123,58 140,48 225,9l59 -30c4,-1 7,-3 11,-4 36,-13 48,-9 88,-38l110 -80c24,-20 10,-13 31,-23 4,-2 55,-17 56,-18 36,-12 76,-36 103,-46 88,-33 209,-79 284,-125 176,-109 405,-10 519,99 40,-25 18,-6 50,-46 -47,-51 -165,-99 -223,-156 -36,31 -34,29 -85,7 -19,-8 -43,-23 -59,-29l-99 -51 -74 33z"/>
  <path class="fil21" d="M12561 4528c11,35 134,95 187,117 54,-30 20,-10 57,-54 17,-20 37,-39 56,-59 40,-43 83,-78 111,-123 6,-115 -28,-179 -90,-250 -35,-40 -67,-54 -108,-82 -48,-33 -51,-58 -89,-81l-20 29c-2,2 -5,6 -7,9l-67 81c-32,43 -39,85 -42,160l21 163c0,2 1,7 1,9 10,90 -18,19 -10,81z"/>
  <path class="fil16" d="M13573 7519l-24 79 9 366c67,8 127,26 191,39 136,28 109,2 104,115l87 24 75 -180c-85,10 -225,23 -288,-9 -27,-22 -38,-191 13,-279l361 3c3,-100 -9,-152 -67,-203l-182 -11c-145,3 -185,-18 -279,56z"/>
  <path class="fil22" d="M14143 3517c-121,85 -197,151 -235,328l-1 44 -4 30 34 158 1 22c64,77 34,92 126,139l-2 -39c59,20 58,37 108,66 2,-4 3,-14 4,-12l14 -30c15,-26 -4,-11 24,-31 -50,-57 -90,-61 -139,-142 -37,-61 -50,-146 -32,-225 32,-142 148,-229 309,-242 95,9 147,30 201,78 72,64 58,101 108,156l27 -50c12,-35 -9,3 11,-37 2,3 4,5 4,11l24 79c9,38 14,77 23,108l17 -107c6,-119 -125,-245 -198,-291l-116 -44 -171 -9c-53,3 -95,23 -137,40z"/>
  <path class="fil5" d="M12161 2589l71 58c3,0 9,-1 11,-2 2,0 6,-1 9,-2 26,-33 -26,-5 31,-30 60,23 19,27 88,39 57,-94 5,-72 129,-90 3,-66 -11,-32 -11,-103 58,-39 49,-6 62,-80 -102,-24 -52,-50 -51,-143l-86 5 -40 -86c-76,13 -29,25 -81,32 -41,6 -33,-16 -83,-31 -53,55 -2,59 -87,86l-51 15 22 90 -73 52c94,91 70,46 51,150l71 23c35,19 6,-13 18,17z"/>
  <path class="fil23" d="M14560 7412l37 -12 5 -377 -22 49c-145,2 -304,-7 -467,0 -19,94 -12,238 18,319 75,36 336,40 429,21z"/>
  <path class="fil13" d="M11925 7386c5,109 140,275 140,381l743 -315 -66 -80c-44,-22 -111,-17 -151,-19 -53,5 -56,27 -76,6l-59 2 0 39c-102,34 -292,140 -378,151l-33 -72c10,-9 9,-9 27,-20l149 -58c-20,-42 35,-43 -46,-27l-152 58 -28 -70c-46,-12 -28,-11 -47,-19l-38 -15 15 58z"/>
  <path class="fil24" d="M14659 3817c-17,215 -56,350 -266,387l-181 -12c-28,20 -9,5 -24,31l-14 30c-1,-2 -2,8 -4,12 -50,-29 -49,-46 -108,-66l2 39c27,51 207,231 262,264l34 -163c44,12 29,-16 59,39 16,-66 36,-41 58,-44 6,41 -9,29 -9,65 55,-34 93,-83 153,-140 33,-31 52,-43 74,-73 22,-30 34,-60 57,-88l1 -22 35 -156 -23 -99 -17 107c-9,-31 -14,-70 -23,-108l-24 -79c0,-6 -2,-8 -4,-11 -20,40 1,2 -11,37l-27 50z"/>
  <path class="fil12" d="M11334 5432l24 -11 14 26 93 18c15,-59 -11,12 17,-29 19,-26 13,4 22,-28 -53,2 -80,14 -128,-6 32,-16 92,-3 132,-10 -47,-30 -110,-24 -161,-50l10 -38c36,24 14,-12 26,40l22 -3c-28,-80 -7,-19 1,-44 84,-5 98,31 166,-12 -53,-7 -86,0 -131,-31 -181,8 -367,-4 -548,-13 -88,-5 -193,-3 -278,-11 -126,-14 -118,-94 -200,49 44,34 8,49 71,60 42,7 46,-11 110,-8 179,11 526,87 738,101z"/>
  <path class="fil20" d="M16957 5319c-45,61 -5,-43 -158,195 -63,96 -86,122 -170,180 38,41 -6,31 56,30 51,-1 19,-40 83,-109 93,-100 332,-277 454,-298 -34,49 -50,31 -90,100 134,-6 207,-31 320,-57 61,-14 105,-29 152,-35 8,-1 58,-4 63,-3 42,5 60,26 60,26 3,-4 8,6 11,10 -17,-80 -48,-159 -101,-219 -110,14 -226,80 -337,102 -106,21 -240,42 -343,78z"/>
  <path class="fil25" d="M14753 4076l-1 22c86,55 319,77 626,286 592,404 898,1104 752,1896l48 12c37,-333 68,-499 -12,-837 -106,-452 -404,-869 -766,-1108 -106,-71 -502,-299 -647,-271z"/>
  <path class="fil26" d="M16094 3537c-32,31 -83,32 -134,33 12,5 22,13 46,22l65 24c-43,10 -132,37 -163,43 -46,8 -138,5 -187,5l-357 -32 -9 -94 -371 -1 212 26c-12,18 -19,22 -19,55 0,79 -4,22 21,53l55 60c161,6 336,7 497,3 97,-2 161,17 234,14 72,-2 129,-25 201,-35 -4,-65 -18,-14 2,-56 15,-33 19,-26 -2,-63 -7,-13 -34,-50 -42,-62 -46,-61 -38,-34 -44,-32 11,45 8,25 -5,37z"/>
  <path class="fil27" d="M11689 7915c-1,-1 -5,-11 -13,-21 -17,-20 -8,-8 -27,-24l14 59c-4,-2 -23,-11 -24,-11 -27,1 -4,-19 -11,8 20,32 9,58 2,94 61,17 8,-30 61,36l61 40c81,30 55,33 111,29 110,-8 30,-12 112,21 108,-131 63,-70 218,-128 13,-5 22,-10 41,-19 4,-2 15,-8 19,-10l418 -196c61,-42 -18,-6 49,-35 136,-59 317,-162 431,-67 3,2 6,5 8,7 41,34 57,25 80,65 51,-26 35,-15 44,-55 -74,-17 -92,-53 -163,-85 -135,-62 -281,1 -406,68l-323 180c-87,33 -253,74 -332,130 -56,40 -64,16 -215,56 -9,-14 14,-9 -14,-26 -44,-27 -32,-7 -36,-8 -66,-29 55,51 -20,-23 -23,-23 -7,-8 -41,-24 48,-26 21,-2 41,-42 -19,3 -29,7 -48,4 -44,-7 -19,-7 -37,-23z"/>
  <path class="fil18" d="M12551 2379c130,38 144,229 7,318 -48,31 -175,127 -268,6 -48,-64 48,-30 -38,-60 -3,1 -7,2 -9,2 -2,1 -8,2 -11,2l-71 -58 6 63c-23,26 -12,15 -12,24l57 105c31,37 21,23 69,48 38,20 69,96 259,19 31,-12 -2,2 29,-14 60,-30 71,-36 106,-82l53 -65c14,-19 8,-5 15,-27 8,-25 16,-155 -2,-204l-30 -57c-89,-177 -103,-56 -152,-154l-23 60c-4,-141 2,-37 -36,-69 -1,93 -51,119 51,143z"/>
  <path class="fil12" d="M13035 8379l381 82c-52,-147 -30,-240 70,-305 -41,-35 -116,-41 -185,-57 -68,-15 -130,-30 -198,-45l-68 325z"/>
  <path class="fil28" d="M16283 2696c20,-11 16,-16 34,0 -59,40 -17,8 -34,0zm158 160c38,-9 -31,-37 10,9 53,59 -22,40 72,36 -68,66 20,30 -58,170 -10,-4 -27,-17 -35,-19l-29 0c-28,4 -11,16 -80,18 -150,3 -318,18 -433,-60l-5 -107 -73 27c-15,20 -13,-16 -17,45 -3,40 1,25 10,45 46,98 135,93 238,101 83,6 58,25 148,20 91,-5 74,-32 138,2 47,25 -41,8 27,14 -21,-20 -9,0 -13,-31 33,8 3,-5 43,19 66,48 -58,2 14,-4l27 3c82,14 21,3 20,-42l55 11c4,1 14,2 17,3 48,20 2,-12 37,51 -2,-76 -5,-70 28,-136l51 -96 -26 -25c-34,-38 -48,-98 -70,-97l-35 -2c-28,-13 32,32 -19,-14 -54,-50 -30,-37 -32,-108 -55,48 8,25 -58,32 -16,-26 -21,3 12,-40l-21 6c-67,10 -3,-7 -93,-48 -24,19 -39,29 -39,66 -24,-39 -21,-19 -37,-66 -97,-3 -25,-9 -53,30 51,28 73,52 94,116 133,-24 113,8 185,71z"/>
  <path class="fil29" d="M15000 3509c-23,11 -21,-11 -16,28l371 1 739 -1c13,-12 16,8 5,-37 -108,-70 -65,22 -167,-80 -67,-67 -103,-28 -166,-42 -53,-12 -113,-167 -278,-140 -51,9 -15,-4 -44,18l62 -12 13 271 -501 -2 -18 -4z"/>
  <path class="fil27" d="M17185 7360c68,45 40,-21 56,48 13,57 -5,47 -31,68 -61,49 -374,49 -446,-3 -57,-41 21,-12 -48,-39 9,-35 18,-47 33,-74l-121 2 -19 36c41,58 -63,104 66,164l91 37 534 -8c3,-1 104,-71 83,-180 -5,-28 -12,-44 -26,-62l-99 -77c-102,-22 -1,-36 -111,-28 2,3 6,6 8,8 56,59 95,93 30,108z"/>
  <path class="fil30" d="M16287 5323c50,-35 -11,-32 25,-1 16,15 4,4 0,6 23,-56 17,-50 52,-79 32,61 -3,48 49,84l2 -21c-53,-72 22,-6 -84,-168 -51,-78 -25,-120 -88,-206 -107,-145 -59,-251 -146,-312l-25 60c-60,-41 5,-14 -92,-100l-91 -99c-30,-29 -28,-19 -59,-43 -4,-4 -153,-160 -153,-82 5,35 6,23 37,50l144 150c301,319 301,511 429,761z"/>
  <path class="fil10" d="M18471 6858c-33,32 -8,17 -57,33 -10,4 -38,3 -50,3 15,-14 8,-22 62,-6 45,13 34,2 52,35 -36,53 7,26 -79,39l-265 14c-57,-2 -134,-4 -179,-17 -86,-24 -49,-65 -49,-65l9 -37 -176 1c31,32 -40,32 41,31l-43 4c-27,118 -4,119 114,139 147,26 624,50 775,-12 3,-1 8,-4 10,-5 2,-1 7,-2 10,-4 3,-61 11,-72 -11,-120 -1,-1 -21,-35 -23,-36 -39,-48 -11,-24 -29,-18 -12,36 -67,20 -112,21z"/>
  <path class="fil31" d="M14212 4192l181 12 -47 -12c7,-82 -14,-74 28,-128 -212,12 -273,-206 -86,-330l62 -29 0 -122c-161,13 -277,100 -309,242 -18,79 -5,164 32,225 49,81 89,85 139,142z"/>
  <path class="fil15" d="M14288 3734c279,-26 295,268 86,330 -42,54 -21,46 -28,128l47 12c210,-37 249,-172 266,-387 -50,-55 -36,-92 -108,-156 -54,-48 -106,-69 -201,-78l0 122 -62 29z"/>
  <path class="fil29" d="M16290 7937l-12 0 735 -3c14,0 52,3 66,-3 43,-17 24,21 30,-34 -105,-67 -90,4 -159,-67 -64,-65 -80,-63 -191,-51 -2,-3 -6,-7 -7,-9 -34,-41 -61,-76 -108,-104 -50,-29 -99,-35 -165,-36l-11 15 49 9 -2 273 -225 10z"/>
  <path class="fil15" d="M17523 6835c24,25 9,16 55,22 7,1 49,0 59,0 34,0 69,0 102,1l176 -1 556 1c45,-1 100,15 112,-21 -45,-55 -18,-33 -83,-47l-55 -17c-2,-2 -28,-29 -37,-36 -110,-85 -149,38 -192,-81l-39 -25c-59,-46 -63,-54 -157,-59l1 263 -498 0z"/>
  <path class="fil32" d="M12499 5598c25,35 4,67 13,126 40,-53 45,-613 475,-1052 62,-63 118,-129 193,-188 449,-350 636,-308 758,-385l-1 -22c-116,-25 -423,140 -520,191 -443,232 -883,835 -918,1330z"/>
  <path class="fil33" d="M16092 7419c37,-36 33,-41 85,-54 0,0 22,16 22,16 14,14 11,12 23,25l-130 13zm-76 -31c28,-87 44,-74 63,-85l65 51c-56,38 -59,43 -128,34zm227 -1l-53 -37 71 -93 85 41c-29,45 -57,73 -103,89zm-250 -17c-31,-36 -38,-67 -37,-128l86 40 -49 88zm186 -34c-55,-14 -52,-25 -104,-40 19,-58 35,-71 50,-119l116 51c-17,54 -39,73 -62,108zm-299 -142c79,34 55,28 56,121 -33,-34 -46,-60 -56,-121zm490 86l-90 -46c8,-20 11,-29 21,-52l34 -63 51 30c13,56 -3,75 -16,131zm-313 -18c-50,-10 -46,-15 -88,-47l37 -117 111 59c-19,53 -24,55 -60,105zm207 -43c-55,-21 -56,-25 -106,-62l54 -108 93 51 -41 119zm-361 -180c45,15 39,14 86,46l-45 118 -71 -47 30 -117zm433 -33c8,10 21,20 32,44 14,29 14,39 21,69 -81,-31 -55,-11 -53,-113zm-311 81c26,-55 36,-70 75,-109l93 63 -64 99 -104 -53zm207 -62c15,-40 16,-53 65,-76l17 129 -82 -53zm-216 -98l64 42c-36,36 -41,43 -64,101l-92 -62 92 -81zm117 40c33,-40 55,-41 121,-36l-53 84 -68 -48zm35 -66c-32,40 -69,81 -115,8l115 -8zm-93 -12c-358,94 -237,620 123,540 132,-29 247,-170 206,-341 -29,-121 -174,-239 -329,-199z"/>
  <path class="fil34" d="M11755 7917l-66 -2c18,16 -7,16 37,23 19,3 29,-1 48,-4 -20,40 7,16 -41,42 34,16 18,1 41,24 75,74 -46,-6 20,23 4,1 -8,-19 36,8 28,17 5,12 14,26 151,-40 159,-16 215,-56 79,-56 245,-97 332,-130l323 -180c125,-67 271,-130 406,-68 71,32 89,68 163,85 24,0 22,7 15,-14 -114,-109 -343,-208 -519,-99 -75,46 -196,92 -284,125 -27,10 -67,34 -103,46 -1,1 -52,16 -56,18 -21,10 -7,3 -31,23l-110 80c-40,29 -52,25 -88,38 -4,1 -7,3 -11,4l-59 30c-85,39 -102,49 -225,-9l-57 -33z"/>
  <path class="fil19" d="M14015 7962l53 -150c-202,-15 -142,2 -217,47 0,-67 7,-15 -11,-75l238 7 23 -114 -361 -3c-51,88 -40,257 -13,279 63,32 203,19 288,9z"/>
  <path class="fil35" d="M12497 6190c94,331 111,509 353,825 46,60 76,104 136,156 142,125 77,105 313,272 45,33 152,85 183,118l67 -36c-90,-11 -309,-177 -369,-226 -118,-97 -206,-190 -300,-315 -159,-214 -323,-526 -349,-874l-19 -386c-9,-59 12,-91 -13,-126 -39,214 -27,373 -2,592z"/>
  <path class="fil13" d="M16372 7667c-29,45 -64,91 -111,103 -3,0 -30,4 -39,6 -23,4 -41,10 -55,18 -56,33 -19,47 -95,66 -73,18 -72,-1 -92,76l310 1 225 -10 2 -273 -49 -9 -96 22z"/>
  <path class="fil18" d="M17013 7934l68 20c-1,1 -30,8 -30,8 -36,14 -20,9 -32,17 64,6 69,-7 103,26 -109,46 -90,27 -108,10l-6 49c-137,0 -273,8 -410,6 -313,-4 -242,11 -347,-71l-22 58c17,18 22,28 39,44l16 14c64,45 761,32 821,20 129,-25 97,-83 98,-91l5 -18c1,-2 3,-8 4,-10 26,-84 -5,57 8,-25l-40 -27c-35,-31 -18,-31 -33,-51l-38 -16c-6,55 13,17 -30,34 -14,6 -52,3 -66,3z"/>
  <path class="fil36" d="M15889 4149c-28,20 -70,79 -29,100 26,13 83,-25 113,-42 90,-52 182,-101 207,49 31,-15 10,10 28,-47 9,-29 14,-54 21,-82 16,-57 31,-113 44,-168l25 -85 30 -107c-59,-4 -67,3 -112,66l-182 185c-123,87 -101,134 -145,131z"/>
  <path class="fil22" d="M14374 4064c209,-62 193,-356 -86,-330 -187,124 -126,342 86,330z"/>
  <path class="fil21" d="M12334 5697c25,-62 34,-209 56,-293 23,-90 62,-185 83,-275 -131,40 -238,110 -277,228 -54,160 32,296 138,340z"/>
  <path class="fil12" d="M14042 6908l1 89c14,31 6,18 25,39 87,1 175,1 263,1 44,0 90,2 133,2 94,-1 72,0 87,-58l0 -63c-32,-81 -102,-54 -205,-54 -88,1 -178,2 -266,1 -51,22 -20,-14 -38,43z"/>
  <path class="fil37" d="M16463 5202l-48 110 -2 21 16 270c85,-3 53,-39 65,-128 17,-122 132,-330 206,-406l0 57 16 -14 -25 -112c-1,-3 -3,-18 -5,-29l28 -3 8 -21 -62 -16c-113,-8 -101,37 -162,194l-35 77z"/>
  <path class="fil29" d="M12328 7110c27,18 19,5 30,38l-386 157 -39 -91c42,-19 119,-42 148,-81 -136,42 -279,7 -339,48 17,-1 39,-5 55,1 48,16 6,-18 26,22 47,45 53,133 102,182l-15 -58 38 15c19,8 1,7 47,19 19,-44 338,-179 376,-190l44 107c-73,8 -194,56 -240,95 81,-16 26,-15 46,27l194 -91 41 51 59 -2 -32 -70c28,-32 128,-71 169,-88 -19,-22 32,-21 -44,-16l-147 57 -37 -94c44,-13 103,-36 134,-71 -86,6 -152,11 -230,33z"/>
  <path class="fil38" d="M13561 8492c11,-30 79,-81 108,-110 37,-37 64,-73 99,-108 9,53 -2,40 -36,68 -65,54 -123,150 -171,150zm-53 -109c-73,-28 -15,-116 7,-140 18,-20 142,-92 144,-16 24,-19 22,-17 41,-31l47 28 -235 240c-44,-49 -48,-40 -4,-81zm79 -237c-267,51 -187,428 68,385 256,-44 176,-431 -68,-385z"/>
  <path class="fil13" d="M15000 3509l18 4 501 2 -13 -271 -62 12c-57,4 -80,26 -112,61 -58,64 -17,47 -108,64 -89,17 -62,30 -111,67 -68,53 -105,-6 -113,61z"/>
  <path class="fil39" d="M16402 7994c98,16 10,-33 10,-33 0,-2 -4,-1 -4,0 227,-17 327,-8 548,0l-107 8c-3,2 -10,10 -13,6 -2,-4 -8,3 -13,9l146 18c0,-1 -234,14 -283,14 -108,0 -189,-10 -284,-22zm-151 5c105,82 34,67 347,71 137,2 273,-6 410,-6l6 -49c18,17 -1,36 108,-10 -34,-33 -39,-20 -103,-26 12,-8 -4,-3 32,-17 0,0 29,-7 30,-8l-68 -20 -735 3 -27 62z"/>
  <path class="fil39" d="M16094 3537l-739 1 9 94 357 32c49,0 141,3 187,-5 31,-6 120,-33 163,-43l-65 -24c-24,-9 -34,-17 -46,-22 51,-1 102,-2 134,-33z"/>
  <path class="fil40" d="M12351 4809l-38 32c54,26 102,59 160,92 27,17 33,26 74,32 40,-59 60,-104 100,-165 38,-57 73,-101 101,-155 -53,-22 -176,-82 -187,-117l-58 -13c-37,-1 -20,-3 -37,10 66,20 36,6 35,74 -1,138 -34,173 -37,245 0,2 0,7 0,9 0,2 -1,7 -1,9 0,2 -2,12 -2,10 0,-2 0,8 -2,11 -47,-30 -83,-21 -108,-74z"/>
  <path class="fil41" d="M11654 3344c29,43 6,-14 -6,19l-4 10c-1,1 -2,5 -2,6 0,0 45,88 -148,91 -343,5 -224,-22 -334,-31 0,-68 10,-41 -13,-103 -46,0 -91,1 -137,1 -52,1 -93,15 -102,-30l-2 47c66,4 114,2 178,14 -29,16 -25,66 -24,99 91,52 62,63 214,62 91,0 370,20 445,-35 62,-45 40,-138 12,-171l-13 -10c-1,-1 -5,-3 -6,-3l-50 -28c-3,-1 -8,-5 -13,-6l5 68z"/>
  <path class="fil39" d="M12252 2643c86,30 -10,-4 38,60 93,121 220,25 268,-6 137,-89 123,-280 -7,-318 -13,74 -4,41 -62,80 0,71 14,37 11,103 -124,18 -72,-4 -129,90 -69,-12 -28,-16 -88,-39 -57,25 -5,-3 -31,30z"/>
  <path class="fil13" d="M17523 6835l498 0 -1 -263c-66,6 -111,24 -149,58 -21,18 -36,41 -50,53 -24,20 4,5 -28,17 -22,9 -15,4 -36,8 -112,22 -58,28 -122,67 -60,37 -71,-2 -112,60z"/>
  <path class="fil39" d="M17185 7360l-353 0 -83 0c-15,27 -24,39 -33,74 69,27 -9,-2 48,39 72,52 385,52 446,3 26,-21 44,-11 31,-68 -16,-69 12,-3 -56,-48z"/>
  <path class="fil10" d="M16286 3022c30,29 11,26 -4,40l4 -40zm136 -135l-43 5c-31,61 -3,6 4,85 -148,5 -68,20 -199,21 -87,0 -131,10 -179,-77 -2,-4 -9,-20 -12,-24l-110 6 5 107c115,78 283,63 433,60 69,-2 52,-14 80,-18l29 0c8,2 25,15 35,19 78,-140 -10,-104 58,-170 -94,4 -19,23 -72,-36 -41,-46 28,-18 -10,-9l-19 31z"/>
  <path class="fil39" d="M16273 3959c-13,55 -28,111 -44,168 -7,28 -12,53 -21,82 -18,57 3,32 -28,47 19,112 -56,224 -68,347l100 1c6,-33 32,-135 43,-172 19,-64 79,-207 89,-302 2,-23 8,-85 5,-105 -11,-68 0,-39 -36,-48l-12 37c-13,-96 -3,-28 -28,-55z"/>
  <path class="fil42" d="M14080 6865c88,1 178,0 266,-1 103,0 173,-27 205,54l15 -6c-11,-61 -8,-18 14,-34 227,115 165,106 184,426 6,95 16,97 63,145l-86 15 -1 0c166,1 261,-19 306,115 19,-10 34,-15 61,-27 19,-8 13,-2 30,-14 23,-15 8,-5 24,-23 -116,-56 -36,-44 -136,-76 -56,-18 -159,-15 -190,-40 -63,-51 -21,-309 -50,-403 -60,-200 -404,-171 -601,-157l-104 26z"/>
  <path class="fil29" d="M10923 3307l-15 0c9,45 50,31 102,30 46,0 91,-1 137,-1 135,1 389,-17 507,8l-5 -68 -12 -12c-48,-44 -46,-48 -162,-37 -17,-78 -66,-115 -138,-136 -61,19 -53,-32 -56,76 -1,47 -2,102 6,146 -76,13 -307,23 -364,-6z"/>
  <path class="fil43" d="M15789 3864c86,28 102,32 162,89 0,95 -58,115 -62,196 44,3 22,-44 145,-131l182 -185c45,-63 53,-70 112,-66 -26,-42 15,-29 -53,-23l-486 120z"/>
  <path class="fil44" d="M11654 3344c-118,-25 -372,-7 -507,-8 23,62 13,35 13,103 110,9 -9,36 334,31 193,-3 148,-91 148,-91 0,-1 1,-5 2,-6l4 -10c12,-33 35,24 6,-19z"/>
  <path class="fil44" d="M18471 6858l-556 -1 -9 37c0,0 -37,41 49,65 45,13 122,15 179,17l265 -14c86,-13 43,14 79,-39 -18,-33 -7,-22 -52,-35 -54,-16 -47,-8 -62,6 12,0 40,1 50,-3 49,-16 24,-1 57,-33z"/>
  <path class="fil18" d="M17687 4509c13,71 33,118 60,142l46 59c4,-52 -9,-55 -16,-106 48,28 40,34 60,85 34,87 39,48 24,100l107 9c21,-30 20,-38 -6,-86 -31,-60 -9,-21 -44,-42 11,-141 -44,-190 -90,-279 -38,15 -32,4 -62,12 -96,25 -21,46 -79,106z"/>
  <path class="fil45" d="M16415 5312l48 -110c0,0 -46,14 -47,14 3,-88 13,-67 -9,-75l-60 -193c-21,-106 -19,-57 -44,-84 -109,-120 -42,-171 -41,-174 33,-94 -120,-94 -165,-64 87,61 39,167 146,312 63,86 37,128 88,206 106,162 31,96 84,168z"/>
  <path class="fil29" d="M16832 7360l353 0c65,-15 26,-49 -30,-108 -2,-2 -6,-5 -8,-8l-113 6c-19,-84 -85,-137 -185,-145l-17 255z"/>
  <path class="fil38" d="M16287 5323c7,87 48,221 61,328 15,118 -3,262 21,368l9 103c2,-65 11,-119 20,-182 6,-46 -6,-138 30,-157l56 -33c-51,-7 -38,3 -73,-24 11,-57 18,-59 18,-123l-16 -270c-52,-36 -17,-23 -49,-84 -35,29 -29,23 -52,79 4,-2 16,9 0,-6 -36,-31 25,-34 -25,1z"/>
  <path class="fil46" d="M11673 4421c51,25 99,45 136,91l53 7c-2,-55 -12,62 14,-37l30 102c81,-26 377,239 462,251l93 -148c271,-96 -350,-402 -551,-540 -39,33 -217,233 -237,274z"/>
  <path class="fil47" d="M11581 6355l-14 -28c50,9 19,-16 37,25 82,25 157,-18 244,-40l1 -123 -98 -8c-29,54 14,72 -41,96 -35,16 -241,21 -286,6 -9,-3 -18,-11 -46,-18 2,-6 5,-13 8,-17 4,-6 26,-48 34,-29 -86,1 -14,9 -44,-38l-139 11c3,2 0,38 57,18 -58,24 -61,58 -11,103 52,46 153,31 216,37 92,10 55,21 82,5z"/>
  <path class="fil47" d="M16273 3959c25,27 15,-41 28,55l12 -37c36,9 25,-20 36,48 3,20 -3,82 -5,105 -10,95 -70,238 -89,302 -11,37 -37,139 -43,172 38,-1 74,-2 112,-4l91 -16c3,-1 8,-3 11,-5 -34,-5 -61,-2 -89,-8 -59,-11 1,5 -54,-25l26 -81c23,-83 77,-180 88,-262 31,-227 84,-282 -99,-329l-25 85z"/>
  <path class="fil9" d="M11774 6179l-347 -8 -8 -241 -21 -39c-60,101 -118,44 -152,187 -109,-13 -172,-18 -189,98l717 3z"/>
  <path class="fil29" d="M11774 6179c28,-17 31,15 13,-46 -3,-9 -30,-39 -42,-47 -40,-27 -80,-18 -124,-11 -34,-89 -85,-142 -202,-145l8 241 347 8z"/>
  <path class="fil20" d="M17938 5400l-12 -52c4,3 9,8 12,10l28 14c0,-32 -7,-54 -7,-62 -1,-97 71,-243 67,-287 -6,-69 0,-15 -22,-45 -28,-39 -24,26 -29,-51l-129 40c-15,133 -5,228 36,351 9,27 6,25 23,49 30,41 7,13 33,33z"/>
  <path class="fil46" d="M12351 4809c25,53 61,44 108,74 2,-3 2,-13 2,-11 0,2 2,-8 2,-10 0,-2 1,-7 1,-9 0,-2 0,-7 0,-9 3,-72 36,-107 37,-245 1,-68 31,-54 -35,-74 17,-13 0,-11 37,-10 -23,-28 -11,-10 -30,-31 -18,-20 -6,0 -14,-17l-55 -15c-121,178 -81,100 -53,357z"/>
  <path class="fil29" d="M16422 2887l19 -31c-72,-63 -52,-95 -185,-71 -21,-64 -43,-88 -94,-116 -20,-18 -34,-25 -64,-29 -21,-2 -32,-2 -51,3 -40,8 -10,-4 -32,15 69,-8 26,-4 49,8l-3 213 361 8z"/>
  <path class="fil48" d="M12459 4467c8,17 -4,-3 14,17 19,21 7,3 30,31l58 13c-8,-62 20,9 10,-81 0,-2 -1,-7 -1,-9l-21 -163c3,-75 10,-117 42,-160l67 -81c2,-3 5,-7 7,-9l20 -29 -46 -59c-41,26 -36,25 -60,65l-98 135c-2,2 -4,6 -6,8 -51,74 -44,29 -8,196 19,91 -16,56 -8,126z"/>
  <path class="fil13" d="M16422 2887l-361 -8 3 -213c-23,-12 20,-16 -49,-8 -74,0 -118,59 -132,129 -100,-8 -170,-19 -190,97l729 3z"/>
  <path class="fil49" d="M14068 7036c-6,70 -4,127 -2,224 1,86 5,147 75,177 -13,12 6,18 -47,24l467 3 -1 -52c-93,19 -354,15 -429,-21 -30,-81 -37,-225 -18,-319 163,-7 322,2 467,0l22 -49c-18,-26 8,-15 -51,-42 -15,58 7,57 -87,58 -43,0 -89,-2 -133,-2 -88,0 -176,0 -263,-1z"/>
  <path class="fil50" d="M13243 7918l7 37c42,9 61,-1 65,41l194 49 31 -79 6 -106c-3,-2 -8,-5 -10,-7l-63 -29c-2,-1 -5,-4 -8,-5 -82,-43 -35,5 -99,-54 -35,31 -37,33 -65,73 -21,30 -36,62 -58,80z"/>
  <path class="fil13" d="M10923 3307c57,29 288,19 364,6 -8,-44 -7,-99 -6,-146 3,-108 -5,-57 56,-76 -116,-42 -209,51 -233,141 -91,-13 -167,-12 -181,75z"/>
  <path class="fil51" d="M14034 7474c58,51 70,103 67,203l-23 114 -10 21 -53 150 -75 180 34 7 50 6 75 -164 53 -206 5 -160c-17,-92 -38,-106 -63,-164l-39 -16c-31,11 -38,-20 -21,29z"/>
  <path class="fil52" d="M12569 7083l-11 -6c-31,35 -90,58 -134,71l37 94 147 -57 47 -22c20,-5 42,-7 64,-8l-48 59c-2,5 -5,10 -7,16 66,14 19,21 73,34l80 2 117 133 42 -19c-25,-50 -40,-49 -78,-93 -31,-37 -31,-34 -73,-74 26,65 14,16 -15,38 -34,-6 -42,5 -68,-44 -17,-30 5,11 -18,-44 19,-26 7,-4 49,-15 -30,-44 -30,-47 -52,-99l-152 34z"/>
  <path class="fil3" d="M13847 8558l82 15 24 -117 12 -22 29 -182 -95 -25 -78 -9c42,142 38,179 -38,279 -2,3 -5,6 -7,10l-22 34 93 17z"/>
  <path class="fil10" d="M17975 4927c5,77 1,12 29,51 22,30 16,-24 22,45 4,44 -68,190 -67,287 0,8 7,30 7,62l-28 -14c-3,-2 -8,-7 -12,-10l12 52c18,72 42,53 26,165 62,-20 18,34 38,-110l23 79c28,-126 -26,-263 13,-374 24,-69 98,-90 71,-172 -18,-56 -71,-66 -76,-69l13 -82 -31 -6c10,63 -14,71 -40,96z"/>
  <path class="fil11" d="M16428 5783l67 -19c-25,86 -59,231 -60,325 -1,76 18,255 50,304 50,-160 94,-414 30,-572 -58,-66 28,-72 -104,-95 35,27 22,17 73,24l-56 33z"/>
  <path class="fil13" d="M14551 6981c59,27 33,16 51,42l-5 377 100 -2c-23,-168 66,-484 -131,-486l-15 6 0 63z"/>
  <path class="fil53" d="M13899 7398l91 0 2 -384 51 -17 -1 -89c-115,18 -142,51 -143,175 -1,97 13,225 0,315z"/>
  <path class="fil54" d="M11757 6885l15 103c55,-2 368,-29 419,-65l-13 -85 -421 47z"/>
  <path class="fil51" d="M13482 7561c-60,33 -83,64 -134,87 -32,40 -10,21 -50,46 7,21 9,14 -15,14 -9,40 7,29 -44,55 -13,70 -74,117 -96,200l34 -2c47,2 27,-3 34,-7 33,-21 -28,29 17,-15l15 -21c22,-18 37,-50 58,-80 28,-40 30,-42 65,-73 22,-39 41,-46 72,-79 22,-20 30,-33 55,-51 19,-13 34,-20 56,-37l24 -79 -24 6 -67 36z"/>
  <path class="fil54" d="M11748 6751l3 105c74,-10 361,-32 422,-65l-10 -85 -415 45z"/>
  <path class="fil24" d="M11768 4338c41,-26 37,-22 59,-67l-64 -34c-2,-1 -4,-5 -6,-8l-91 -3c-1,2 -3,-7 -4,-8 -31,-60 -19,-7 -25,-46 -14,-94 -1,77 5,-37l-1 -26c-1,-2 -2,-6 -1,-9l53 20c-45,-35 -156,-47 -219,-43 -13,25 -20,5 13,55 51,76 24,105 91,148 110,70 -18,-48 88,27 28,20 0,24 49,25 58,1 16,17 50,-25l3 31z"/>
  <path class="fil54" d="M11727 6614c9,136 15,105 156,87 87,-12 177,-25 264,-34l-2 -99 -418 46z"/>
  <path class="fil42" d="M11995 7362l28 70 152 -58c46,-39 167,-87 240,-95l-44 -107c-38,11 -357,146 -376,190z"/>
  <path class="fil47" d="M16515 5821c64,158 20,412 -30,572 -13,29 -14,19 -21,29 -18,21 -11,-3 -23,27 42,25 44,33 97,52 -9,-57 -4,-13 9,-82 29,-148 32,-263 35,-418 2,-109 -5,-148 28,-131 -3,-12 -9,-34 -8,-45 4,-43 -28,-6 19,-30 -7,-24 9,-43 -8,-13l87 0c-30,-40 17,-18 -57,-24 -2,0 -47,5 -52,6 -48,8 -80,3 -76,57z"/>
  <path class="fil38" d="M15045 8192l44 3 4 353 -50 5 7 78 91 -21c36,-97 24,-148 24,-268 1,-107 19,-179 -58,-216l-59 -11 -3 77z"/>
  <path class="fil34" d="M15045 7982l3 133 59 11c-3,-3 -7,-7 -10,-8 -2,-2 -7,-6 -9,-8l-34 -17 21 -82c66,30 195,-60 269,-87 273,-100 133,-92 255,-128 -19,-26 12,-13 -47,-38l-495 218c-2,-4 -8,4 -12,6z"/>
  <path class="fil52" d="M14566 6912c197,2 108,318 131,486l-100 2 -37 12 166 3 15 49 86 -15c-47,-48 -57,-50 -63,-145 -19,-320 43,-311 -184,-426 -22,16 -25,-27 -14,34z"/>
  <path class="fil55" d="M13722 9522c1,60 -1,96 82,83 74,-12 51,-53 51,-129l897 2c9,73 -15,133 76,127 72,-5 46,-31 62,-76l26 -46 15 -14 -1228 6 19 47z"/>
  <path class="fil49" d="M12221 7401l-149 58c-18,11 -17,11 -27,20l33 72c86,-11 276,-117 378,-151l0 -39 -41 -51 -194 91z"/>
  <path class="fil52" d="M13899 7398c-86,-12 -28,1 -49,22 96,-11 142,-19 205,25l39 16c53,-6 34,-12 47,-24 -70,-30 -74,-91 -75,-177 -2,-97 -4,-154 2,-224 -19,-21 -11,-8 -25,-39l-51 17 -2 384 -91 0z"/>
  <path class="fil56" d="M12081 7133c-29,39 -106,62 -148,81l39 91 386 -157c-11,-33 -3,-20 -30,-38l-247 23z"/>
  <path class="fil39" d="M11511 6235l24 -5c1,-4 6,4 9,5 -12,8 25,51 -33,0zm240 -54l-375 0c30,47 -42,39 44,38 -8,-19 -30,23 -34,29 -3,4 -6,11 -8,17 28,7 37,15 46,18 45,15 251,10 286,-6 55,-24 12,-42 41,-96z"/>
  <path class="fil54" d="M15123 7594c21,41 16,65 15,126l-4 15c78,-2 161,-70 216,-88 -31,-90 0,-118 42,-193 -43,9 -34,5 -74,31 -25,16 -38,27 -63,40 -39,21 -91,45 -132,69z"/>
  <path class="fil13" d="M16628 7362l121 -2 83 0 17 -255 -76 14c-43,33 -120,188 -145,243z"/>
  <path class="fil57" d="M16610 5870c90,144 130,450 177,528 79,-382 -144,-484 -166,-603 -47,24 -15,-13 -19,30 -1,11 5,33 8,45z"/>
  <path class="fil42" d="M12608 7185c76,-5 25,-6 44,16 -41,17 -141,56 -169,88l32 70c20,21 23,-1 76,-6 41,-39 112,-58 166,-68 58,77 84,42 125,134l52 -20 -117 -133 -80 -2c-54,-13 -7,-20 -73,-34 2,-6 5,-11 7,-16l48 -59c-22,1 -44,3 -64,8l-47 22z"/>
  <polygon class="fil58" points="11762,5343 11757,5430 11987,5508 12003,5305 "/>
  <path class="fil59" d="M11537 7054c-42,-73 -59,11 -45,-149 61,-1 77,6 136,-14 -39,-60 -82,-43 -118,-60 -47,-21 0,15 -40,-48 -32,-51 13,-13 -40,-43l-14 101c-29,12 -100,4 -126,96l146 -22c26,144 14,59 -21,157 65,-18 53,-14 122,-18z"/>
  <path class="fil60" d="M11743 7447c-29,-53 -14,-48 -60,-69 -17,36 -2,59 4,110 -96,43 -49,25 -108,120l151 -59c68,159 -1,74 27,144 30,-12 46,-22 94,-39 -29,-64 -48,23 -74,-127 82,-43 114,-11 118,-69l-69 -16c-55,-3 -22,8 -83,5z"/>
  <path class="fil44" d="M16249 2930c19,-15 12,-16 32,0 -19,9 1,22 -32,0zm130 -38l-386 5c3,4 10,20 12,24 48,87 92,77 179,77 131,-1 51,-16 199,-21 -7,-79 -35,-24 -4,-85z"/>
  <path class="fil59" d="M11673 4443l24 37c32,5 1,-7 48,16 19,10 36,21 55,33 39,24 59,44 106,55 -20,-80 -65,-242 -114,-300l-26 65c-85,-12 -6,-7 -86,18l8 40c-26,99 -16,-19 -15,36z"/>
  <path class="fil61" d="M16369 6019l-45 318 -8 46c0,3 3,9 4,13l59 16c36,-55 9,-70 25,-146 14,-70 21,-76 23,-162 1,-57 -6,-123 -5,-177 3,-79 23,-61 6,-144 -36,19 -24,111 -30,157 -9,63 -18,117 -20,182l-9 -103z"/>
  <path class="fil62" d="M15134 7735c-29,27 -5,9 -47,30 -23,11 -16,5 -38,18l-1 91c72,-34 143,-68 202,-91 70,-28 135,-81 210,-85 -45,-45 -57,-55 -110,-51 -55,18 -138,86 -216,88z"/>
  <path class="fil60" d="M11551 7220l75 2 -140 67 7 66c60,0 121,-27 186,-54 147,-61 124,-24 144,-97 -20,-40 22,-6 -26,-22 -16,-6 -38,-2 -55,-1l-31 3c-40,18 -41,7 -86,13 -19,3 -22,3 -41,8 -41,11 -19,5 -33,15z"/>
  <path class="fil11" d="M14451 3486l116 44c5,-93 57,-147 65,-222 6,-50 7,-20 -12,-48 -20,37 -47,77 -67,113 14,-23 19,-54 36,-84 21,-37 31,-46 50,-79 -17,-20 24,-21 -35,-14 -70,78 -100,171 -153,290z"/>
  <path class="fil59" d="M11827 4271c57,-47 64,-46 102,-121 -85,-6 -154,-36 -236,-30l-53 -20c-1,3 0,7 1,9l1 26c-6,114 -19,-57 -5,37 6,39 -6,-14 25,46 1,1 3,10 4,8l91 3c2,3 4,7 6,8l64 34z"/>
  <path class="fil59" d="M11267 6603l10 79c72,-7 282,-10 325,-51l-2 -74 -333 46z"/>
  <path class="fil63" d="M15045 7941l0 41c4,-2 10,-10 12,-6l495 -218c-12,-12 -7,-10 -27,-24 -29,-20 39,9 -20,-6 -87,0 -49,14 -122,52 -27,15 -86,34 -118,47 -41,19 -70,34 -125,51 -66,20 -47,4 -95,63z"/>
  <path class="fil47" d="M16681 4694l-6 69c108,-81 91,173 87,185 24,29 -1,12 43,20 17,-51 0,-29 62,-49l-26 -22c-2,-3 -8,-10 -9,-13 -10,-28 -1,11 6,-36 5,-34 7,-68 -3,-90 -29,-63 1,9 -89,-88 -41,-45 -26,4 -31,-47 -36,29 -33,2 -34,71z"/>
  <path class="fil64" d="M12467 6908l39 -11c-5,-44 6,-10 -10,-41 -20,-38 -9,-12 -28,-32 53,-10 9,-9 25,-29l-254 37 4 93 224 -17z"/>
  <path class="fil49" d="M12330 6647c42,-26 76,-15 142,-4 -8,-49 -1,-39 -21,-78 -34,-65 9,-32 -54,-36l-197 33 13 93 117 -8z"/>
  <path class="fil20" d="M16402 7994c95,12 176,22 284,22 49,0 283,-15 283,-14l-146 -18c5,-6 11,-13 13,-9 3,4 10,-4 13,-6l107 -8c-221,-8 -321,-17 -548,0 0,-1 4,-2 4,0 0,0 88,49 -10,33z"/>
  <path class="fil65" d="M13953 8456c93,11 736,13 781,-2l17 -10c-65,-27 -658,-6 -786,-10l-12 22z"/>
  <path class="fil39" d="M16646 4786c-7,61 -8,70 58,87l-26 46c103,0 15,-6 44,28l-8 21 23 23c57,4 142,-8 180,-32l-112 9c-44,-8 -19,9 -43,-20 4,-12 21,-266 -87,-185l6 -69c-31,25 -33,47 -35,92z"/>
  <path class="fil66" d="M15048 7874l-3 67c48,-59 29,-43 95,-63 55,-17 84,-32 125,-51 32,-13 91,-32 118,-47 73,-38 35,-52 122,-52l-45 -30c-75,4 -140,57 -210,85 -59,23 -130,57 -202,91z"/>
  <path class="fil64" d="M12401 6778l28 -13c20,-44 25,-40 -6,-78l37 -26 -42 13 -199 23 9 94 173 -13z"/>
  <path class="fil12" d="M10759 4330c92,19 74,75 152,124 49,-26 8,5 47,-43 84,-104 81,-51 164,-105 -71,-35 -160,34 -211,61 -47,-27 -87,-67 -148,-81l-41 -1 37 45z"/>
  <path class="fil67" d="M10616 4863l55 49c22,17 31,26 47,40 43,38 52,68 90,88 3,-2 8,-5 9,-7 2,-1 7,-5 9,-7 2,-1 6,-5 8,-7l26 -32c10,-12 33,-34 45,-43 37,-26 80,-30 115,-53 -62,-41 -173,37 -212,59 -60,-33 -107,-74 -192,-87z"/>
  <path class="fil12" d="M16898 4392c210,146 101,97 183,160 61,-24 35,-51 97,-92 44,-30 78,-30 117,-53 -71,-38 -162,35 -214,59 -37,-25 -136,-103 -183,-74z"/>
  <path class="fil57" d="M17330 5873c73,25 241,152 290,196 -14,-112 -154,-214 -275,-242l-53 -1 38 47z"/>
  <path class="fil51" d="M13508 8383c66,-61 139,-102 151,-156 -2,-76 -126,-4 -144,16 -22,24 -80,112 -7,140z"/>
  <path class="fil68" d="M12591 7353c40,2 107,-3 151,19l66 80 74 -33c-41,-92 -67,-57 -125,-134 -54,10 -125,29 -166,68z"/>
  <path class="fil69" d="M15161 7515c-16,18 -1,8 -24,23 -17,12 -11,6 -30,14 -27,12 -42,17 -61,27l3 37c54,-6 29,-2 74,-22 41,-24 93,-48 132,-69 25,-13 38,-24 63,-40 40,-26 31,-22 74,-31 2,-3 5,-10 6,-7l18 -25c15,-32 7,-1 13,-51 -79,37 -183,135 -268,144z"/>
  <path class="fil70" d="M13659 8227c-12,54 -85,95 -151,156 -44,41 -40,32 4,81l235 -240 -47 -28c-19,14 -17,12 -41,31z"/>
  <path class="fil71" d="M13366 7765c64,59 17,11 99,54 3,1 6,4 8,5l63 29c2,2 7,5 10,7l3 -103c-48,-41 -55,-26 -111,-71 -31,33 -50,40 -72,79z"/>
  <path class="fil39" d="M17747 4651c11,67 39,127 62,181 80,-6 116,-25 197,-11 -10,-27 41,-19 -38,-23l-107 -9c15,-52 10,-13 -24,-100 -20,-51 -12,-57 -60,-85 7,51 20,54 16,106l-46 -59z"/>
  <path class="fil59" d="M14326 4502l17 31c41,-34 95,-73 125,-134 0,-36 15,-24 9,-65 -22,3 -42,-22 -58,44 -30,-55 -15,-27 -59,-39l-34 163z"/>
  <polygon class="fil21" points="15043,8553 15093,8548 15089,8195 15045,8192 "/>
  <path class="fil18" d="M11318 7273c34,33 -44,28 42,28l-36 38c-2,2 -6,5 -9,8l52 27c-48,41 -11,14 25,87 2,-3 3,-12 4,-10 6,20 6,-17 8,-19 26,-32 -18,-14 34,-21l-18 -80c47,-55 46,-33 95,-71l-197 13z"/>
  <path class="fil3" d="M16179 7336c23,-35 45,-54 62,-108l-116 -51c-15,48 -31,61 -50,119 52,15 49,26 104,40z"/>
  <path class="fil3" d="M16025 7087l104 53 64 -99 -93 -63c-39,39 -49,54 -75,109z"/>
  <path class="fil3" d="M16057 7262c36,-50 41,-52 60,-105l-111 -59 -37 117c42,32 38,37 88,47z"/>
  <path class="fil3" d="M16305 7100l-93 -51 -54 108c50,37 51,41 106,62l41 -119z"/>
  <path class="fil72" d="M13826 8041l-152 -36c-46,77 -27,79 48,96 77,18 113,38 104,-60z"/>
  <path class="fil52" d="M15049 7616l0 167c22,-13 15,-7 38,-18 42,-21 18,-3 47,-30l4 -15c1,-61 6,-85 -15,-126 -45,20 -20,16 -74,22z"/>
  <path class="fil73" d="M12934 7399l-52 20 99 51c16,6 40,21 59,29 51,22 49,24 85,-7 -34,-24 -49,-31 -79,-60 -32,-31 -31,-35 -70,-52l-42 19z"/>
  <path class="fil52" d="M13438 7686c56,45 63,30 111,71l-3 103 -6 106 18 -2 -9 -366c-22,17 -37,24 -56,37 -25,18 -33,31 -55,51z"/>
  <path class="fil3" d="M15873 7156l71 47 45 -118c-47,-32 -41,-31 -86,-46l-30 117z"/>
  <path class="fil8" d="M16370 7280c13,-56 29,-75 16,-131l-51 -30 -34 63c-10,23 -13,32 -21,52l90 46z"/>
  <path class="fil3" d="M16243 7387c46,-16 74,-44 103,-89l-85 -41 -71 93 53 37z"/>
  <path class="fil9" d="M12147 1759c19,17 61,56 78,77 16,-19 55,-59 75,-77 -35,-26 -42,-35 -75,-72 -36,36 -31,40 -78,72z"/>
  <path class="fil9" d="M18248 5870c24,-43 31,-48 74,-74 -37,-45 -44,-27 -80,-86 -30,56 -23,48 -80,76 33,25 59,52 86,84z"/>
  <path class="fil3" d="M15924 7008l92 62c23,-58 28,-65 64,-101l-64 -42 -92 81z"/>
  <path class="fil65" d="M14152 7785c3,42 -5,21 46,26l537 -21c-19,-5 -15,-5 -37,-7l-546 2z"/>
  <path class="fil12" d="M13852 7463l182 11c-17,-49 -10,-18 21,-29 -63,-44 -109,-36 -205,-25l2 43z"/>
  <path class="fil11" d="M14132 3444l11 73c42,-17 84,-37 137,-40l-36 -73 -36 -15c-4,55 2,44 -20,80 -28,-58 -42,-64 -56,-25z"/>
  <path class="fil71" d="M16660 4931l62 16c-29,-34 59,-28 -44,-28l26 -46c-66,-17 -65,-26 -58,-87 -35,29 -35,57 -65,118l68 21c2,-3 8,4 11,6z"/>
  <polygon class="fil8" points="14561,7464 14740,7464 14741,7464 14726,7415 14560,7412 "/>
  <path class="fil74" d="M16569 5733c17,-28 9,-4 20,-49 21,-81 -12,-34 53,-120 -95,7 -46,3 -129,167l56 2z"/>
  <path class="fil23" d="M13816 8645c22,15 -24,6 33,19 47,11 25,4 58,1l22 -92 -82 -15 4 56c-36,31 7,-10 -35,31z"/>
  <path class="fil56" d="M12506 6897l84 1c-14,-57 -16,-56 -51,-104l-46 1c-16,20 28,19 -25,29 19,20 8,-6 28,32 16,31 5,-3 10,41z"/>
  <path class="fil50" d="M11508 5392l76 -20c-20,-42 -27,-44 -179,-31l-22 3 -36 -2c51,26 114,20 161,50z"/>
  <path class="fil20" d="M12151 3153c-5,-26 -14,-50 -8,-78 10,-43 -12,16 11,-24 1,-3 27,-28 28,-28 -62,-2 -68,-27 -117,-7 33,14 51,12 62,58l-79 31 74 15c-10,24 -10,25 -21,52l50 -19z"/>
  <path class="fil3" d="M16016 7388c69,9 72,4 128,-34l-65 -51c-19,11 -35,-2 -63,85z"/>
  <path class="fil56" d="M12429 6765l93 2c-12,-49 -14,-78 -62,-106l-37 26c31,38 26,34 6,78z"/>
  <path class="fil65" d="M14068 7812l10 -21 -238 -7c18,60 11,8 11,75 75,-45 15,-62 217,-47z"/>
  <path class="fil75" d="M12825 7213c-37,-36 -26,-18 -52,-65 -42,11 -30,-11 -49,15 23,55 1,14 18,44 26,49 34,38 68,44 29,-22 41,27 15,-38z"/>
  <path class="fil23" d="M13899 8227l95 25 10 -27 20 -70 -50 -6c-25,22 -32,35 -40,78l-35 0z"/>
  <path class="fil76" d="M16499 6795c21,-56 16,-53 56,-77 -8,20 -7,24 -18,40 -28,42 -15,18 -38,37zm-7 18c79,18 82,-91 81,-93 -15,-17 -10,-16 -32,-25 -26,13 -47,33 -56,74 -18,80 -4,20 7,44z"/>
  <path class="fil60" d="M16716 5112c38,-46 8,-39 63,-85l-42 -36 -23 -23 -28 3c2,11 4,26 5,29l25 112z"/>
  <path class="fil14" d="M16042 7282l-86 -40c-1,61 6,92 37,128l49 -88z"/>
  <path class="fil76" d="M16399 6758c17,-4 58,-18 76,-32 52,-41 25,-52 3,-76 -47,8 -34,9 -79,108z"/>
  <path class="fil3" d="M16232 7025l82 53 -17 -129c-49,23 -50,36 -65,76z"/>
  <path class="fil12" d="M16133 6967l68 48 53 -84c-66,-5 -88,-4 -121,36z"/>
  <path class="fil70" d="M13561 8492c48,0 106,-96 171,-150 34,-28 45,-15 36,-68 -35,35 -62,71 -99,108 -29,29 -97,80 -108,110z"/>
  <path class="fil77" d="M16164 6616l61 25 40 -112c-66,7 -75,47 -101,87z"/>
  <path class="fil76" d="M16094 6586c4,-3 8,-11 10,-8l41 -22c4,-1 8,-2 11,-4 46,-24 56,-54 3,-80 -40,34 -50,59 -65,114z"/>
  <path class="fil76" d="M16632 6759c-15,38 7,23 -29,35 9,-55 4,-19 29,-35zm-83 76c71,22 -54,58 51,-24l-2 57c27,-32 52,-81 50,-109l-14 -17c-1,0 -5,-3 -8,-5 -48,20 -49,55 -77,98z"/>
  <path class="fil78" d="M17311 5879l19 -6 -38 -47 53 1 -86 -21 31 -25 -69 9c20,67 -28,11 45,59 21,14 17,7 45,30z"/>
  <path class="fil76" d="M16369 6709c-41,-38 -31,-24 -43,-18 12,31 12,33 49,38 14,-29 15,-52 12,-92 41,12 3,15 36,8 -13,-35 21,-22 -39,-38 -31,38 -24,43 -15,102z"/>
  <path class="fil76" d="M16293 6664c-3,-3 -7,-12 -8,-9 -2,4 -10,-9 -15,-11 -22,-9 3,-7 -18,1 11,33 9,36 47,38 29,-42 21,-29 11,-82l17 -2c1,0 6,-2 7,-3l-23 -36c-40,46 -27,35 -18,104z"/>
  <path class="fil79" d="M12639 2032l37 54c44,-21 16,-2 56,-40l-59 -49c-3,27 13,6 -9,26 -23,20 1,7 -25,9z"/>
  <path class="fil80" d="M15936 7315c-1,-93 23,-87 -56,-121 10,61 23,87 56,121z"/>
  <path class="fil80" d="M16222 7406c-12,-13 -9,-11 -23,-25 0,0 -22,-16 -22,-16 -52,13 -48,18 -85,54l130 -13z"/>
  <path class="fil81" d="M18310 5431c17,-13 -3,8 24,-19 22,-22 12,-15 19,-26l-42 -38 -40 47 39 36z"/>
  <polygon class="fil82" points="11728,2167 11771,2211 11814,2170 11772,2128 "/>
  <path class="fil83" d="M16389 7119c-7,-30 -7,-40 -21,-69 -11,-24 -24,-34 -32,-44 -2,102 -28,82 53,113z"/>
  <path class="fil9" d="M17800 5797c37,23 15,5 44,39l43 -35 -45 -48 -42 44z"/>
  <path class="fil83" d="M16168 6901l-115 8c46,73 83,32 115,-8z"/>
  <path class="fil79" d="M11206 7855c29,26 21,17 39,41l42 -38 -31 -45 -50 42z"/>
  <path class="fil67" d="M13177 7961l138 35c-4,-42 -23,-32 -65,-41l-7 -37 -15 21c-45,44 16,-6 -17,15 -7,4 13,9 -34,7z"/>
  <polygon class="fil84" points="11789,8238 11828,8280 11870,8239 11830,8200 "/>
  <path class="fil33" d="M16643 6900c62,-39 19,-37 87,-94 -31,-30 -9,-23 -50,-23 14,47 -19,65 -37,117z"/>
  <path class="fil38" d="M13597 8037l19 -1c33,-59 6,-23 -1,-35 -48,-16 -28,-5 -49,4 16,43 -11,12 31,32z"/>
  <path class="fil80" d="M16499 6795c23,-19 10,5 38,-37 11,-16 10,-20 18,-40 -40,24 -35,21 -56,77z"/>
  <polygon class="fil64" points="12555,3855 12549,3822 12513,3825 12510,3854 "/>
  <path class="fil85" d="M12733 3763c2,2 -21,64 41,0 -45,-36 -30,-6 -41,0z"/>
  <polygon class="fil85" points="11566,4793 11566,4755 11536,4756 11532,4789 "/>
  <polygon class="fil85" points="11794,4455 11794,4416 11764,4417 11761,4451 "/>
  <polygon class="fil85" points="12139,4109 12140,4071 12110,4071 12106,4105 "/>
  <polygon class="fil85" points="12444,3901 12444,3863 12414,3864 12410,3898 "/>
  <polygon class="fil85" points="12347,3950 12348,3912 12317,3912 12314,3946 "/>
  <polygon class="fil85" points="12250,4005 12251,3967 12221,3968 12217,4001 "/>
  <polygon class="fil85" points="12070,4171 12071,4133 12041,4134 12037,4167 "/>
  <polygon class="fil85" points="11980,4247 11981,4209 11951,4210 11947,4243 "/>
  <polygon class="fil85" points="11891,4323 11891,4285 11861,4286 11857,4319 "/>
  <polygon class="fil85" points="11718,4544 11718,4506 11688,4507 11685,4541 "/>
  <polygon class="fil85" points="11593,4717 11594,4679 11564,4680 11560,4713 "/>
  <path class="fil86" d="M12869 3725c-38,-2 -3,-5 -24,11 27,34 20,32 47,-1 -28,-21 25,-7 -23,-10z"/>
  <path class="fil36" d="M11347 5342l36 2c-12,-52 10,-16 -26,-40l-10 38z"/>
  <path class="fil87" d="M13616 8036l-19 1 -14 40c50,-15 24,29 33,-41z"/>
  <polygon class="fil85" points="11334,5432 11343,5462 11372,5447 11358,5421 "/>
  <path class="fil88" d="M13336 3732c18,-22 39,6 0,-38 -41,35 -6,29 0,38z"/>
  <path class="fil85" d="M12664 3812c-19,-36 -15,-54 -41,0l41 0z"/>
  <path class="fil89" d="M11368 5211c15,9 -27,47 33,0 -55,-55 -18,-7 -33,0z"/>
  <path class="fil88" d="M13102 3728c35,-44 9,-25 0,-38 -30,27 -25,9 0,38z"/>
  <path class="fil88" d="M11336 5680c43,35 13,19 38,0 -29,-23 4,-34 -38,0z"/>
  <path class="fil90" d="M11668 6503c-12,-51 22,-38 -37,-30 14,17 14,16 37,30z"/>
  <path class="fil89" d="M16354 3157c13,-16 -3,-2 30,-12 -40,-24 -10,-11 -43,-19 4,31 -8,11 13,31z"/>
  <path class="fil36" d="M13907 3889l1 -44 -28 23c17,51 -9,-10 27,21z"/>
  <path class="fil85" d="M11581 6396l23 -2c-18,-41 13,-17 -37,-26l14 28z"/>
  <path class="fil88" d="M13465 3722c6,-63 8,8 -12,-15 -27,26 -18,12 0,37 16,-17 8,6 12,-22z"/>
  <path class="fil88" d="M16339 2593c21,14 -6,27 36,0 -19,-17 9,-38 -36,0z"/>
  <path class="fil91" d="M16603 6794c36,-12 14,3 29,-35 -25,16 -20,-20 -29,35z"/>
  <path class="fil88" d="M11394 5094c22,18 20,15 39,0 -25,-17 6,-30 -39,0z"/>
  <path class="fil89" d="M11335 5575c44,-7 16,7 34,-35 -46,20 -13,4 -34,35z"/>
  <path class="fil89" d="M13206 3692c30,40 -33,7 35,34 -24,-49 18,-24 -35,-34z"/>
  <path class="fil89" d="M11358 5797c19,12 -37,24 25,6 1,-1 5,-5 8,-6 -14,-12 36,-43 -33,0z"/>
  <path class="fil90" d="M16525 2446l10 -16c-4,-30 4,-4 -11,-22 -26,41 -16,12 1,38z"/>
  <path class="fil84" d="M13816 3820c-29,-31 -3,-17 -28,-17 3,9 -23,41 28,17z"/>
  <path class="fil89" d="M16283 2696c17,8 -25,40 34,0 -18,-16 -14,-11 -34,0z"/>
  <path class="fil56" d="M11511 6277c58,50 21,7 33,0 -3,-2 -8,-10 -9,-6l-24 6z"/>
  <path class="fil90" d="M16437 2518c39,-60 6,-22 0,-36 -24,33 -32,-47 -12,20 21,69 -36,-11 12,16z"/>
  <path class="fil89" d="M11444 5002c43,-43 16,-22 0,-37l0 37z"/>
  <path class="fil64" d="M16286 3022l-4 40c15,-14 34,-11 4,-40z"/>
  <path class="fil92" d="M13555 3749c0,29 -1,6 17,4 44,-4 -2,30 7,-5 9,-33 -24,-18 -24,1z"/>
  <path class="fil52" d="M16249 2930c33,22 13,9 32,0 -20,-16 -13,-15 -32,0z"/>
  <path class="fil79" d="M12965 3719c4,3 8,8 10,9 81,25 2,12 30,-9l-40 0z"/>
  <path class="fil90" d="M11481 4875c2,2 6,4 7,7l18 0c2,0 7,-5 10,-7l-35 0z"/>
  <path class="fil89" d="M16423 3222l25 7c2,-4 6,-5 9,-7l-34 0z"/>
  <path class="fil89" d="M13667 3778c4,2 8,6 10,7l-1 -14c-1,-3 -5,5 -9,7z"/>
 </g>
</svg>
