<?xml version="1.0" encoding="UTF-8"?>
<!DOCTYPE svg PUBLIC "-//W3C//DTD SVG 1.1//EN" "http://www.w3.org/Graphics/SVG/1.1/DTD/svg11.dtd">
<!-- Creator: CorelDRAW X7 -->
<svg xmlns="http://www.w3.org/2000/svg" xml:space="preserve" width="11.4866mm" height="14.3408mm" version="1.1" style="shape-rendering:geometricPrecision; text-rendering:geometricPrecision; image-rendering:optimizeQuality; fill-rule:evenodd; clip-rule:evenodd"
viewBox="0 0 85 106"
 xmlns:xlink="http://www.w3.org/1999/xlink">
 <defs>
  <style type="text/css">
   <![CDATA[
    .fil2 {fill:#006AAD}
    .fil1 {fill:#0088C8}
    .fil6 {fill:#0097D8}
    .fil4 {fill:#D9FAFB}
    .fil7 {fill:#E4FDFE}
    .fil5 {fill:#E92745}
    .fil3 {fill:#E9F5F6}
    .fil0 {fill:#FC243C}
   ]]>
  </style>
 </defs>
 <g id="Слой_x0020_1">
  <metadata id="CorelCorpID_0Corel-Layer"/>
  <path class="fil0" d="M30 2c-11,2 -22,12 -24,24 -1,7 0,15 2,20 3,5 9,10 10,13 5,3 9,7 11,13l1 5c0,1 0,1 0,1l3 4 5 0 4 -1 2 -7c0,0 -4,1 1,-8 1,-3 3,-5 5,-8 14,-23 9,-41 -7,-57l-3 0c10,30 10,35 1,64 -1,2 -1,3 -1,4 0,1 -1,2 -1,3 -1,2 0,1 -1,2l-1 -2c-1,-6 1,-61 -1,-71l-2 -1 0 1c-18,41 2,65 0,73l-11 -17c-14,-23 -7,-39 7,-55z"/>
  <path class="fil1" d="M68 23c1,-5 -1,1 2,-2l0 -1c2,7 1,0 4,9 2,9 3,10 0,22 -3,10 -15,18 -17,22l-7 10c-2,3 -2,2 -6,1 0,3 1,4 -1,6l-1 7c-4,2 -7,1 -11,1 1,1 0,1 3,2 1,0 2,0 3,0l3 0c0,4 0,4 3,6l9 -3c0,-1 0,-1 1,-2 1,-10 -3,0 4,-13 5,-10 -2,-4 14,-21l9 -16c3,-8 3,-1 0,-7l3 0 -3 -3 3 0 -3 -3c1,0 1,0 1,0l4 -2c-6,-3 -1,-1 -4,-5 -4,-5 -2,1 -5,-7 -1,-3 -2,-5 -5,-7 -7,-7 -6,2 -4,-2 0,0 -1,-1 -1,-1 -5,-2 4,0 -2,0l-1 0 5 9z"/>
  <path class="fil2" d="M68 23c-1,13 2,19 -7,29 -6,7 -14,12 -17,22l-2 7 -4 1c1,6 2,1 -1,6l5 0 1 2c2,-2 1,-3 1,-6 4,1 4,2 6,-1l7 -10c2,-4 14,-12 17,-22 3,-12 2,-13 0,-22 -3,-9 -2,-2 -4,-9l0 1c-3,3 -1,-3 -2,2z"/>
  <path class="fil3" d="M34 1l-4 1c-14,16 -21,32 -7,55l11 17c2,-8 -18,-32 0,-73z"/>
  <path class="fil3" d="M44 74c3,-10 11,-15 17,-22 9,-10 6,-16 7,-29l-5 -9c-9,-8 -6,-8 -20,-13 16,16 21,34 7,57 -2,3 -4,5 -5,8 -5,9 -1,8 -1,8z"/>
  <path class="fil4" d="M40 1l-4 0c2,10 0,65 1,71l1 2c1,-1 0,0 1,-2 0,-1 1,-2 1,-3 0,-1 0,-2 1,-4 9,-29 9,-34 -1,-64z"/>
  <path class="fil5" d="M31 98c4,0 7,1 11,-1l1 -7 -1 -2 -5 0 -7 0 1 10z"/>
  <path class="fil6" d="M29 72c-2,-6 -6,-10 -11,-13l-1 6c4,3 4,5 8,9l4 -2z"/>
  <path class="fil1" d="M30 88l7 0c3,-5 2,0 1,-6l-5 0 -3 -4c0,0 0,0 0,-1l0 11z"/>
  <path class="fil7" d="M0 38c2,2 -3,0 3,3 -2,-4 1,-2 -3,-3z"/>
 </g>
</svg>
