<?xml version="1.0" encoding="UTF-8"?>
<!DOCTYPE svg PUBLIC "-//W3C//DTD SVG 1.1//EN" "http://www.w3.org/Graphics/SVG/1.1/DTD/svg11.dtd">
<!-- Creator: CorelDRAW X7 -->
<svg xmlns="http://www.w3.org/2000/svg" xml:space="preserve" width="65.0585mm" height="13.8116mm" version="1.1" style="shape-rendering:geometricPrecision; text-rendering:geometricPrecision; image-rendering:optimizeQuality; fill-rule:evenodd; clip-rule:evenodd"
viewBox="0 0 5804 1232"
 xmlns:xlink="http://www.w3.org/1999/xlink">
 <defs>
  <style type="text/css">
   <![CDATA[
    .fil18 {fill:#036997}
    .fil31 {fill:#055B84}
    .fil26 {fill:#0E5272}
    .fil13 {fill:#1685BA}
    .fil55 {fill:#1D672E}
    .fil12 {fill:#243F5E}
    .fil58 {fill:#267531}
    .fil56 {fill:#276F97}
    .fil2 {fill:#2A517D}
    .fil44 {fill:#2C7BA6}
    .fil22 {fill:#3793C8}
    .fil57 {fill:#4D8DB7}
    .fil47 {fill:#509131}
    .fil15 {fill:#579AC8}
    .fil28 {fill:#67A7D7}
    .fil45 {fill:#69972E}
    .fil43 {fill:#699DC5}
    .fil11 {fill:#88B2DA}
    .fil63 {fill:#88C8E7}
    .fil52 {fill:#8CB024}
    .fil48 {fill:#932B16}
    .fil60 {fill:#9ABA1B}
    .fil10 {fill:#9CC2E5}
    .fil38 {fill:#A94728}
    .fil16 {fill:#ACB0B8}
    .fil53 {fill:#B2C709}
    .fil29 {fill:#B42F15}
    .fil14 {fill:#B8C6D8}
    .fil35 {fill:#C45B2A}
    .fil9 {fill:#C7D5E8}
    .fil50 {fill:#C9C3BC}
    .fil46 {fill:#C9D30C}
    .fil62 {fill:#D1D830}
    .fil42 {fill:#D26C2A}
    .fil34 {fill:#D33C19}
    .fil51 {fill:#D6DB4F}
    .fil59 {fill:#D8DF63}
    .fil54 {fill:#DFE482}
    .fil32 {fill:#E17C2A}
    .fil8 {fill:#E24C23}
    .fil39 {fill:#E3DCCE}
    .fil61 {fill:#E3E592}
    .fil4 {fill:#E56D0D}
    .fil49 {fill:#E7E9B1}
    .fil1 {fill:#E88906}
    .fil27 {fill:#E8E6D6}
    .fil3 {fill:#EA8759}
    .fil6 {fill:#EB6C3C}
    .fil33 {fill:#EB971D}
    .fil25 {fill:#F3CB49}
    .fil21 {fill:#F6B010}
    .fil17 {fill:#F6EACA}
    .fil7 {fill:#F8F3E6}
    .fil36 {fill:#FAD762}
    .fil19 {fill:#FCC705}
    .fil41 {fill:#FDD327}
    .fil20 {fill:#FDEDBC}
    .fil40 {fill:#FED649}
    .fil37 {fill:#FED963}
    .fil30 {fill:#FEDE7B}
    .fil5 {fill:#FEE69B}
    .fil23 {fill:#FEEBB3}
    .fil24 {fill:#FEF1CB}
    .fil0 {fill:#FEFEFE}
   ]]>
  </style>
 </defs>
 <g id="Слой_x0020_1">
  <metadata id="CorelCorpID_0Corel-Layer"/>
  <path class="fil0" d="M3052 548c185,-66 260,216 97,272 -185,65 -259,-214 -97,-272zm180 339l8 34 113 1 0 -473c-134,-2 -112,-7 -114,36 -89,-43 -157,-72 -263,-21 -69,33 -130,107 -133,210 -6,210 224,334 389,213z"/>
  <path class="fil0" d="M1957 855l-39 -103c-64,31 -113,89 -222,55 -71,-21 -120,-85 -126,-170 -5,-87 39,-155 97,-186 37,-20 88,-23 134,-11 50,12 64,37 101,50l51 -86c-50,-81 -223,-111 -335,-64 -100,41 -179,137 -183,273 -9,287 302,413 522,242z"/>
  <path class="fil0" d="M2095 709c-21,-209 254,-225 274,-41 9,84 -45,149 -113,161 -84,15 -154,-47 -161,-120zm87 -264c-335,63 -243,552 110,481 122,-24 229,-144 191,-302 -29,-120 -153,-207 -301,-179z"/>
  <path class="fil1" d="M462 220l71 0 430 -1 113 1c-36,-75 -259,-222 -405,-210 -38,19 1,7 -27,21 -6,2 -35,8 -42,10 -56,13 -24,25 -70,37 -3,97 -10,15 -18,78 -32,1 -21,-1 -43,10 1,33 -3,21 9,43 -36,1 -4,-2 -18,11z"/>
  <path class="fil0" d="M3628 828c-84,-23 -64,-37 -64,-233 0,-90 8,-218 -2,-304l-113 0c-13,132 -3,323 -2,462 0,156 98,193 168,172 25,-7 16,-65 13,-97z"/>
  <path class="fil0" d="M2547 922l119 0c0,-168 -36,-367 166,-361l-1 -116c-44,-1 -79,7 -108,28 -31,23 -40,48 -61,72l-2 -96 -111 -2 -2 475z"/>
  <path class="fil0" d="M4371 488c123,-34 223,50 246,149 29,126 -43,224 -140,250 -263,72 -368,-325 -106,-399zm252 348l0 86 42 -2 -1 -470 -40 -3 -1 98c-33,-33 -54,-62 -110,-85 -142,-60 -327,32 -338,214 -7,124 68,207 154,242 53,21 119,22 173,5 25,-9 47,-20 63,-33l58 -52z"/>
  <path class="fil0" d="M5549 646l-348 0c5,-91 80,-168 175,-172 101,-4 181,73 173,172zm20 224c-8,-24 -6,-18 -17,-38 -34,16 -44,39 -96,54 -121,36 -271,-54 -255,-200l394 -1c26,-305 -346,-325 -427,-96 -48,137 15,248 90,300 113,78 226,42 311,-19z"/>
  <path class="fil2" d="M437 1209c11,-17 -8,-8 26,-11l114 2c91,-2 200,-39 273,-95 17,-13 2,-2 22,-13 2,-1 10,-5 12,-6 16,-10 4,-1 16,-13l-77 3 -84 3 -92 -1 -167 0 -54 -2 -219 0c41,58 167,118 230,133z"/>
  <path class="fil3" d="M22 780l361 -1 51 0c-6,-4 -6,-8 -23,-11 -8,-2 -25,-2 -34,-2 9,-26 1,-73 1,-120l168 -14 -92 -1 -61 0 -66 1 -57 0 -90 1 -180 -1c-2,53 5,106 22,148z"/>
  <path class="fil4" d="M148 220l146 0 147 -1 21 1c14,-13 -18,-10 18,-11 -12,-22 -8,-10 -9,-43 22,-11 11,-9 43,-10 8,-63 15,19 18,-78 46,-12 14,-24 70,-37 7,-2 36,-8 42,-10 28,-14 -11,-2 27,-21l0 -10 -89 0c-18,7 -96,15 -130,24 -44,11 -86,28 -120,46 -67,36 -156,100 -184,150z"/>
  <path class="fil5" d="M415 341l6 211 65 -2 36 2 0 -204 83 -5 31 -1 12 -105 162 -12 150 0 3 -6 -430 1c-31,18 -32,13 -76,16 -1,36 -5,79 7,102l-49 3z"/>
  <path class="fil6" d="M434 779l68 -1 127 0 69 1 79 -1 55 0 0 -1 -155 -12 16 -93c-16,-13 -14,-2 -16,-27l267 -12 0 0 -50 -1 -77 0 -49 0 -79 1 -97 -1 -46 0 -168 14c0,47 8,94 -1,120 9,0 26,0 34,2 17,3 17,7 23,11z"/>
  <path class="fil7" d="M29 465l2 81c84,13 153,-3 219,5l4 -204 -189 2c-14,31 -37,72 -36,116z"/>
  <path class="fil0" d="M4921 922l26 0 28 -53c35,-87 151,-372 160,-422 -53,1 -34,-11 -72,81 -15,37 -26,67 -42,107 -25,64 -69,159 -83,224l-84 -206c-24,-64 -55,-149 -81,-206l-40 0c9,55 122,323 158,415l17 44c6,10 7,10 13,16z"/>
  <path class="fil8" d="M832 777l133 -11c0,-60 -4,-92 19,-131l-40 -2 -267 12c2,25 0,14 16,27l-16 93 155 12z"/>
  <path class="fil9" d="M27 788c33,21 19,14 39,39 16,19 25,18 46,33 25,18 19,17 53,26 38,12 25,4 45,32 70,0 36,3 77,17 36,-17 18,11 38,-6 2,-2 19,-37 24,-45 22,-31 34,-34 34,-105l-361 1 5 8z"/>
  <path class="fil10" d="M287 935l1 12c33,4 19,2 39,12l-2 51 -35 0 4 13c47,1 92,-10 132,-13l-16 24 46 -7c13,-31 -2,-27 38,-37l8 -212 -68 1 -51 0c0,71 -12,74 -34,105 -5,8 -22,43 -24,45 -20,17 -2,-11 -38,6z"/>
  <path class="fil0" d="M3896 919l2 -26c-40,-20 -52,7 -98,-36 -64,-60 -39,-253 -39,-369l124 0 2 -40 -126 -1 -1 -127 -42 -6c-3,105 -24,483 37,562 25,33 87,66 141,43z"/>
  <path class="fil11" d="M456 1027l28 3c-31,9 -5,3 -15,27l-42 1 -1 18 54 2c24,-16 12,-10 59,-14l19 -24c12,-12 12,-12 27,-23 -24,-25 7,-22 11,-80l23 -10c0,-54 8,-88 10,-149l-127 0 -8 212c-40,10 -25,6 -38,37z"/>
  <path class="fil0" d="M4007 555l-3 -108 -39 0 -2 475 42 0c0,-124 -37,-448 177,-435 1,-10 5,-10 2,-23 -15,-68 -165,24 -177,91z"/>
  <path class="fil0" d="M5750 920l45 4 -2 -38c-66,-5 -65,-38 -65,-97 -1,-136 8,-391 -2,-498l-36 0c-10,98 -2,237 -2,340 0,95 -30,262 62,289z"/>
  <path class="fil12" d="M437 1209c180,46 379,27 529,-84l52 -48 -62 -2 -47 2 -9 -4c-12,12 0,3 -16,13 -2,1 -10,5 -12,6 -20,11 -5,0 -22,13 -73,56 -182,93 -273,95l-114 -2c-34,3 -15,-6 -26,11z"/>
  <path class="fil13" d="M841 972l43 -1 3 34c46,-7 12,-25 46,-11l2 -41c38,-22 34,-34 46,-84 11,-49 15,-26 27,-44 9,-13 3,-8 10,-24 5,-10 8,-15 13,-22l-20 -1 -144 0c-1,46 -4,64 -9,99 -2,18 0,30 -5,48 -9,33 -11,6 -12,47z"/>
  <path class="fil14" d="M93 940c20,7 33,10 49,20 31,20 1,9 40,21 40,11 56,24 108,29l35 0 2 -51c-20,-10 -6,-8 -39,-12l-1 -12c-41,-14 -7,-17 -77,-17 -20,-28 -7,-20 -45,-32 -34,-9 -28,-8 -53,-26 -21,-15 -30,-14 -46,-33 -20,-25 -6,-18 -39,-39 10,52 35,126 66,152z"/>
  <path class="fil15" d="M645 996l23 -3 3 66 24 -4c10,-24 23,-39 39,-57 1,1 17,9 20,12l13 -20 10 -212 -79 1c0,47 -2,89 -12,132 -4,15 -11,30 -19,53 -8,26 -4,23 -22,32z"/>
  <path class="fil16" d="M207 1076l219 0 1 -18 42 -1c10,-24 -16,-18 15,-27l-28 -3 -46 7 16 -24c-40,3 -85,14 -132,13l-4 -13c-52,-5 -68,-18 -108,-29 -39,-12 -9,-1 -40,-21 -16,-10 -29,-13 -49,-20 25,51 77,114 114,136z"/>
  <path class="fil17" d="M785 340l143 2 68 2c-2,-15 -10,-54 -16,-66 -9,-19 -23,-22 -20,-53l-150 0 -14 87c-8,25 -1,-7 -11,28z"/>
  <path class="fil18" d="M933 994c-13,39 -9,17 -6,63 38,-47 73,-65 108,-127 16,-28 30,-50 45,-79 11,-24 13,-18 24,-34 9,-14 11,-25 16,-38l-19 0 -70 0c-5,7 -8,12 -13,22 -7,16 -1,11 -10,24 -12,18 -16,-5 -27,44 -12,50 -8,62 -46,84l-2 41z"/>
  <polygon class="fil19" points="721,551 772,553 816,554 815,347 720,348 "/>
  <path class="fil20" d="M254 347c33,-3 51,3 81,12l1 196 85 -3 -6 -211 -83 2 -100 -2 -167 3 0 5 189 -2z"/>
  <polygon class="fil21" points="816,554 857,554 908,553 907,346 815,347 "/>
  <path class="fil22" d="M754 1010l5 5c1,0 4,3 4,3l11 8c16,-6 22,-10 34,-24 22,-26 -9,-7 33,-30 1,-41 3,-14 12,-47 5,-18 3,-30 5,-48 5,-35 8,-53 9,-99l-35 0 -55 0 -10 212 -13 20z"/>
  <path class="fil23" d="M636 342l24 -1 125 -1c10,-35 3,-3 11,-28l14 -87 -162 12 -12 105z"/>
  <path class="fil24" d="M250 551l75 1 11 3 -1 -196c-30,-9 -48,-15 -81,-12l-4 204z"/>
  <path class="fil25" d="M65 344l167 -3 3 -108 59 -13 -146 0c-30,27 -68,75 -83,124z"/>
  <path class="fil26" d="M956 1075l62 2c56,-19 167,-198 188,-300l-36 2c-9,77 -133,214 -185,259l-29 37z"/>
  <path class="fil27" d="M0 632l180 1 0 -73 70 -9c-66,-8 -135,8 -219,-5l-2 -81 -9 11c-15,36 -19,116 -20,156z"/>
  <path class="fil28" d="M585 1017c11,-8 0,-5 24,-13 15,-6 14,-4 36,-8 18,-9 14,-6 22,-32 8,-23 15,-38 19,-53 10,-43 12,-85 12,-132l-69 -1c-2,61 -10,95 -10,149l-23 10c-4,58 -35,55 -11,80z"/>
  <path class="fil29" d="M984 635l93 8c-6,57 -32,77 -35,124l-31 11 20 1 70 0 52 -14c6,-51 23,-40 28,-118l-51 -15 -39 0 -96 0 -51 1 0 0 40 2z"/>
  <path class="fil30" d="M332 343l83 -2 49 -3c-12,-23 -8,-66 -7,-102 44,-3 45,2 76,-16l-71 0 -21 -1 -108 17 -1 107z"/>
  <path class="fil31" d="M927 1057c-27,11 -10,-8 -18,20l47 -2 29 -37c52,-45 176,-182 185,-259l-50 0c-5,13 -7,24 -16,38 -11,16 -13,10 -24,34 -15,29 -29,51 -45,79 -35,62 -70,80 -108,127z"/>
  <path class="fil32" d="M973 554l69 -1c2,-53 8,-158 -10,-198l41 -6 14 -7 -91 2 -68 -2 0 2 43 4 2 206z"/>
  <polygon class="fil33" points="908,553 957,553 973,554 971,348 928,344 907,346 "/>
  <path class="fil34" d="M832 777l0 1 35 0 144 0 31 -11c3,-47 29,-67 35,-124l-93 -8c-23,39 -19,71 -19,131l-133 11z"/>
  <path class="fil35" d="M1073 349c23,52 16,134 16,204l66 0 -12 -198 20 -4 -7 -9 -59 1 -10 -1 -14 7z"/>
  <polygon class="fil36" points="232,341 332,343 333,236 441,219 294,220 235,233 "/>
  <path class="fil37" d="M577 553l53 -2 4 2 0 -185c14,-25 -5,-6 26,-27l-24 1 -31 1c-38,21 -16,-1 -28,25l0 185z"/>
  <path class="fil30" d="M522 552l32 1 23 0 0 -185c12,-26 -10,-4 28,-25l-83 5 0 204z"/>
  <path class="fil38" d="M1155 553l69 -2c-9,-62 -27,-154 -61,-200l-20 4 12 198z"/>
  <path class="fil39" d="M996 344l91 -2 10 1c-6,-21 0,-2 -7,-16l-6 -11c-9,-18 -6,-15 -13,-34 -6,-20 -13,-29 -21,-46l-90 -11c-3,31 11,34 20,53 6,12 14,51 16,66z"/>
  <path class="fil40" d="M634 553l40 0 0 -198 46 -7 95 -1 92 -1 21 -2 0 -2 -143 -2 -125 1c-31,21 -12,2 -26,27l0 185z"/>
  <polygon class="fil41" points="674,553 721,551 720,348 674,355 "/>
  <path class="fil42" d="M1042 553l24 0 23 0c0,-70 7,-152 -16,-204l-41 6c18,40 12,145 10,198z"/>
  <path class="fil43" d="M585 1017c-15,11 -15,11 -27,23l-19 24c-47,4 -35,-2 -59,14l167 0c9,-10 -2,0 14,-13 1,-1 4,-1 5,-3 1,-3 4,-2 5,-3l-3 -66 -23 3c-22,4 -21,2 -36,8 -24,8 -13,5 -24,13z"/>
  <path class="fil44" d="M774 1026c-11,43 -12,27 -35,53l84 -3 64 -71 -3 -34 -43 1c-42,23 -11,4 -33,30 -12,14 -18,18 -34,24z"/>
  <polygon class="fil45" points="894,632 944,633 995,632 996,569 1066,553 1042,553 973,554 957,553 895,568 "/>
  <path class="fil46" d="M592 632l97 1 0 -69 82 -12 1 1 -51 -2 -47 2 -40 0 -4 -2c-4,2 -19,8 -19,8 -21,13 -10,0 -19,19l0 54z"/>
  <polygon class="fil47" points="995,632 1091,632 1092,562 1153,557 1225,556 1224,551 1155,553 1089,553 1066,553 996,569 "/>
  <path class="fil48" d="M1101 779l19 0 50 0 36 -2 20 -145 -74 0 -22 0 51 15c-5,78 -22,67 -28,118l-52 14z"/>
  <polygon class="fil49" points="180,633 270,632 270,563 326,555 325,552 250,551 180,560 "/>
  <path class="fil50" d="M1097 343l59 -1c-15,-45 -52,-92 -80,-122l-113 -1 -3 6 90 11c8,17 15,26 21,46 7,19 4,16 13,34l6 11c7,14 1,-5 7,16z"/>
  <path class="fil51" d="M454 556l0 75 92 1c-6,-39 -10,-44 8,-79l-32 -1 -36 -2 -32 6z"/>
  <path class="fil52" d="M817 632l77 0 1 -64 62 -15 -49 0 -51 1c-6,4 -8,8 -24,13 -9,3 -9,2 -16,2l0 63z"/>
  <polygon class="fil53" points="689,633 768,632 771,552 689,564 "/>
  <polygon class="fil54" points="327,632 393,631 393,565 454,556 486,550 421,552 336,555 325,552 326,555 "/>
  <polygon class="fil55" points="1152,632 1226,632 1225,556 1153,557 "/>
  <path class="fil56" d="M887 1005l-64 71 77 -3 9 4c8,-28 -9,-9 18,-20 -3,-46 -7,-24 6,-63 -34,-14 0,4 -46,11z"/>
  <path class="fil57" d="M671 1059c-1,1 -4,0 -5,3 -1,2 -4,2 -5,3 -16,13 -5,3 -14,13l92 1c23,-26 24,-10 35,-53l-11 -8c0,0 -3,-3 -4,-3l-5 -5c-3,-3 -19,-11 -20,-12 -16,18 -29,33 -39,57l-24 4z"/>
  <polygon class="fil58" points="1091,632 1130,632 1152,632 1153,557 1092,562 "/>
  <polygon class="fil59" points="393,631 454,631 454,556 393,565 "/>
  <path class="fil60" d="M768 632l49 0 0 -63c7,0 7,1 16,-2 16,-5 18,-9 24,-13l-41 0 -44 -1 -1 -1 -3 80z"/>
  <polygon class="fil61" points="270,632 327,632 326,555 270,563 "/>
  <path class="fil62" d="M546 632l46 0 0 -54c9,-19 -2,-6 19,-19 0,0 15,-6 19,-8l-53 2 -23 0c-18,35 -14,40 -8,79z"/>
  <path class="fil63" d="M5750 920c26,16 17,15 51,5 6,-46 2,-27 -8,-39l2 38 -45 -4z"/>
 </g>
</svg>
