<?xml version="1.0" encoding="UTF-8"?>
<!DOCTYPE svg PUBLIC "-//W3C//DTD SVG 1.1//EN" "http://www.w3.org/Graphics/SVG/1.1/DTD/svg11.dtd">
<!-- Creator: CorelDRAW X7 -->
<svg xmlns="http://www.w3.org/2000/svg" xml:space="preserve" width="21.6453mm" height="21.4148mm" version="1.1" style="shape-rendering:geometricPrecision; text-rendering:geometricPrecision; image-rendering:optimizeQuality; fill-rule:evenodd; clip-rule:evenodd"
viewBox="0 0 397 393"
 xmlns:xlink="http://www.w3.org/1999/xlink">
 <defs>
  <style type="text/css">
   <![CDATA[
    .fil0 {fill:#008DD2}
   ]]>
  </style>
 </defs>
 <g id="Слой_x0020_1">
  <metadata id="CorelCorpID_0Corel-Layer"/>
  <g id="_962305744">
   <path class="fil0" d="M355 151c0,0 0,0 1,0 4,0 4,2 6,5 2,2 4,4 8,4l0 0 2 0c0,-1 0,0 0,0 3,0 4,-2 5,1 0,2 0,4 0,6 -3,-1 -1,-4 -3,-3 0,0 0,0 -1,0 -2,2 -3,3 -7,4 -1,0 -1,0 -1,-1 -1,-1 -1,-2 -1,-3 -1,0 -1,0 -3,0l-1 -2c-1,0 -1,0 -1,-1 0,-2 -2,-3 -3,-5 -1,-1 -3,-3 -1,-5zm-307 -38c0,-1 -1,0 0,0l1 -1c0,-1 0,0 1,0 2,-1 2,-1 3,-1 2,-1 3,0 4,0 0,2 1,3 1,5 1,0 1,0 1,1 0,0 0,-1 0,0 3,0 4,0 7,0l0 2c-1,0 -1,0 -2,1 0,0 0,0 -1,0l0 0c0,1 0,1 -1,1l-2 1c0,1 0,1 0,1 -2,0 -2,0 -4,0 0,-4 1,-1 2,-4 -5,-2 -8,3 -10,8l-1 0 0 1 -1 0 -2 0c0,-3 1,-3 2,-5 1,-1 2,-2 4,-3 0,-1 -1,-1 0,-1l4 -2c0,0 0,0 0,-1 1,0 1,0 1,0 0,0 0,0 0,0 -3,0 -9,-1 -11,1 0,-2 2,-3 4,-4zm305 2c1,0 1,-1 1,0 1,2 6,4 9,6 0,0 0,-1 0,0l1 2c-1,1 -1,1 -3,1 0,6 4,1 4,9 -2,2 -2,1 -6,1 -1,0 -1,1 -1,0 -1,0 -1,-1 -3,-1 -1,0 0,0 0,-1 -2,-1 -3,-1 -3,-4 0,0 0,0 1,0l0 -1c0,-1 0,-1 1,-1l0 0 0 -1c-1,-2 -2,-4 -3,-4 -1,0 -1,0 -1,-1 -2,-1 -2,-2 -4,-4 -1,-3 -2,-3 0,-5 0,-1 -1,-1 0,-1l1 -1c0,-1 0,0 1,0 0,-1 1,-1 1,-1 0,-1 0,-1 1,-1 1,0 1,0 2,0 1,-1 0,-1 2,-1 2,0 1,0 1,1 1,0 3,3 3,4 -4,0 -6,0 -5,4zm-49 -64c2,0 1,0 2,1 1,0 1,-1 1,0l1 1c0,0 0,-1 0,1 2,0 2,1 4,2 1,1 2,2 3,3 1,0 1,-1 1,0l1 1c-1,1 -1,1 -3,1l1 2c0,0 1,0 0,0l-3 0c-1,0 -1,0 -1,0 -4,-2 -5,-7 -8,-9 0,-2 1,-2 1,-3zm0 0l0 -1 0 1zm0 -1l-1 0 1 0zm-1 0l-1 -1 1 1zm-174 -20c0,0 0,0 1,0 1,-1 1,-1 2,-1 0,-1 0,-1 1,-1l1 0c0,0 0,0 0,0l2 -1 1 0c1,-1 2,-1 4,-1 0,-1 0,-1 0,-1 2,0 4,-1 6,-1 0,-1 0,-1 1,-1 2,0 2,0 4,-1 0,0 0,0 1,0 4,0 8,-3 13,-3 0,0 0,0 1,0 3,0 7,-1 9,-1 4,-1 7,-1 10,-1 0,-1 0,-1 1,-1 5,0 10,0 14,0 3,0 6,0 8,0 2,1 4,1 7,1l1 0c5,0 9,1 13,2 2,1 4,1 6,1 2,1 4,1 6,1 1,0 1,0 1,1 2,0 2,1 5,1 0,0 0,0 0,0 3,1 5,2 7,2 1,0 1,0 1,1l9 3c0,0 0,0 0,1 0,0 1,1 1,1 5,0 3,1 4,4l1 0c1,2 2,2 4,1l1 0c2,-2 2,-2 4,0 1,0 3,1 4,2 3,1 5,3 8,4l1 1 2 1 0 0c2,1 6,4 7,5l-2 0c-1,0 -1,0 -1,-1 -3,0 -6,-2 -11,-1 -4,0 -7,1 -10,3 0,1 1,1 0,1l-4 3 0 0 -1 1 0 0 -4 5 -1 0c-1,1 -1,2 -3,3l-1 0 -3 2 0 0 -6 3c0,1 1,1 0,1 0,2 -1,1 0,4 1,1 1,3 3,3 4,2 6,-4 8,-1 1,0 1,0 1,1 0,2 1,6 3,7 3,1 5,-2 5,-4 0,-1 0,-1 1,-1l0 -1 0 0c2,-3 1,-2 4,-3 0,-3 0,-3 -2,-5l-1 0c0,-3 0,-4 2,-5 2,0 3,0 4,-2l1 0 0 -1c6,-8 8,0 3,4l-1 1c0,0 0,0 -1,1 0,2 2,4 4,4 1,0 4,0 5,0 2,-1 3,-1 6,-1l0 1c0,0 0,0 0,0 0,0 0,1 0,1 0,0 0,0 0,0l0 1c-4,1 -5,1 -10,1 1,2 0,1 1,2l0 0 1 1 0 2c-3,0 -3,-1 -5,-1 0,6 0,8 -10,8 0,1 1,0 0,0 -3,1 -2,2 -6,1 -2,-1 -3,-1 -6,-1 -1,-3 1,-3 0,-7l-1 0c-1,-1 -1,0 -3,0 0,1 0,0 -1,1l0 2c0,1 1,2 1,3l0 0 0 3c-10,2 -2,-1 -12,6 -1,1 -2,2 -3,3l0 1 -1 0 -1 1c-2,1 -3,1 -5,2 -2,0 -4,0 -5,2 1,0 1,0 2,0l0 1c2,1 4,6 2,9 -2,6 -11,1 -15,2 -2,1 -1,2 -1,5 0,4 -2,6 -2,11 2,1 3,1 5,1 1,0 1,0 1,1l3 0c1,0 0,0 0,0 4,0 7,0 9,-2l1 0 1 -2 1 0c1,-2 -2,-3 1,-6l0 0c2,-2 6,-3 6,-5 1,-2 -1,-3 2,-3 2,0 5,0 6,0 0,-1 0,0 0,0 2,-1 3,-1 4,-2 2,-1 2,0 3,1l1 0c2,1 0,1 2,2l1 1c1,0 2,1 3,3l-1 1 0 1c0,0 0,0 -1,0 1,4 6,4 8,4 1,-1 1,-1 2,-2 0,-1 0,-1 0,-1 0,-1 0,-1 0,-3 -1,0 -1,0 -1,0l0 -1 -1 -1 -5 -5 0 0c-2,-1 -1,-1 -3,-2 1,-2 1,-2 2,-2 2,1 3,4 7,5 1,0 1,-1 1,0 2,1 5,2 6,4 1,2 0,5 2,7l0 1c2,1 1,0 3,1 1,0 0,-1 0,0l2 0 0 0 1 1c-2,1 -1,1 -2,2 0,2 1,3 3,3 0,-1 0,-1 1,-1 0,-1 0,-3 -1,-4 0,-2 -1,-2 -1,-3 0,-2 0,-1 1,-1l0 -1 1 0c0,-1 -1,0 0,0 3,-1 4,-1 8,-1 4,-1 1,-1 2,-5 0,-4 3,-8 6,-10l1 -1c3,0 3,2 3,5 3,1 4,1 6,-1 -2,-1 -2,-1 -2,-3 3,0 4,-2 8,-2 0,3 -1,3 -2,6 2,4 6,3 9,5 1,1 2,3 1,5 -1,2 -3,2 -6,2 -1,0 -1,0 -1,-1 -4,0 -10,-4 -13,-2 -3,1 0,0 -6,2 -1,1 -5,2 -6,3 0,3 1,6 4,8 0,0 0,0 0,0l2 0c0,0 0,0 1,0l1 0 1 -1 2 0 1 1 0 0 1 0c2,1 3,1 5,0 0,0 0,0 0,0 5,-2 4,2 4,5 0,4 -1,6 -2,8l-1 1c-2,1 -2,1 -5,1 -2,0 -5,0 -7,0 -6,0 -8,0 -12,-2l0 0c-2,-1 -2,-2 -4,-2 -1,0 -1,0 -1,-1 -2,0 -3,-1 -4,1 -2,2 -1,3 -2,5 -2,1 -6,0 -8,-1l-1 0c-1,-2 -1,-3 -3,-4 -1,-1 -3,-2 -5,-2 -1,0 -1,1 -1,0 -1,0 -1,0 -2,-1l0 0c-4,-5 2,-9 -3,-9 0,1 0,0 -1,0 -3,0 -5,0 -8,0 -3,0 -4,1 -7,1 0,1 0,0 -1,0 -2,0 -6,2 -7,3l-1 1c-2,1 -3,1 -5,1 -1,0 -1,1 -1,0l-4 -2c0,1 0,0 -1,0 -2,2 -4,4 -6,6 -2,1 -3,1 -3,3 0,1 -1,4 -1,5l0 1 -1 1 0 0c-2,2 -3,2 -5,3l-1 1 -1 1 -1 1 0 0c-2,2 -3,4 -5,6 -1,2 -2,4 -4,7l0 0c-1,2 -1,5 0,7l0 1c1,1 2,3 1,5 0,1 -1,3 -2,4l-1 1c0,2 0,2 0,3l1 1c1,1 0,1 0,3 -1,1 0,0 -1,1 2,2 2,2 4,3l0 1c3,2 3,5 5,8l0 1c2,2 3,4 5,5l1 1c1,1 3,2 5,2l0 1c3,0 3,0 6,0l1 -1c1,0 1,0 3,-1 3,0 2,0 4,0l1 1c2,0 2,0 4,-1 2,0 3,-1 5,-1 0,-1 -1,-1 0,-1 4,-1 3,-1 8,-1l1 0 1 1 1 1c0,1 0,1 0,2 1,0 1,0 1,1 1,0 0,0 1,0 0,0 1,0 1,0 0,-1 0,0 1,0 2,1 1,0 3,0 1,1 1,1 2,2l1 0c2,4 1,6 0,11 -1,5 0,7 3,9l1 1c3,2 3,4 3,7l3 8c4,9 -2,9 -3,16 0,1 0,0 -1,0 0,3 0,2 0,5 1,2 1,3 1,5 1,0 1,0 1,1 1,3 4,7 5,11 1,0 0,0 0,1 0,2 1,2 1,5 0,3 0,3 0,5l1 1c0,1 1,1 1,2l1 1c1,2 4,5 5,8 0,0 0,0 0,0 0,4 0,4 0,6 1,1 2,1 3,1 0,-1 0,-1 1,-1 2,0 2,0 4,-1 0,0 2,0 4,0 3,0 5,0 8,-1l0 -1c2,-1 4,-3 6,-5 1,-1 1,-1 2,-3 1,-1 2,-2 3,-3l0 -1c2,-1 3,-2 2,-5 0,-2 -1,-4 2,-5l1 0c2,-1 3,-1 4,-2l0 -1c1,-3 1,-4 -1,-6 -1,-3 -1,-3 1,-5l0 -1 3 -3 0 0 1 -1 1 -1c1,0 1,-1 2,-1l1 -1 2 0c0,-1 0,-1 0,-1l1 0 0 0 1 -1 0 0c1,-2 2,-3 3,-6 0,-3 -1,-5 -1,-7 -1,0 -1,0 -1,-1 0,-2 -1,-5 -2,-8 -1,-2 -1,-2 -1,-5 0,-3 1,-2 1,-4l1 -1c1,-1 1,-2 2,-3l0 0c1,-2 2,-3 3,-4l0 0 3 -3 0 -1c2,-2 5,-4 8,-6l0 0c3,-2 4,-3 6,-7l1 0c1,-3 3,-6 4,-10l0 0c1,-3 2,-6 2,-9 -2,0 -2,1 -3,1l-1 0c-3,1 -6,4 -10,3 -5,0 -5,-4 -6,-7 -1,0 -1,0 -1,-1l-3 -3c-1,0 -1,0 -1,-1l-1 -1c-1,0 -1,1 -1,0 -1,-1 -1,-1 -2,-2 -2,-2 -1,-1 -1,-4 -1,0 -1,0 -1,0 -1,-3 -1,-2 -2,-4 -1,0 -1,0 -1,0 -1,-3 -2,-1 -2,-6l0 -1c-1,-2 -1,-2 -2,-3 -1,-1 -1,-2 -2,-3 -1,-1 -3,-5 -3,-6 -1,0 -1,0 -1,-1l0 0c0,0 0,0 0,-1l0 0c-1,0 -1,0 -1,-1 0,-1 -1,-3 -2,-4 0,0 0,0 0,-1l0 0c-1,0 -1,0 -1,-1l1 -1c1,2 1,2 2,3 1,0 0,0 0,1l1 0c0,-1 1,-1 1,-1l0 -1 1 0c0,4 3,6 4,8 1,0 1,0 1,1l2 3c1,0 1,-1 1,0l1 2c1,0 1,0 1,1l0 1c1,0 1,-1 1,0 3,7 -2,3 7,13 7,7 3,11 5,14 1,0 1,0 1,0 5,0 6,-1 10,-2 0,-1 0,-1 1,-1l1 0 0 0 1 0 0 -1c2,0 4,-1 5,-2 1,-1 2,-3 4,-4 1,-1 8,-1 9,-6l1 0c0,4 1,7 1,11 0,4 0,8 0,12 0,6 -2,17 -2,21 0,1 0,1 -1,1 0,2 0,2 0,5 0,0 0,0 -1,0 0,4 -1,7 -2,11 0,0 1,0 0,0 -1,6 -9,28 -13,33 0,2 -1,3 -2,5 0,1 0,0 0,0l0 1c-1,1 0,1 -2,2 0,-2 0,-2 1,-3l1 0 0 -2c0,-1 0,-1 1,-1 1,-3 3,-9 -1,-12 0,3 -3,6 -5,7l-1 0c-1,1 -1,1 -2,2l-1 0 -1 1 0 0c-3,2 -2,3 -2,6 0,5 -1,4 -1,7l-1 1c-1,1 -1,2 -1,4 0,0 0,0 -1,0 0,1 0,2 0,2 0,1 0,1 0,2 1,0 1,0 1,1 1,1 1,1 2,2 -1,2 -2,3 -3,5l0 0c-1,2 -3,3 -4,4l0 1 -2 2 -1 1 -3 4 -1 0 0 1 -1 0 0 1c-1,2 -3,3 -5,4 -1,2 -4,4 -4,5l-1 0c-2,2 -4,5 -7,6l0 1 -2 1 -1 1c-1,1 -3,3 -5,4l-1 1c-2,1 -2,1 -4,2 -1,1 -2,2 -3,2 -3,2 -5,4 -8,5l0 1 -2 1 -1 0c-1,0 -5,3 -6,3 -2,1 -5,3 -7,4 0,0 0,0 -1,0 -2,0 -2,1 -4,2 0,0 1,0 0,0 -2,0 -2,1 -3,1l-1 1c-3,0 -6,2 -9,3 0,0 0,0 -1,0 -2,1 -4,2 -7,2 0,1 0,1 0,1 -3,0 -5,1 -8,1 0,1 0,0 0,0 -2,1 -4,1 -6,1 0,1 0,1 -1,1 -3,0 -3,0 -5,0 0,1 0,1 -1,1 -3,0 -5,1 -8,1 -4,0 -6,0 -9,0l-2 1c-4,0 -9,0 -13,0 -5,0 -8,-1 -13,0l-2 -1c-5,0 -8,-2 -13,-2 -1,0 -1,1 -1,0 -3,0 -4,-1 -7,-1l0 -1c-2,0 -4,0 -6,-1 -1,0 -3,-1 -5,-1 -1,0 -1,0 -1,-1l-1 1c-1,0 -1,0 -1,-1 -2,0 -2,-1 -4,-1 -1,-1 -3,-1 -4,-1l-1 -1c-3,-1 -5,-2 -8,-3 -1,0 -1,0 -1,0 -1,-1 -4,-2 -5,-3 -3,-1 -16,-8 -17,-9l-1 -1c-1,-2 -5,-3 -3,-7l0 -1 0 0 1 -1 0 0 0 -1 1 -2c-3,-1 -4,-2 -4,-5 3,0 1,1 4,1l1 0c0,-1 0,-1 0,-2 0,-2 0,-2 0,-4 3,0 5,0 8,0 2,-7 -2,-6 -4,-11l2 0 0 1c1,0 1,1 3,1 1,0 0,0 0,0 4,1 3,2 7,-4 4,-4 4,-4 4,-9 0,-1 -1,-1 0,-1 1,-2 2,-2 2,-4 0,-2 -1,-1 -1,-5l1 -1 1 0c1,-1 4,-3 5,-3l0 -1c3,0 4,1 6,1l1 -1c2,-1 3,-5 4,-8 1,-2 2,-9 1,-12 -1,-6 0,-4 3,-8 2,-2 4,-6 5,-9 0,0 0,0 0,0 1,-2 1,-3 1,-6 -1,0 -1,0 -1,0 0,-2 0,-1 -1,-2 0,0 -1,0 -2,0 0,0 0,0 0,-1 -6,-2 -4,-4 -8,-6 -3,-2 -9,-1 -13,-1l0 0c-1,-2 -2,-4 -4,-4 -2,-1 -4,-1 -6,0l0 -1c-1,0 0,0 0,-1l-1 -1c-1,0 -1,0 -1,0l-3 0 0 -5c-1,0 0,0 0,-1 0,-1 -1,-1 -1,-3 -1,0 0,0 0,0 -2,-3 -3,-4 -7,-4 -2,0 -3,-1 -5,-1 -2,0 -3,-1 -4,-1l-1 -1c-4,-3 -5,-7 -9,-8 0,-1 0,-2 0,-3 -2,1 -1,1 -3,1 0,1 0,0 -1,0l-5 0c0,0 0,1 0,0 -6,0 -11,-7 -14,-3l-1 1c0,1 -1,2 -1,3 -1,1 -1,1 -1,0 1,-2 1,-4 1,-6 -1,0 -2,1 -3,1l0 0 -1 0 0 1 -1 0 0 0c-4,2 -5,5 -8,6l0 1c-1,0 -1,0 -1,1 0,0 0,1 0,1l-2 1c1,0 1,-1 1,0l0 1 0 0c0,5 1,4 -1,8l0 1 -1 1 0 0c-2,2 -3,4 -5,6 -2,4 -1,4 1,7 -2,3 -4,2 -1,7l0 1 3 2 0 1c2,2 3,5 5,8 0,1 1,2 2,3 1,1 2,2 3,3l0 1c1,1 0,0 1,1 0,0 0,0 0,1 0,1 0,1 1,1l0 1 2 1 0 1c1,0 1,0 2,0 0,0 0,0 0,1l2 0 1 1 0 0 1 0c1,1 3,3 4,4l1 0c0,2 2,3 3,5l0 1c0,1 0,1 0,2 1,0 1,0 1,1 0,2 1,5 1,7 1,3 1,5 1,7 1,5 2,10 2,15 1,0 0,0 0,1 0,5 2,9 2,13 1,0 1,0 1,0l0 1 0 0c1,1 1,2 1,2 1,1 1,1 2,2l0 1c1,1 2,1 2,3 1,0 1,0 1,0 1,2 0,1 0,1 -1,-1 -2,-1 -4,-2 -1,-2 -2,-3 -4,-4l0 0 -12 -13 -1 0 0 -1 -1 0c-1,-2 -4,-4 -5,-6l0 -1c-1,-1 -2,-2 -3,-3 -2,-2 -2,-3 -3,-4l-1 -1c-1,-1 -1,-2 -2,-3 -1,-2 -2,-3 -3,-4l0 -1 -1 -2 -1 0 0 -1 -1 -1c-1,-2 -2,-4 -3,-6l-1 -1 -5 -10c0,0 0,0 0,-1 -1,-1 -2,-3 -2,-5 -1,-2 -6,-14 -6,-16 -1,0 -1,0 -1,-1l0 -2c-1,0 -1,0 -1,-1l-4 -23c-2,-9 -2,-17 -2,-27 4,0 5,1 6,3l1 1c0,1 0,1 1,2l0 1c1,2 1,1 2,2 1,0 1,0 1,1 3,-3 2,-2 3,-6 0,-3 2,-4 2,-7l0 -1c0,-1 0,0 -1,-1 -1,0 -1,-1 -4,-1 0,1 1,1 0,1 -4,0 -4,1 -8,0 1,-4 4,-7 5,-10l0 0 1 -2 -2 0c-1,0 -1,0 -1,-1l-1 0c0,1 0,1 -1,1 -2,0 -1,0 -3,2 0,-6 2,-16 3,-22 3,0 5,2 6,-1l1 -1c5,-3 7,0 12,1 2,-1 2,-2 6,-2 1,-4 4,-5 8,-7l0 -1c2,0 4,-1 6,-2l0 -1c2,-1 3,-2 3,-5 0,-3 0,-4 4,-4 0,-2 1,-3 3,-4l1 -1 2 -1 0 -1c2,0 3,-1 4,-1l1 -1c2,0 2,-1 4,-1l0 0c2,-3 1,-5 7,-7 4,-2 6,-2 11,-2 -3,3 -3,0 -4,3 1,-1 7,-1 11,-5 -2,0 -4,0 -5,-1 -1,-2 0,-4 0,-5l1 -1c1,-1 0,0 0,-1 -3,0 -5,1 -6,2l-1 0c0,1 0,0 -1,1l-1 0 -2 0c1,-1 1,-1 2,-2l1 -1c2,-1 8,-3 12,-3 0,-1 -1,0 0,0l3 0c0,-1 0,-1 1,-1 5,0 14,-4 16,-7l0 -1c0,-1 -1,-1 -2,-1 -2,0 -3,0 -4,0 0,-2 0,-1 0,-3l0 -1c0,-4 -1,-6 -1,-10 -2,0 -3,2 -5,3 -2,2 -2,2 -5,1 0,-3 1,-2 1,-5 -1,0 -1,0 -1,-1 -1,-1 -4,-2 -8,-2 -3,0 -5,2 -6,4l-1 1c-1,2 -3,3 -3,6 1,0 0,0 0,0l0 2 0 0c-2,3 -3,3 -5,4 -3,2 -5,2 -6,4l-1 1c0,1 0,1 -1,2l0 1c-1,2 -2,3 -4,4 -5,-2 0,-7 0,-10 -1,0 -6,-1 -8,-1 -1,0 -1,0 -1,-1l-2 0c-1,0 -1,0 -1,-1 -1,0 -3,-1 -3,-2 -1,-2 0,-3 1,-4l0 -1 1 0c1,-1 2,-2 4,-3 2,-1 4,-2 5,-2 0,-1 0,-1 1,-1 1,0 2,0 2,-1 1,-1 1,0 1,-2l1 -1c2,0 2,-1 5,-1 0,0 0,0 0,0 2,0 3,0 4,-1 0,-2 0,0 -1,-3 4,1 4,0 7,-1 -1,-3 0,-3 1,-5 0,0 0,0 0,0 1,-1 1,0 0,-1l-1 0c-1,0 -1,0 -2,0l0 -1c0,-2 1,-3 1,-4 -3,0 -4,2 -7,3l0 1 1 1c0,0 0,0 0,1 -2,1 -3,3 -6,4l-1 0 -4 0c0,-2 2,-3 3,-3l0 -1c2,-1 3,-2 5,-4 1,0 1,-1 2,-2 1,0 2,0 3,-1l0 0c2,-1 2,-2 3,-3 0,-1 2,-1 3,-2 2,-2 4,-3 6,-4l0 -1c2,-1 3,-2 5,-3 2,-1 3,-2 5,-3l1 0c4,-2 2,1 10,-3 -1,-2 -3,-1 3,-4 2,-1 4,-2 7,-3zm34 -27c0,1 0,1 -1,1 -4,-1 -9,2 -13,2 0,1 0,1 -1,1 -2,0 -1,0 -2,0 0,1 0,1 -1,1 -3,0 -8,2 -11,2 0,1 0,1 -1,1 -2,0 -4,1 -6,2 -2,1 -4,2 -6,2 0,1 0,1 0,1 -5,1 -9,4 -13,5 0,1 0,1 0,1 -5,2 -10,5 -15,8 0,1 1,0 0,0 -3,2 -6,4 -9,6 0,0 1,0 0,0 -1,1 -2,1 -3,2 0,1 0,1 -1,1l-1 1c0,0 0,0 -1,0l-1 1c0,1 0,1 -1,1l-1 1c0,1 0,1 -1,1l-2 1c0,1 0,1 -1,1 -2,1 -4,4 -6,6 0,0 0,0 -1,0l-12 13 -1 0 0 1c-1,1 -2,1 -3,2 -1,1 -1,2 -2,3 -1,1 -2,2 -2,3 -1,1 -2,2 -3,3 0,1 0,0 0,0 -2,3 -5,6 -7,9 -2,3 -4,7 -6,10 0,1 1,0 0,0 -3,5 -5,9 -8,14 0,1 1,1 0,1 -1,2 -2,3 -3,6 0,0 1,0 0,0 -1,3 -3,6 -4,9 0,1 1,1 0,1 -1,2 -2,5 -2,7 0,1 0,1 -1,1l0 1c0,1 0,1 0,1 -1,1 -1,1 -1,2 0,1 0,1 0,1 -1,1 -1,0 -1,2 0,1 0,1 0,1 -1,2 -2,4 -2,6 0,2 -1,5 -1,7 0,1 0,1 -1,1 0,2 -1,5 -1,7 -1,3 -1,6 -1,8 -1,6 -2,11 -1,17l-1 2c0,14 1,25 3,39 0,1 1,3 1,5 1,0 1,0 1,1 0,3 1,5 1,8 1,0 1,0 1,1 0,2 0,2 1,4 0,0 0,0 0,1 0,2 0,1 1,3 0,0 0,0 0,0 0,2 0,2 1,3 0,0 0,0 0,0l0 1c1,0 1,0 1,1 0,2 1,5 2,8 1,0 0,-1 0,0 1,3 3,6 4,9 1,0 0,0 0,1 1,2 2,3 3,6 1,0 0,-1 0,0 3,5 5,9 8,14 1,0 0,0 0,1 2,3 4,6 6,9 2,3 5,6 7,9 0,0 0,0 0,0 1,1 2,2 2,3l8 9 0 0 1 1 12 12c1,0 1,0 1,1 1,1 2,2 4,4 1,1 4,3 5,4 1,0 1,-1 1,0l1 2c1,0 1,-1 1,0l1 1c1,0 1,0 1,1 2,1 3,2 5,3 1,0 0,0 0,1 2,1 4,2 6,3 1,0 0,0 0,1 1,0 2,0 3,1 1,1 2,1 3,2 2,1 4,2 6,3 1,0 1,0 1,1l5 2c0,0 0,0 0,1 4,1 8,4 13,5 0,0 0,0 0,1 2,0 4,2 6,2 2,1 4,2 6,2 1,0 1,0 1,1 3,1 5,1 7,2 1,0 6,2 7,2 1,0 1,0 1,0 2,1 4,1 6,1 1,0 1,0 1,1 1,0 2,0 3,1 1,0 3,0 4,0 3,1 5,1 8,1 1,0 1,0 1,1l16 1c9,1 31,0 41,-2 3,0 6,-1 8,-1 0,-1 0,-1 1,-1l1 0c0,0 0,0 1,0 3,0 3,-1 6,-1 0,-1 0,-1 1,-1 2,0 2,0 4,-1 0,0 0,0 1,0 3,0 8,-2 11,-3 0,-1 0,-1 0,-1 2,0 5,-1 7,-2 2,0 4,-2 6,-2 0,-1 0,-1 0,-1 4,0 12,-5 15,-7 6,-2 9,-5 14,-7 0,-1 0,-1 1,-1 2,-1 5,-3 6,-4 0,-1 0,-1 1,-1 1,-1 2,-1 3,-2 0,-1 0,0 0,0l2 -1c0,-1 0,-1 0,-1l2 -1c0,-1 0,0 0,0l2 -2c0,-1 0,0 1,0 1,-1 3,-3 5,-4 0,-1 0,-1 0,-1l4 -3c0,-1 0,-1 1,-1l12 -12c0,-1 0,-1 1,-1 1,-2 4,-4 6,-7 0,0 -1,0 0,0 1,-2 3,-3 4,-5 0,0 -1,0 0,0 2,-3 5,-6 7,-9 2,-3 4,-6 5,-9 0,-1 0,-1 1,-1 1,-2 2,-3 3,-5 0,-1 0,-1 0,-1l7 -14c0,-1 0,-1 1,-1 1,-3 3,-6 3,-9 0,-1 0,0 1,0 1,-3 2,-6 2,-8 0,-1 0,-1 1,-1l0 -1c0,0 0,0 0,0 1,-1 1,-1 1,-3 0,0 0,0 0,0 1,-2 1,-1 1,-3 0,-1 0,-1 0,-1 1,-2 1,-1 1,-2 0,-1 0,-1 0,-1l0 -1c0,-1 0,-1 1,-1l3 -15c0,-3 1,-6 1,-8l2 -27c0,-6 -1,-12 -1,-18 -1,0 -1,1 -1,0 0,-5 -1,-10 -1,-14 -1,-3 -1,-5 -2,-7 0,-2 -1,-5 -1,-6 -1,0 -1,0 -1,-1l0 -1c0,0 0,0 0,-1 0,-2 0,-1 -1,-3 0,0 0,0 0,-1 0,-2 0,-1 -1,-2 0,0 0,0 0,-1 0,-1 0,-1 -1,-2 0,0 0,0 0,-1l0 -1c-1,0 -1,0 -1,-1 0,-2 -1,-5 -2,-7 -1,0 -1,0 -1,-1 0,-3 -2,-6 -3,-9 -1,0 -1,0 -1,0 0,-3 -3,-9 -5,-11 -1,-3 -3,-6 -5,-10 -1,0 -1,1 -1,0 -1,-3 -3,-7 -5,-10 -2,-3 -5,-6 -7,-9 -1,0 0,1 0,0 -3,-4 -8,-9 -10,-11l0 -1 -1 0 -12 -13c-1,0 -1,0 -1,0l-4 -4c0,0 0,0 0,0l-3 -2c0,0 0,0 0,-1 -2,-1 -3,-2 -5,-3 0,0 0,0 0,-1l-2 -1c0,0 0,0 0,0l-2 -1c0,0 0,0 0,-1 -1,0 -2,-1 -3,-2 -1,0 -1,0 -1,0 -2,-2 -6,-4 -8,-6 -1,0 -1,1 -1,0 -1,-1 -2,-2 -4,-3 -1,0 -1,1 -1,0l-3 -2c-1,0 -1,0 -1,-1l-5 -2c-1,0 0,0 0,-1 -4,-1 -8,-4 -13,-5 0,0 0,0 0,-1l-11 -3c-4,-2 -15,-6 -18,-6 -1,0 -1,0 -1,0 -3,-1 -3,-1 -6,-1 -1,0 -1,0 -1,-1l-1 0c-1,0 -1,0 -1,0 -3,0 -12,-3 -17,-3 -14,-1 -20,-2 -34,0l-14 1c-2,0 -6,1 -9,1z"/>
   <path class="fil0" d="M207 24c-6,0 -13,2 -18,3 -17,5 -15,1 -31,5 0,0 0,0 -1,0 -2,1 -4,2 -5,4 1,1 0,0 1,1 0,0 2,1 0,1 -1,1 -1,1 -1,2 2,0 2,0 3,1 0,1 1,2 1,3 1,3 1,5 3,6l0 1c2,1 1,4 0,5l-1 1 0 0 -1 0 0 0 -1 1 0 0 -1 0c-2,1 -3,2 -3,5 0,3 0,6 0,8 1,0 0,0 0,1 1,1 2,2 3,2 1,0 1,0 1,0 5,1 6,1 9,-3 1,-1 2,-3 3,-4 1,-1 2,-3 3,-3l1 -1c2,0 2,-1 5,-1 0,-1 0,-1 1,-1 5,0 9,-5 12,-7 2,-1 5,-1 8,-1 3,0 5,-1 8,-1l0 -2c-3,0 -3,0 -5,1 0,-3 1,-2 1,-5 3,1 2,2 4,2 1,0 1,0 1,1l2 0c0,-1 0,-1 0,-1l0 0c0,-2 0,-2 -2,-3 -2,0 -1,1 -2,-1 -1,-1 0,-1 0,-1 0,-1 0,0 1,0 4,0 7,-3 9,-5 2,-1 3,-2 3,-4 0,-2 -1,-2 2,-4l0 -1c1,0 1,0 2,0 0,-1 -1,-1 0,-1 2,0 2,0 3,0 1,0 1,-1 2,-1 -2,0 -4,-1 -5,-1 -2,-1 -3,-2 -5,-2 -1,0 -1,1 -1,0l-8 0c0,1 0,0 -1,0z"/>
   <path class="fil0" d="M105 51c0,1 0,1 -1,1 -2,0 -3,1 -5,2l0 1 -1 0 0 1c-1,0 0,0 -1,1 4,2 10,2 14,0 3,-1 2,-1 5,0l0 0c2,1 1,0 2,2l0 1c0,1 1,2 2,3 0,0 0,0 0,1l1 -1c0,0 0,0 0,1 -1,1 -1,1 -3,1 -3,0 -1,-1 -4,1l0 0c-1,1 -3,2 -4,3 5,1 2,7 11,5 -1,-2 0,-1 -1,-2 -1,0 -1,1 -1,0 -1,-1 -1,0 -1,-2 3,-1 2,0 5,1l1 0c0,0 0,0 0,-1 0,0 0,-1 0,-1 0,-1 0,-1 0,-2 -1,0 0,0 0,-1 0,-2 0,-1 1,-1 1,0 3,0 4,0 3,0 4,0 4,-3 -1,0 -1,0 -1,0 0,-1 0,-1 0,-1l-3 -2 0 -3 -2 0 -1 -1 -1 0 0 -1c-2,-1 -2,-3 -5,-1l-1 0c-2,0 -3,-1 -4,-2l-1 0 -3 0c0,0 0,0 0,0 -2,0 -2,1 -3,1l0 1c-1,0 -1,0 -2,1 -1,0 1,0 -1,0 0,-2 0,0 0,-1l1 0c1,-1 0,-1 1,-2 -1,0 -1,0 -2,0z"/>
   <path class="fil0" d="M234 91l0 1c-1,1 -1,0 -1,1 3,0 2,0 4,1 -1,1 -1,1 -1,1l-2 1c5,0 9,-1 11,-3l1 -1 -1 -1 0 0c-2,0 -2,-1 -3,-3l-4 1c-2,0 -3,1 -4,2z"/>
   <path class="fil0" d="M119 105l-1 0 -2 3c2,0 2,1 4,2 2,-2 4,-2 7,-2 0,-1 0,-1 1,-1l0 -1c-1,0 -1,-1 -2,-1 -1,-1 -1,-1 -2,-2l-1 0 1 -2c-2,1 -4,2 -5,4z"/>
   <path class="fil0" d="M229 85c-3,0 -5,2 -6,5 0,1 0,0 0,0l0 4c1,0 0,-1 0,0 3,0 5,-2 6,-3l1 -1c1,-1 1,-3 1,-5l-1 0 -1 0z"/>
   <path class="fil0" d="M60 183c-1,0 -1,1 -3,1l0 0c5,0 8,0 13,-1 -1,-3 -7,-2 -10,-2l0 2z"/>
   <path class="fil0" d="M87 73l8 0c0,-5 -6,-3 -8,0z"/>
   <path class="fil0" d="M36 174l0 1c4,0 9,2 12,2l-2 -2c-4,-2 -6,-1 -10,-1z"/>
   <path class="fil0" d="M94 52l0 0c-2,1 -3,1 -4,3 2,0 2,-1 3,-1l1 0c2,-1 2,-1 4,-1l-4 -1z"/>
   <path class="fil0" d="M37 207c-2,-2 -3,-1 -7,-3 1,2 1,2 2,3 2,0 3,0 5,0z"/>
   <path class="fil0" d="M41 207l0 1c1,0 3,1 4,1l0 0c0,-1 1,0 0,-1 -1,-1 -1,0 -1,-1 -2,0 -2,0 -3,0z"/>
   <path class="fil0" d="M106 70c0,-1 0,-1 1,-1 0,0 0,0 0,0l1 -1c-2,0 -3,0 -4,1 0,2 0,1 2,1z"/>
   <path class="fil0" d="M308 54c0,-2 0,-1 0,-1l-1 0c-2,0 1,0 -1,0 0,0 -1,0 -2,0l0 1c2,0 2,0 4,0z"/>
   <path class="fil0" d="M136 35c-1,1 -1,1 -2,1l-2 1c2,0 3,-1 4,-2z"/>
   <path class="fil0" d="M359 281l-1 -1c-1,1 -1,1 -1,3 2,-1 1,-1 2,-2z"/>
   <path class="fil0" d="M237 84l0 0 0 -3c-2,1 -2,1 0,3z"/>
   <path class="fil0" d="M355 107c0,-1 1,-1 -1,-1 -2,0 -1,0 -2,1l3 0z"/>
   <path class="fil0" d="M134 33l-2 0 0 1c0,0 1,0 1,0 1,0 1,0 1,-1z"/>
   <path class="fil0" d="M106 54c-1,0 -1,0 -1,-1 0,1 0,-1 0,1 2,0 0,0 1,0z"/>
   <path class="fil0" d="M321 156c0,0 -1,0 1,0l0 -1c0,0 -1,0 -1,1z"/>
   <path class="fil0" d="M134 33l2 0 0 0c0,0 0,0 -1,0 0,0 0,0 -1,0z"/>
   <path class="fil0" d="M61 205c-1,0 -1,0 -1,0 0,1 0,1 1,0z"/>
   <path class="fil0" d="M234 96l-1 0 0 1c2,0 0,0 1,-1z"/>
   <path class="fil0" d="M153 38c2,0 0,-1 0,-1l0 1z"/>
   <path class="fil0" d="M95 65c-2,0 -1,0 -1,1 2,0 1,0 1,-1z"/>
   <path class="fil0" d="M45 209l0 0 2 1c-1,-2 0,-1 -2,-1z"/>
   <path class="fil0" d="M0 191l1 -2c-1,0 -1,1 -1,2z"/>
   <path class="fil0" d="M329 175c1,0 0,-1 0,-1l0 1z"/>
   <path class="fil0" d="M396 176c0,-1 0,0 -1,0 0,1 0,0 1,0z"/>
   <path class="fil0" d="M92 62c0,-2 -1,0 -1,0l1 0z"/>
   <path class="fil0" d="M124 71l-1 0c0,2 0,0 1,0z"/>
   <path class="fil0" d="M121 90c2,0 0,-1 0,-1l0 1z"/>
   <path class="fil0" d="M354 126c1,0 0,-1 0,-1l0 1z"/>
   <path class="fil0" d="M260 82l0 -2c0,0 0,0 0,1 0,1 0,0 0,1z"/>
   <path class="fil0" d="M163 3c-1,0 -1,0 -1,1 1,0 1,0 1,-1z"/>
   <path class="fil0" d="M391 244c-1,0 -1,0 -1,1 1,0 1,0 1,-1z"/>
   <path class="fil0" d="M391 149c0,-1 0,-1 -1,-1 0,1 0,1 1,1z"/>
   <path class="fil0" d="M247 6c0,-1 0,0 -1,0 0,0 0,0 1,0z"/>
   <path class="fil0" d="M7 245c0,-1 0,-1 -1,-1 0,1 0,1 1,1z"/>
   <path class="fil0" d="M247 386c-1,0 -1,0 -1,1 1,0 1,0 1,-1z"/>
   <path class="fil0" d="M238 388c-1,0 -1,0 -1,1 1,0 1,0 1,-1z"/>
   <path class="fil0" d="M223 94c0,-1 1,0 0,0 0,0 0,0 0,0z"/>
   <path class="fil0" d="M5 236c0,-1 0,-1 -1,-1 0,1 0,1 1,1z"/>
   <path class="fil0" d="M5 156c-1,0 -1,0 -1,1 1,0 1,0 1,-1z"/>
   <path class="fil0" d="M238 4c0,-1 0,0 -1,0 0,0 0,0 1,0z"/>
   <path class="fil0" d="M172 391c0,-1 0,-1 -1,-1 0,1 0,1 1,1z"/>
   <path class="fil0" d="M187 16c-1,0 -1,0 -1,1 1,0 1,0 1,-1z"/>
   <path class="fil0" d="M256 219c-1,0 -1,-1 -1,0 1,0 1,1 1,0z"/>
   <path class="fil0" d="M9 139c-1,0 0,0 0,1 0,0 0,0 0,-1z"/>
   <path class="fil0" d="M9 253c0,0 0,0 0,0 0,1 -1,0 0,0z"/>
   <path class="fil0" d="M388 140c0,-1 1,-1 0,-1 0,1 0,1 0,1z"/>
   <path class="fil0" d="M11 258c0,-1 0,-1 -1,-1 0,1 0,1 1,1z"/>
   <path class="fil0" d="M64 120c-1,0 -1,-1 -1,0 1,0 1,0 1,0z"/>
   <path class="fil0" d="M388 253c0,0 0,0 0,0 1,0 0,1 0,0z"/>
   <path class="fil0" d="M372 160c0,0 0,-1 0,0 1,0 0,0 0,0z"/>
   <path class="fil0" d="M387 257c-1,0 -1,0 -1,1 1,0 1,0 1,-1z"/>
   <path class="fil0" d="M312 63c0,-1 0,0 -1,0 0,0 0,0 1,0z"/>
   <path class="fil0" d="M389 249c0,0 0,0 0,1 1,0 0,0 0,-1z"/>
   <path class="fil0" d="M156 388c0,-1 0,-1 -1,-1 0,1 0,1 1,1z"/>
   <path class="fil0" d="M217 17l-1 0c0,0 -1,0 1,0z"/>
   <path class="fil0" d="M229 133c0,0 1,0 0,0 0,1 0,0 0,0z"/>
   <path class="fil0" d="M167 19c-1,0 -1,0 -1,0 1,0 1,1 1,0z"/>
   <path class="fil0" d="M167 373c0,0 0,0 -1,0 0,1 0,0 1,0z"/>
   <path class="fil0" d="M11 134c-1,0 -1,0 -1,1 1,0 1,0 1,-1z"/>
   <path class="fil0" d="M387 135c0,-1 0,-1 -1,-1 0,1 0,1 1,1z"/>
   <path class="fil0" d="M182 376c-1,-1 1,-1 -2,-1l2 1z"/>
   <path class="fil0" d="M208 24c-1,0 -1,0 -1,0 1,0 1,1 1,0z"/>
   <path class="fil0" d="M8 250c0,-1 0,-1 0,-1 0,1 -1,1 0,1z"/>
   <path class="fil0" d="M237 84l0 0 1 0c0,-2 0,0 -1,0z"/>
   <path class="fil0" d="M206 43c-1,0 -1,-1 -1,0 1,0 1,0 1,0z"/>
   <path class="fil0" d="M148 369c0,-1 0,-1 -1,-1 0,1 0,1 1,1z"/>
   <path class="fil0" d="M71 282c0,-1 0,-1 -1,-1 0,1 0,1 1,1z"/>
   <path class="fil0" d="M8 142c-1,0 0,0 0,1 0,0 0,0 0,-1z"/>
   <path class="fil0" d="M240 388c-1,0 -1,0 -1,0 1,0 1,1 1,0z"/>
   <path class="fil0" d="M389 143c0,-1 1,-1 0,-1 0,1 0,1 0,1z"/>
   <path class="fil0" d="M252 385c-1,0 -1,0 -1,0 1,0 1,1 1,0z"/>
   <path class="fil0" d="M146 7c-1,0 -1,0 -1,1 1,0 1,0 1,-1z"/>
   <path class="fil0" d="M359 134c0,0 0,0 -1,0 0,1 0,0 1,0z"/>
   <path class="fil0" d="M148 23c-1,0 -1,0 -1,1 1,0 1,0 1,-1z"/>
   <path class="fil0" d="M75 312c0,-1 1,-1 0,-1 0,1 0,1 0,1z"/>
   <path class="fil0" d="M288 324c-1,0 -1,0 -1,1 1,0 1,0 1,-1z"/>
   <path class="fil0" d="M240 5c0,-1 0,-1 -1,-1 0,1 0,1 1,1z"/>
   <path class="fil0" d="M360 162c0,-1 0,-1 -1,-1 0,1 0,1 1,1z"/>
   <path class="fil0" d="M384 127c0,-1 0,-1 -1,-1 0,1 0,1 1,1z"/>
   <path class="fil0" d="M149 6c-1,0 -1,0 -1,1 1,0 1,0 1,-1z"/>
   <path class="fil0" d="M380 275c-1,0 -1,0 -1,1 1,0 1,0 1,-1z"/>
   <path class="fil0" d="M380 117c0,-1 0,0 -1,0 0,0 0,0 1,0z"/>
   <path class="fil0" d="M113 318c0,0 1,0 0,0 0,1 -1,0 0,0z"/>
   <path class="fil0" d="M384 266c-1,0 -1,-1 -1,0 1,0 1,1 1,0z"/>
   <path class="fil0" d="M17 276c0,-1 1,-1 0,-1 0,1 0,1 0,1z"/>
   <path class="fil0" d="M17 117c0,0 0,-1 0,0 1,0 0,0 0,0z"/>
   <path class="fil0" d="M149 386c0,0 0,0 -1,0 0,1 0,0 1,0z"/>
   <path class="fil0" d="M13 126c0,0 0,0 0,1 1,0 0,0 0,-1z"/>
   <path class="fil0" d="M13 266c0,-1 1,0 0,0 0,1 0,0 0,0z"/>
   <path class="fil0" d="M390 246c0,0 0,0 0,1 1,0 0,0 0,-1z"/>
   <path class="fil0" d="M359 280l0 0 0 0c0,0 0,1 0,0z"/>
   <path class="fil0" d="M77 204c0,0 1,0 0,0 0,1 0,0 0,0z"/>
   <path class="fil0" d="M360 277c-1,0 -1,0 -1,1 1,0 1,0 1,-1z"/>
   <path class="fil0" d="M390 147c0,-1 1,-1 0,-1 0,1 0,1 0,1z"/>
   <path class="fil0" d="M24 178c0,-1 0,-1 -1,-1 0,1 0,1 1,1z"/>
   <path class="fil0" d="M83 204c-1,0 -1,0 -1,0 1,0 1,1 1,0z"/>
   <path class="fil0" d="M156 74c0,0 0,0 -1,0 0,1 0,0 1,0z"/>
   <path class="fil0" d="M134 28c0,0 0,0 0,0 1,0 0,1 0,0z"/>
   <path class="fil0" d="M22 177c-1,0 -1,0 -1,1 1,0 1,0 1,-1z"/>
   <path class="fil0" d="M263 132c-1,0 -1,0 -1,0 1,0 1,1 1,0z"/>
   <path class="fil0" d="M350 107c-1,0 -1,0 -1,1 1,0 1,0 1,-1z"/>
   <path class="fil0" d="M111 102c-1,0 -1,0 -1,1 1,0 1,0 1,-1z"/>
   <path class="fil0" d="M228 136c-1,0 -1,0 -1,0 1,0 1,1 1,0z"/>
   <path class="fil0" d="M276 78c-1,0 -1,0 -1,1 1,0 1,0 1,-1z"/>
   <path class="fil0" d="M50 112c-1,0 -1,-1 -1,0 1,0 1,0 1,0z"/>
   <path class="fil0" d="M387 256c0,0 0,0 0,0 1,0 0,1 0,0z"/>
   <path class="fil0" d="M289 127c0,-1 1,0 0,0 0,0 0,0 0,0z"/>
   <path class="fil0" d="M387 137c0,-1 1,-1 0,-1 0,1 0,1 0,1z"/>
   <path class="fil0" d="M107 103c-1,0 0,-1 0,0 0,0 0,0 0,0z"/>
   <path class="fil0" d="M10 256c0,0 0,0 0,0 0,1 -1,0 0,0z"/>
   <path class="fil0" d="M228 373c-1,0 -1,0 -1,1 1,0 1,0 1,-1z"/>
   <path class="fil0" d="M10 136c-1,0 0,0 0,1 0,0 0,0 0,-1z"/>
   <path class="fil0" d="M335 185c0,-1 0,0 -1,0 0,0 0,0 1,0z"/>
   <path class="fil0" d="M152 253c0,0 0,0 0,0 1,0 0,1 0,0z"/>
   <path class="fil0" d="M223 90c-1,0 0,0 0,0 0,0 0,1 0,0z"/>
   <path class="fil0" d="M274 360c-1,0 -1,-1 -1,0 1,0 1,0 1,0z"/>
   <path class="fil0" d="M318 154c0,-1 0,-1 -1,-1 0,1 0,1 1,1z"/>
   <path class="fil0" d="M263 381c0,0 0,0 0,1 1,0 0,0 0,-1z"/>
   <path class="fil0" d="M356 151c-1,0 -1,0 -1,0 1,0 1,1 1,0z"/>
   <path class="fil0" d="M233 138c0,0 0,0 -1,0 0,1 0,0 1,0z"/>
   <path class="fil0" d="M134 382c0,-1 0,-1 -1,-1 0,1 0,1 1,1z"/>
   <path class="fil0" d="M217 24c0,0 0,0 -1,0 0,1 0,0 1,0z"/>
   <path class="fil0" d="M377 231c-1,0 -1,-1 -1,0 1,0 1,0 1,0z"/>
   <path class="fil0" d="M67 93c0,-1 0,-1 -1,-1 0,1 0,1 1,1z"/>
   <path class="fil0" d="M93 30c0,0 0,0 0,0 1,0 0,1 0,0z"/>
   <path class="fil0" d="M134 10c-1,0 -1,0 -1,1 1,0 1,0 1,-1z"/>
   <path class="fil0" d="M345 197c0,-1 0,-1 -1,-1 0,1 0,1 1,1z"/>
   <path class="fil0" d="M299 27c0,0 0,0 -1,0 0,1 0,0 1,0z"/>
   <path class="fil0" d="M318 155c0,-1 1,-1 0,-1 0,1 0,1 0,1z"/>
   <path class="fil0" d="M81 38c-1,0 -1,0 -1,1 1,0 1,0 1,-1z"/>
   <path class="fil0" d="M240 371c-1,0 0,0 0,0 0,0 0,1 0,0z"/>
   <path class="fil0" d="M46 211c0,-1 0,0 -1,0 0,0 0,0 1,0z"/>
   <path class="fil0" d="M304 30c0,0 0,0 -1,0 0,1 0,0 1,0z"/>
   <path class="fil0" d="M316 354c0,0 0,-1 0,0 1,0 0,0 0,0z"/>
   <path class="fil0" d="M316 39c0,-1 1,-1 0,-1 0,1 0,1 0,1z"/>
   <path class="fil0" d="M113 225c0,-1 0,-1 0,-1 0,1 -1,1 0,1z"/>
   <path class="fil0" d="M59 117c0,-1 0,0 0,0 0,0 -1,0 0,0z"/>
   <path class="fil0" d="M306 133c0,0 0,0 0,0 0,1 -1,0 0,0z"/>
   <path class="fil0" d="M234 372c-1,0 -1,0 -1,1 1,0 1,0 1,-1z"/>
   <path class="fil0" d="M152 72c0,-1 1,-1 0,-1 0,1 0,1 0,1z"/>
   <path class="fil0" d="M247 133c-1,0 -1,0 -1,0 1,0 1,1 1,0z"/>
   <path class="fil0" d="M309 133c-1,0 -1,0 -1,0 1,0 1,1 1,0z"/>
   <path class="fil0" d="M141 25c0,0 0,0 0,1 1,0 0,0 0,-1z"/>
   <path class="fil0" d="M333 169c0,-1 0,-1 -1,-1 0,1 0,1 1,1z"/>
   <path class="fil0" d="M248 369c-1,0 0,0 0,1 0,0 0,0 0,-1z"/>
   <path class="fil0" d="M328 123c0,-1 0,-1 -1,-1 0,1 0,1 1,1z"/>
   <path class="fil0" d="M243 22c0,-1 0,-1 -1,-1 0,1 0,1 1,1z"/>
   <path class="fil0" d="M369 296c-1,0 -1,0 -1,1 1,0 1,0 1,-1z"/>
   <path class="fil0" d="M322 162c0,-1 0,-1 -1,-1 0,1 0,1 1,1z"/>
   <path class="fil0" d="M178 61c-1,0 -1,0 -1,1 1,0 1,0 1,-1z"/>
   <path class="fil0" d="M63 120c-1,0 -1,0 -1,1 1,0 1,0 1,-1z"/>
   <path class="fil0" d="M321 160c0,-1 0,-1 -1,-1 0,1 0,1 1,1z"/>
   <path class="fil0" d="M269 142c0,0 0,0 -1,0 0,1 0,0 1,0z"/>
   <path class="fil0" d="M354 126c-1,0 -1,0 -1,1 1,0 1,0 1,-1z"/>
   <path class="fil0" d="M269 122c-1,0 -1,-1 -1,0 1,0 1,0 1,0z"/>
   <path class="fil0" d="M366 168c0,-1 0,-1 -1,-1 0,1 0,1 1,1z"/>
   <path class="fil0" d="M276 16c0,-1 0,-1 0,-1 0,1 0,1 0,1z"/>
   <path class="fil0" d="M354 115c0,-1 0,0 -1,0 0,0 0,0 1,0z"/>
   <path class="fil0" d="M121 377c0,-1 0,-1 0,-1 0,1 -1,1 0,1z"/>
   <path class="fil0" d="M289 22c0,-1 0,-1 0,-1 0,1 -1,1 0,1z"/>
   <path class="fil0" d="M321 161c0,-1 1,-1 0,-1 0,1 0,1 0,1z"/>
   <path class="fil0" d="M121 15c-1,0 0,0 0,1 0,0 0,0 0,-1z"/>
   <path class="fil0" d="M108 371c0,-1 0,-1 0,-1 0,1 0,1 0,1z"/>
   <path class="fil0" d="M28 297c0,-1 1,-1 0,-1 0,1 0,1 0,1z"/>
   <path class="fil0" d="M24 246c0,-1 0,-1 -1,-1 0,1 0,1 1,1z"/>
   <path class="fil0" d="M120 72c0,0 0,0 -1,0 0,1 0,0 1,0z"/>
   <path class="fil0" d="M20 110c0,0 0,0 0,1 1,0 0,0 0,-1z"/>
   <path class="fil0" d="M358 194c-1,0 -1,0 -1,1 1,0 1,0 1,-1z"/>
   <path class="fil0" d="M256 26c0,-1 0,-1 -1,-1 0,1 0,1 1,1z"/>
   <path class="fil0" d="M78 325c0,0 0,0 -1,0 0,1 0,0 1,0z"/>
   <path class="fil0" d="M84 334c0,0 0,0 -1,0 0,0 0,0 1,0z"/>
   <path class="fil0" d="M130 30c-1,0 -1,0 -1,0 1,0 1,1 1,0z"/>
   <path class="fil0" d="M334 170c0,-1 0,0 -1,0 0,0 0,0 1,0z"/>
   <path class="fil0" d="M60 122c-1,0 0,0 0,1 0,0 0,0 0,-1z"/>
   <path class="fil0" d="M28 96c0,0 0,0 0,0 1,0 0,1 0,0z"/>
   <path class="fil0" d="M276 376c0,0 0,0 0,1 0,0 0,0 0,-1z"/>
   <path class="fil0" d="M103 368c0,-1 0,-1 -1,-1 0,1 0,1 1,1z"/>
   <path class="fil0" d="M369 96c0,0 0,0 -1,0 0,1 0,0 1,0z"/>
   <path class="fil0" d="M107 69c-1,0 -1,0 -1,1 1,0 1,0 1,-1z"/>
   <path class="fil0" d="M124 67c0,-1 0,-1 0,-1 0,1 -1,1 0,1z"/>
   <path class="fil0" d="M20 282c0,-1 1,0 0,0 0,0 0,0 0,0z"/>
   <path class="fil0" d="M338 262c0,-1 0,-1 -1,-1 0,1 0,1 1,1z"/>
   <path class="fil0" d="M295 25c0,-1 0,-1 -1,-1 0,1 0,1 1,1z"/>
   <path class="fil0" d="M108 21c0,0 0,0 0,1 0,0 0,0 0,-1z"/>
   <path class="fil0" d="M133 62c0,-1 0,0 -1,0 0,0 0,0 1,0z"/>
   <path class="fil0" d="M355 133c0,-1 0,-1 0,-1 0,1 -1,1 0,1z"/>
   <path class="fil0" d="M300 49c0,-1 0,-1 -1,-1 0,1 0,1 1,1z"/>
   <path class="fil0" d="M278 123c0,0 0,0 0,1 0,0 0,0 0,-1z"/>
   <path class="fil0" d="M320 156c0,-1 1,-1 0,-1 0,1 0,1 0,1z"/>
   <path class="fil0" d="M84 357c0,-1 1,-1 0,-1 0,1 0,1 0,1z"/>
   <path class="fil0" d="M318 40c0,0 1,0 0,0 0,0 0,0 0,0z"/>
   <path class="fil0" d="M79 353c0,-1 0,-1 -1,-1 0,1 0,1 1,1z"/>
   <path class="fil0" d="M356 315c-1,0 0,0 0,0 0,0 0,1 0,0z"/>
   <path class="fil0" d="M256 367c-1,0 -1,-1 -1,0 1,0 1,0 1,0z"/>
   <path class="fil0" d="M332 181c0,-1 0,0 -1,0 0,0 0,0 1,0z"/>
   <path class="fil0" d="M41 77c0,0 0,0 0,0 0,0 0,1 0,0z"/>
   <path class="fil0" d="M318 352c0,0 0,0 0,1 1,0 0,0 0,-1z"/>
   <path class="fil0" d="M90 361c0,-1 1,-1 0,-1 0,1 0,1 0,1z"/>
   <path class="fil0" d="M48 113c-1,0 0,-1 0,0 0,0 0,0 0,0z"/>
   <path class="fil0" d="M79 40c-1,0 -1,0 -1,0 1,0 1,0 1,0z"/>
   <path class="fil0" d="M112 221c0,0 0,0 0,0 0,0 -1,0 0,0z"/>
   <path class="fil0" d="M328 163c0,-1 0,-1 -1,-1 0,1 0,1 1,1z"/>
   <path class="fil0" d="M313 36c0,0 0,0 -1,0 0,0 0,0 1,0z"/>
   <path class="fil0" d="M65 341c0,-1 0,-1 -1,-1 0,1 0,1 1,1z"/>
   <path class="fil0" d="M333 52c0,-1 0,0 -1,0 0,0 0,0 1,0z"/>
   <path class="fil0" d="M41 315c0,0 0,0 0,0 0,1 0,0 0,0z"/>
   <path class="fil0" d="M356 77c0,0 0,0 0,0 0,1 -1,0 0,0z"/>
   <path class="fil0" d="M325 46c0,-1 1,-1 0,-1 0,1 0,1 0,1z"/>
   <path class="fil0" d="M328 344c0,0 0,0 0,1 1,0 0,0 0,-1z"/>
   <path class="fil0" d="M84 36c0,0 0,0 0,0 1,0 0,0 0,0z"/>
   <path class="fil0" d="M306 361c-1,0 -1,0 -1,1 1,0 1,0 1,-1z"/>
   <path class="fil0" d="M353 128c-1,0 -1,0 -1,0 1,0 1,1 1,0z"/>
   <path class="fil0" d="M374 164c-1,0 -1,0 -1,0 1,0 1,0 1,0z"/>
   <path class="fil0" d="M313 356c-1,0 -1,0 -1,1 1,0 1,0 1,-1z"/>
   <path class="fil0" d="M341 193c0,-1 0,-1 -1,-1 0,1 0,1 1,1z"/>
   <path class="fil0" d="M320 351c0,0 0,-1 0,0 1,0 0,0 0,0z"/>
   <path class="fil0" d="M333 340c-1,0 -1,0 -1,1 1,0 1,0 1,-1z"/>
   <path class="fil0" d="M75 349c0,-1 0,0 -1,0 0,0 0,0 1,0z"/>
   <path class="fil0" d="M372 290c0,0 0,0 0,1 1,0 0,0 0,-1z"/>
   <path class="fil0" d="M346 327c-1,0 -1,0 -1,1 1,0 1,0 1,-1z"/>
   <path class="fil0" d="M72 45c-1,0 -1,0 -1,1 1,0 1,0 1,-1z"/>
   <path class="fil0" d="M316 59c0,-1 0,0 -1,0 0,0 0,0 1,0z"/>
   <path class="fil0" d="M75 43c-1,0 -1,0 -1,1 1,0 1,0 1,-1z"/>
   <path class="fil0" d="M320 133c0,0 0,0 0,0 1,0 0,1 0,0z"/>
   <path class="fil0" d="M351 121c0,-1 0,-1 -1,-1 0,1 0,1 1,1z"/>
   <path class="fil0" d="M65 52c-1,0 -1,-1 -1,0 1,0 1,0 1,0z"/>
   <path class="fil0" d="M363 121c0,-1 0,0 0,0 0,0 -1,0 0,0z"/>
   <path class="fil0" d="M25 249c0,-1 0,-1 -1,-1 0,1 0,1 1,1z"/>
   <path class="fil0" d="M374 242c0,0 0,-1 0,0 1,0 0,0 0,0z"/>
   <path class="fil0" d="M81 73c0,0 0,0 0,0 1,0 0,1 0,0z"/>
   <path class="fil0" d="M323 349c-1,0 -1,-1 -1,0 1,0 1,0 1,0z"/>
   <path class="fil0" d="M117 230c0,-1 0,0 -1,0 0,0 0,0 1,0z"/>
   <path class="fil0" d="M278 120c0,-1 0,0 -1,0 0,0 0,0 1,0z"/>
   <path class="fil0" d="M153 247c0,-1 0,0 -1,0 0,0 0,0 1,0z"/>
   <path class="fil0" d="M210 375c-2,0 -1,0 -2,1l2 -1z"/>
   <path class="fil0" d="M320 42c0,-1 1,-1 0,-1 0,1 0,1 0,1z"/>
   <path class="fil0" d="M50 119c-1,0 0,0 0,1 0,0 0,0 0,-1z"/>
   <path class="fil0" d="M331 166c0,-1 0,0 -1,0 0,0 0,0 1,0z"/>
   <path class="fil0" d="M344 293c-1,0 -1,-1 -1,0 1,0 1,0 1,0z"/>
   <path class="fil0" d="M226 133c0,-1 0,-1 -1,-1 0,1 0,1 1,1z"/>
   <path class="fil0" d="M346 110c-1,0 0,0 0,1 0,0 0,0 0,-1z"/>
   <path class="fil0" d="M59 117c0,-1 0,-1 -1,-1 0,1 0,1 1,1z"/>
   <path class="fil0" d="M77 41c-1,0 -1,0 -1,1 1,0 1,0 1,-1z"/>
   <path class="fil0" d="M77 351c0,-1 0,0 -1,0 0,0 0,0 1,0z"/>
   <path class="fil0" d="M120 64c0,-1 0,-1 0,-1 0,1 -1,1 0,1z"/>
   <path class="fil0" d="M328 48c0,-1 1,0 0,0 0,0 0,0 0,0z"/>
   <path class="fil0" d="M307 52c0,-1 0,0 -1,0 0,0 0,0 1,0z"/>
   <path class="fil0" d="M58 268c0,-1 0,-1 0,-1 0,1 -1,1 0,1z"/>
   <path class="fil0" d="M153 22c-1,0 -1,0 -1,0 1,0 1,1 1,0z"/>
   <path class="fil0" d="M28 189c0,0 0,0 0,1 1,0 0,0 0,-1z"/>
   <path class="fil0" d="M334 276c0,0 0,0 0,1 0,0 0,0 0,-1z"/>
   <path class="fil0" d="M64 92c0,-1 0,-1 -1,-1 0,1 0,1 1,1z"/>
   <path class="fil0" d="M222 28c-1,0 0,0 0,1 0,0 0,0 0,-1z"/>
   <path class="fil0" d="M269 362c0,0 0,-1 0,0 1,0 0,0 0,0z"/>
   <path class="fil0" d="M315 63c0,0 0,-1 0,0 1,0 0,0 0,0z"/>
   <path class="fil0" d="M146 369c0,-1 0,-1 -1,-1 0,1 0,1 1,1z"/>
   <path class="fil0" d="M28 205c0,-1 0,-1 -1,-1 0,1 0,1 1,1z"/>
   <path class="fil0" d="M121 64c0,-1 0,-1 0,-1 0,1 -1,1 0,1z"/>
   <path class="fil0" d="M275 296c0,-1 1,-1 0,-1 0,1 0,1 0,1z"/>
   <path class="fil0" d="M378 225c-1,0 -1,0 -1,1 1,0 1,0 1,-1z"/>
   <path class="fil0" d="M128 107c-1,0 -1,0 -1,1 1,0 1,0 1,-1z"/>
   <path class="fil0" d="M339 191c0,0 0,0 -1,0 0,1 0,0 1,0z"/>
   <path class="fil0" d="M118 232c0,-1 0,-1 0,-1 0,1 -1,1 0,1z"/>
   <path class="fil0" d="M284 318c0,0 0,0 0,0 0,1 0,0 0,0z"/>
   <path class="fil0" d="M348 109c-1,0 -1,-1 -1,0 1,0 1,0 1,0z"/>
   <path class="fil0" d="M209 48c0,0 0,0 0,1 1,0 0,0 0,-1z"/>
   <path class="fil0" d="M72 78c-1,0 -1,0 -1,1 1,0 1,0 1,-1z"/>
   <path class="fil0" d="M267 76c0,-1 0,-1 -1,-1 0,1 0,1 1,1z"/>
   <path class="fil0" d="M269 273c-1,0 -1,0 -1,0 1,0 1,1 1,0z"/>
   <path class="fil0" d="M53 263c0,-1 0,-1 0,-1 0,1 -1,1 0,1z"/>
   <path class="fil0" d="M347 197c0,0 0,0 -1,0 0,1 0,0 1,0z"/>
   <path class="fil0" d="M33 271c0,-1 1,-1 0,-1 0,1 0,1 0,1z"/>
   <path class="fil0" d="M128 362c0,-1 0,0 -1,0 0,0 0,0 1,0z"/>
   <path class="fil0" d="M352 320c-1,0 0,0 0,0 0,0 0,1 0,0z"/>
   <path class="fil0" d="M253 219c0,-1 0,-1 -1,-1 0,1 0,1 1,1z"/>
   <path class="fil0" d="M256 115c0,0 0,-1 0,0 1,0 0,0 0,0z"/>
   <path class="fil0" d="M92 86c0,0 1,0 0,0 0,1 0,0 0,0z"/>
   <path class="fil0" d="M105 51c-1,0 -1,0 -1,1 1,0 1,0 1,-1z"/>
   <path class="fil0" d="M124 304c-1,0 0,0 0,1 0,0 0,0 0,-1z"/>
   <path class="fil0" d="M111 78c0,-1 0,-1 -1,-1 0,1 0,1 1,1z"/>
   <path class="fil0" d="M278 50c0,0 0,0 0,1 1,0 0,0 0,-1z"/>
   <path class="fil0" d="M248 23c0,0 0,0 0,0 0,1 -1,0 0,0z"/>
   <path class="fil0" d="M207 49c0,-1 0,-1 -1,-1 0,1 0,1 1,1z"/>
   <path class="fil0" d="M133 28c-1,0 -1,0 -1,1 1,0 1,0 1,-1z"/>
   <path class="fil0" d="M344 298c0,-1 0,-1 -1,-1 0,1 0,1 1,1z"/>
   <path class="fil0" d="M270 284c0,-1 0,-1 -1,-1 0,1 0,1 1,1z"/>
   <path class="fil0" d="M277 86c0,0 0,0 0,0 1,0 0,1 0,0z"/>
   <path class="fil0" d="M278 114c0,-1 0,0 -1,0 0,0 0,0 1,0z"/>
   <path class="fil0" d="M111 51c0,0 0,-1 0,0 0,0 0,0 0,0z"/>
   <path class="fil0" d="M293 144c0,-1 0,-1 -1,-1 0,1 0,1 1,1z"/>
   <path class="fil0" d="M158 32c-1,0 -1,0 -1,0 1,0 1,0 1,0z"/>
   <path class="fil0" d="M294 123c-1,0 0,-1 0,0 0,0 0,0 0,0z"/>
   <path class="fil0" d="M149 245c0,-1 1,-1 0,-1 0,1 0,1 0,1z"/>
   <path class="fil0" d="M294 132c-1,0 -1,0 -1,1 1,0 1,0 1,-1z"/>
   <path class="fil0" d="M255 68c0,0 0,0 0,1 1,0 0,0 0,-1z"/>
   <path class="fil0" d="M241 215c-1,0 0,0 0,1 0,0 0,0 0,-1z"/>
   <path class="fil0" d="M230 85c-2,0 -1,0 -1,0l1 0z"/>
   <path class="fil0" d="M106 53l-1 0c1,0 1,0 1,0z"/>
   <path class="fil0" d="M52 328l-1 -1c0,1 0,1 1,1z"/>
   <path class="fil0" d="M52 65c-1,0 -1,-1 -1,0l1 0z"/>
   <path class="fil0" d="M51 65c-1,0 0,0 0,1l0 -1z"/>
   <path class="fil0" d="M51 327l0 0c0,1 -1,0 0,0z"/>
   <path class="fil0" d="M346 65c0,-1 0,0 -1,0l1 0z"/>
   <path class="fil0" d="M346 66c0,-1 0,-1 0,-1l0 1z"/>
   <path class="fil0" d="M48 127c-1,0 -1,-1 -1,0l1 0z"/>
   <path class="fil0" d="M47 127c0,0 0,0 0,1l0 -1z"/>
   <path class="fil0" d="M47 128c-1,-1 -1,-1 -1,0l1 0z"/>
   <path class="fil0" d="M335 276l0 0c0,0 0,0 0,0z"/>
   <path class="fil0" d="M332 317c0,0 0,0 0,1l0 -1z"/>
   <path class="fil0" d="M332 318c-1,0 -1,0 -1,0l1 0z"/>
   <path class="fil0" d="M209 48l0 0c1,0 1,0 0,0z"/>
   <path class="fil0" d="M131 38l0 0c0,0 0,0 0,0z"/>
   <polygon class="fil0" points="157,57 156,58 "/>
   <polygon class="fil0" points="156,58 155,58 "/>
   <polygon class="fil0" points="198,188 197,189 "/>
   <polygon class="fil0" points="25,180 25,180 "/>
   <polygon class="fil0" points="199,179 199,178 "/>
   <polygon class="fil0" points="315,133 314,133 "/>
   <polygon class="fil0" points="33,191 33,192 "/>
   <polygon class="fil0" points="198,193 197,192 "/>
   <polygon class="fil0" points="199,171 199,171 "/>
   <polygon class="fil0" points="360,193 360,194 "/>
   <polygon class="fil0" points="359,194 359,194 "/>
   <polygon class="fil0" points="370,160 370,160 "/>
   <polygon class="fil0" points="208,158 208,158 "/>
   <polygon class="fil0" points="24,199 23,198 "/>
   <polygon class="fil0" points="58,200 58,200 "/>
   <polygon class="fil0" points="57,200 57,201 "/>
   <polygon class="fil0" points="201,201 201,200 "/>
   <polygon class="fil0" points="56,201 56,201 "/>
   <polygon class="fil0" points="362,201 361,201 "/>
   <polygon class="fil0" points="25,202 25,201 "/>
   <polygon class="fil0" points="63,201 62,202 "/>
   <polygon class="fil0" points="209,157 208,158 "/>
   <polygon class="fil0" points="28,156 27,157 "/>
   <polygon class="fil0" points="211,155 210,156 "/>
   <polygon class="fil0" points="314,133 313,132 "/>
   <polygon class="fil0" points="311,132 310,133 "/>
   <polygon class="fil0" points="41,208 41,207 "/>
   <polygon class="fil0" points="48,207 48,208 "/>
   <polygon class="fil0" points="363,209 363,209 "/>
   <polygon class="fil0" points="216,152 216,152 "/>
   <polygon class="fil0" points="206,210 206,209 "/>
   <polygon class="fil0" points="217,150 217,151 "/>
   <polygon class="fil0" points="46,212 46,212 "/>
   <polygon class="fil0" points="250,214 249,214 "/>
   <polygon class="fil0" points="96,215 95,214 "/>
   <polygon class="fil0" points="212,216 211,215 "/>
   <polygon class="fil0" points="252,216 251,215 "/>
   <polygon class="fil0" points="232,218 231,217 "/>
   <polygon class="fil0" points="217,219 217,218 "/>
   <polygon class="fil0" points="224,218 223,219 "/>
   <polygon class="fil0" points="239,136 238,137 "/>
   <polygon class="fil0" points="359,219 358,219 "/>
   <polygon class="fil0" points="45,220 45,221 "/>
   <polygon class="fil0" points="278,148 277,148 "/>
   <polygon class="fil0" points="262,221 261,221 "/>
   <polygon class="fil0" points="44,222 44,222 "/>
   <polygon class="fil0" points="54,147 54,148 "/>
   <polygon class="fil0" points="322,146 321,147 "/>
   <polygon class="fil0" points="352,226 352,226 "/>
   <polygon class="fil0" points="297,146 297,146 "/>
   <polygon class="fil0" points="60,144 60,145 "/>
   <polygon class="fil0" points="344,232 344,233 "/>
   <polygon class="fil0" points="239,131 238,131 "/>
   <polygon class="fil0" points="341,236 341,236 "/>
   <polygon class="fil0" points="128,237 128,237 "/>
   <polygon class="fil0" points="338,240 338,240 "/>
   <polygon class="fil0" points="266,242 265,241 "/>
   <polygon class="fil0" points="39,243 39,242 "/>
   <polygon class="fil0" points="336,243 335,244 "/>
   <polygon class="fil0" points="71,130 70,131 "/>
   <polygon class="fil0" points="241,129 240,129 "/>
   <polygon class="fil0" points="266,141 266,141 "/>
   <polygon class="fil0" points="42,246 42,245 "/>
   <polygon class="fil0" points="277,119 276,118 "/>
   <polygon class="fil0" points="267,117 266,116 "/>
   <polygon class="fil0" points="73,128 73,129 "/>
   <polygon class="fil0" points="264,114 263,114 "/>
   <polygon class="fil0" points="291,127 291,127 "/>
   <polygon class="fil0" points="95,109 94,109 "/>
   <polygon class="fil0" points="97,108 96,108 "/>
   <polygon class="fil0" points="103,107 102,108 "/>
   <polygon class="fil0" points="52,261 52,260 "/>
   <polygon class="fil0" points="311,106 310,107 "/>
   <polygon class="fil0" points="54,265 54,264 "/>
   <polygon class="fil0" points="95,106 94,107 "/>
   <polygon class="fil0" points="119,105 118,105 "/>
   <polygon class="fil0" points="56,267 56,266 "/>
   <polygon class="fil0" points="236,104 236,103 "/>
   <polygon class="fil0" points="61,269 60,268 "/>
   <polygon class="fil0" points="62,269 61,269 "/>
   <polygon class="fil0" points="227,27 228,27 "/>
   <polygon class="fil0" points="354,272 353,272 "/>
   <polygon class="fil0" points="67,273 66,273 "/>
   <polygon class="fil0" points="137,27 136,27 "/>
   <polygon class="fil0" points="351,274 350,274 "/>
   <polygon class="fil0" points="336,275 336,275 "/>
   <polygon class="fil0" points="349,275 349,275 "/>
   <polygon class="fil0" points="124,103 123,103 "/>
   <polygon class="fil0" points="336,275 335,276 "/>
   <polygon class="fil0" points="220,29 220,30 "/>
   <polygon class="fil0" points="136,35 137,35 "/>
   <polygon class="fil0" points="79,99 79,100 "/>
   <polygon class="fil0" points="332,277 331,278 "/>
   <polygon class="fil0" points="245,98 244,99 "/>
   <polygon class="fil0" points="70,279 70,278 "/>
   <polygon class="fil0" points="329,279 328,280 "/>
   <polygon class="fil0" points="246,97 246,98 "/>
   <polygon class="fil0" points="271,35 270,35 "/>
   <polygon class="fil0" points="39,282 38,281 "/>
   <polygon class="fil0" points="81,96 80,97 "/>
   <polygon class="fil0" points="78,126 77,127 "/>
   <polygon class="fil0" points="127,94 127,95 "/>
   <polygon class="fil0" points="276,36 275,36 "/>
   <polygon class="fil0" points="324,284 324,285 "/>
   <polygon class="fil0" points="43,289 42,288 "/>
   <polygon class="fil0" points="346,288 345,289 "/>
   <polygon class="fil0" points="44,290 43,290 "/>
   <polygon class="fil0" points="132,290 132,291 "/>
   <polygon class="fil0" points="139,290 138,291 "/>
   <polygon class="fil0" points="246,92 245,93 "/>
   <polygon class="fil0" points="45,293 45,292 "/>
   <polygon class="fil0" points="234,91 234,92 "/>
   <polygon class="fil0" points="127,294 126,294 "/>
   <polygon class="fil0" points="245,91 245,91 "/>
   <polygon class="fil0" points="230,90 229,91 "/>
   <polygon class="fil0" points="324,296 324,297 "/>
   <polygon class="fil0" points="92,88 92,88 "/>
   <polygon class="fil0" points="109,40 108,40 "/>
   <polygon class="fil0" points="320,299 319,299 "/>
   <polygon class="fil0" points="51,301 50,300 "/>
   <polygon class="fil0" points="293,43 292,42 "/>
   <polygon class="fil0" points="343,305 343,305 "/>
   <polygon class="fil0" points="277,307 276,306 "/>
   <polygon class="fil0" points="57,309 57,308 "/>
   <polygon class="fil0" points="279,310 278,309 "/>
   <polygon class="fil0" points="315,309 315,310 "/>
   <polygon class="fil0" points="339,309 339,310 "/>
   <polygon class="fil0" points="286,126 286,125 "/>
   <polygon class="fil0" points="337,312 336,313 "/>
   <polygon class="fil0" points="295,44 295,44 "/>
   <polygon class="fil0" points="63,315 62,315 "/>
   <polygon class="fil0" points="98,46 98,47 "/>
   <polygon class="fil0" points="64,316 63,316 "/>
   <polygon class="fil0" points="110,317 110,316 "/>
   <polygon class="fil0" points="333,317 332,317 "/>
   <polygon class="fil0" points="159,51 159,50 "/>
   <polygon class="fil0" points="82,125 82,125 "/>
   <polygon class="fil0" points="115,51 114,51 "/>
   <polygon class="fil0" points="94,52 94,52 "/>
   <polygon class="fil0" points="331,318 331,319 "/>
   <polygon class="fil0" points="271,113 271,113 "/>
   <polygon class="fil0" points="304,321 304,322 "/>
   <polygon class="fil0" points="261,85 261,85 "/>
   <polygon class="fil0" points="108,52 108,53 "/>
   <polygon class="fil0" points="78,326 78,326 "/>
   <polygon class="fil0" points="120,53 119,53 "/>
   <polygon class="fil0" points="94,54 93,54 "/>
   <polygon class="fil0" points="61,84 61,85 "/>
   <polygon class="fil0" points="322,328 321,328 "/>
   <polygon class="fil0" points="76,329 76,329 "/>
   <polygon class="fil0" points="81,331 81,330 "/>
   <polygon class="fil0" points="327,281 327,281 "/>
   <polygon class="fil0" points="62,84 61,84 "/>
   <polygon class="fil0" points="314,334 314,335 "/>
   <polygon class="fil0" points="312,336 311,337 "/>
   <polygon class="fil0" points="102,339 102,340 "/>
   <polygon class="fil0" points="96,79 95,80 "/>
   <polygon class="fil0" points="102,340 101,341 "/>
   <polygon class="fil0" points="265,79 264,79 "/>
   <polygon class="fil0" points="101,341 101,342 "/>
   <polygon class="fil0" points="306,341 305,342 "/>
   <polygon class="fil0" points="274,54 274,54 "/>
   <polygon class="fil0" points="99,54 99,55 "/>
   <polygon class="fil0" points="276,77 276,77 "/>
   <polygon class="fil0" points="105,350 104,349 "/>
   <polygon class="fil0" points="292,77 291,76 "/>
   <polygon class="fil0" points="291,76 291,76 "/>
   <polygon class="fil0" points="290,351 290,352 "/>
   <polygon class="fil0" points="125,55 125,54 "/>
   <polygon class="fil0" points="76,74 75,75 "/>
   <polygon class="fil0" points="288,353 287,353 "/>
   <polygon class="fil0" points="300,72 300,73 "/>
   <polygon class="fil0" points="274,54 273,55 "/>
   <polygon class="fil0" points="300,71 300,70 "/>
   <polygon class="fil0" points="278,69 277,69 "/>
   <polygon class="fil0" points="273,55 273,55 "/>
   <polygon class="fil0" points="78,67 77,67 "/>
   <polygon class="fil0" points="98,55 98,56 "/>
   <polygon class="fil0" points="114,66 114,66 "/>
   <polygon class="fil0" points="266,363 265,364 "/>
   <polygon class="fil0" points="137,366 136,365 "/>
   <polygon class="fil0" points="94,66 93,66 "/>
   <polygon class="fil0" points="127,56 126,55 "/>
   <polygon class="fil0" points="287,65 286,66 "/>
   <polygon class="fil0" points="293,123 293,124 "/>
   <polygon class="fil0" points="86,56 86,56 "/>
   <polygon class="fil0" points="159,56 158,57 "/>
   <polygon class="fil0" points="261,65 261,65 "/>
   <polygon class="fil0" points="159,372 159,371 "/>
   <polygon class="fil0" points="96,65 95,65 "/>
   <polygon class="fil0" points="116,57 116,57 "/>
   <polygon class="fil0" points="158,57 157,57 "/>
   <polygon class="fil0" points="242,123 242,123 "/>
   <polygon class="fil0" points="97,64 96,65 "/>
   <polygon class="fil0" points="97,64 98,64 "/>
   <polygon class="fil0" points="172,63 171,64 "/>
   <polygon class="fil0" points="76,63 76,64 "/>
   <polygon class="fil0" points="265,63 264,63 "/>
   <polygon class="fil0" points="284,62 283,62 "/>
   <polygon class="fil0" points="284,61 284,62 "/>
   <polygon class="fil0" points="89,62 89,61 "/>
   <polygon class="fil0" points="84,62 83,61 "/>
   <polygon class="fil0" points="269,60 268,60 "/>
   <polygon class="fil0" points="118,60 118,59 "/>
   <polygon class="fil0" points="270,120 269,121 "/>
   <polygon class="fil0" points="104,333 103,333 "/>
  </g>
 </g>
</svg>
