<?xml version="1.0" encoding="UTF-8"?>
<!DOCTYPE svg PUBLIC "-//W3C//DTD SVG 1.1//EN" "http://www.w3.org/Graphics/SVG/1.1/DTD/svg11.dtd">
<!-- Creator: CorelDRAW X7 -->
<svg xmlns="http://www.w3.org/2000/svg" xml:space="preserve" width="16.7665mm" height="18.3053mm" version="1.1" style="shape-rendering:geometricPrecision; text-rendering:geometricPrecision; image-rendering:optimizeQuality; fill-rule:evenodd; clip-rule:evenodd"
viewBox="0 0 137 150"
 xmlns:xlink="http://www.w3.org/1999/xlink">
 <defs>
  <style type="text/css">
   <![CDATA[
    .fil0 {fill:#FCFBFC}
   ]]>
  </style>
 </defs>
 <g id="Слой_x0020_1">
  <metadata id="CorelCorpID_0Corel-Layer"/>
  <path class="fil0" d="M123 2c-31,27 -16,34 -45,33 -3,-5 2,-5 -6,-10 -14,8 2,10 -24,11 2,-10 4,-6 -3,-12 -10,4 -8,13 -19,11 -5,1 -13,0 -18,1 -6,1 -8,3 -8,9 6,3 12,2 17,6 7,-1 20,1 26,5 9,-1 17,3 27,3 -4,9 -5,9 -12,15 -2,5 -2,4 -7,7 -1,3 -3,6 -5,8 -4,6 -1,4 -7,6 -2,9 -5,9 -16,11 -7,2 -17,4 -23,7 4,5 16,7 23,11 7,1 7,5 10,12 3,6 6,11 10,14l3 -13c0,-6 0,-14 2,-19 1,-3 8,-10 10,-11 3,-5 24,-28 28,-32 4,5 9,19 9,25 6,7 11,26 13,35 4,5 2,5 8,6l4 -4c-3,-30 -8,-21 7,-42 -3,-4 -2,-6 -9,-5l-4 3 -1 -7c-3,-12 10,-12 6,-22 -4,-2 -5,-1 -9,-1l-2 -15c4,-5 7,-7 11,-12 6,-9 2,-6 11,-7 1,-6 -4,1 0,-7 1,-2 4,-5 7,-7 1,-14 0,-17 -14,-13z"/>
 </g>
</svg>
