<?xml version="1.0" encoding="UTF-8"?>
<!DOCTYPE svg PUBLIC "-//W3C//DTD SVG 1.1//EN" "http://www.w3.org/Graphics/SVG/1.1/DTD/svg11.dtd">
<!-- Creator: CorelDRAW X7 -->
<svg xmlns="http://www.w3.org/2000/svg" xml:space="preserve" width="65.0604mm" height="13.8136mm" version="1.1" style="shape-rendering:geometricPrecision; text-rendering:geometricPrecision; image-rendering:optimizeQuality; fill-rule:evenodd; clip-rule:evenodd"
viewBox="0 0 6505 1381"
 xmlns:xlink="http://www.w3.org/1999/xlink">
 <defs>
  <style type="text/css">
   <![CDATA[
    .fil0 {fill:#1B4E9B}
    .fil18 {fill:#036997}
    .fil31 {fill:#055B84}
    .fil26 {fill:#0E5272}
    .fil13 {fill:#1685BA}
    .fil55 {fill:#1D672E}
    .fil12 {fill:#243F5E}
    .fil58 {fill:#267531}
    .fil56 {fill:#276F97}
    .fil2 {fill:#2A517D}
    .fil44 {fill:#2C7BA6}
    .fil22 {fill:#3793C8}
    .fil57 {fill:#4D8DB7}
    .fil47 {fill:#509131}
    .fil15 {fill:#579AC8}
    .fil28 {fill:#67A7D7}
    .fil45 {fill:#69972E}
    .fil43 {fill:#699DC5}
    .fil11 {fill:#88B2DA}
    .fil52 {fill:#8CB024}
    .fil48 {fill:#932B16}
    .fil60 {fill:#9ABA1B}
    .fil10 {fill:#9CC2E5}
    .fil38 {fill:#A94728}
    .fil16 {fill:#ACB0B8}
    .fil53 {fill:#B2C709}
    .fil29 {fill:#B42F15}
    .fil14 {fill:#B8C6D8}
    .fil35 {fill:#C45B2A}
    .fil9 {fill:#C7D5E8}
    .fil50 {fill:#C9C3BC}
    .fil46 {fill:#C9D30C}
    .fil62 {fill:#D1D830}
    .fil42 {fill:#D26C2A}
    .fil34 {fill:#D33C19}
    .fil51 {fill:#D6DB4F}
    .fil59 {fill:#D8DF63}
    .fil54 {fill:#DFE482}
    .fil32 {fill:#E17C2A}
    .fil8 {fill:#E24C23}
    .fil39 {fill:#E3DCCE}
    .fil61 {fill:#E3E592}
    .fil4 {fill:#E56D0D}
    .fil49 {fill:#E7E9B1}
    .fil1 {fill:#E88906}
    .fil27 {fill:#E8E6D6}
    .fil3 {fill:#EA8759}
    .fil6 {fill:#EB6C3C}
    .fil33 {fill:#EB971D}
    .fil25 {fill:#F3CB49}
    .fil21 {fill:#F6B010}
    .fil17 {fill:#F6EACA}
    .fil7 {fill:#F8F3E6}
    .fil36 {fill:#FAD762}
    .fil19 {fill:#FCC705}
    .fil41 {fill:#FDD327}
    .fil20 {fill:#FDEDBC}
    .fil40 {fill:#FED649}
    .fil37 {fill:#FED963}
    .fil30 {fill:#FEDE7B}
    .fil5 {fill:#FEE69B}
    .fil23 {fill:#FEEBB3}
    .fil24 {fill:#FEF1CB}
   ]]>
  </style>
 </defs>
 <g id="Слой_x0020_1">
  <metadata id="CorelCorpID_0Corel-Layer"/>
  <path class="fil0" d="M3421 614c207,-74 292,242 109,305 -207,73 -290,-240 -109,-305zm202 380l9 38 127 1 0 -530c-151,-2 -126,-8 -128,41 -100,-49 -176,-81 -295,-24 -77,37 -146,120 -149,235 -7,236 251,375 436,239l0 0z"/>
  <path class="fil0" d="M2194 958l-44 -115c-72,35 -127,100 -249,62 -79,-24 -134,-96 -141,-191 -6,-98 44,-174 109,-209 41,-22 98,-25 150,-12 56,14 72,42 113,56l57 -96c-56,-91 -250,-125 -375,-72 -112,46 -201,154 -205,306 -10,322 338,463 585,271l0 0z"/>
  <path class="fil0" d="M2349 795c-24,-235 284,-253 307,-46 10,94 -51,167 -127,180 -94,17 -173,-53 -180,-134zm97 -296c-375,70 -272,618 123,539 137,-27 257,-162 214,-339 -32,-134 -171,-232 -337,-200z"/>
  <path class="fil1" d="M518 247l80 0 482 -2 126 2c-40,-84 -290,-249 -454,-236 -42,22 2,8 -30,24 -7,2 -39,9 -47,11 -63,15 -27,28 -78,41 -4,109 -12,17 -21,88 -35,1 -23,-1 -48,11 1,37 -3,24 10,48 -40,1 -4,-2 -20,13l0 0z"/>
  <path class="fil0" d="M4067 928c-94,-26 -72,-41 -72,-261 0,-101 9,-244 -2,-341l-127 0c-14,148 -3,362 -2,518 0,175 110,216 188,193 28,-8 18,-73 15,-109l0 0z"/>
  <path class="fil0" d="M2855 1033l134 0c0,-188 -41,-411 186,-404l-2 -130c-49,-1 -88,8 -121,31 -34,26 -44,54 -68,81l-2 -108 -125 -2 -2 532 0 0z"/>
  <path class="fil0" d="M4900 547c137,-38 249,56 275,167 33,141 -48,251 -157,280 -294,81 -412,-364 -118,-447zm282 390l0 96 47 -2 -1 -527 -45 -3 -1 110c-37,-37 -61,-70 -123,-95 -159,-68 -367,35 -379,239 -8,139 76,232 172,272 60,23 134,24 194,5 28,-10 53,-22 71,-37l65 -58z"/>
  <path class="fil0" d="M6220 724l-390 0c5,-102 89,-188 196,-193 113,-4 203,82 194,193zm22 251c-9,-27 -6,-20 -19,-42 -38,17 -49,43 -107,60 -136,40 -304,-60 -286,-224l441 -1c30,-342 -387,-365 -478,-108 -54,154 17,278 101,336 126,88 253,47 348,-21l0 0z"/>
  <path class="fil2" d="M490 1355c13,-19 -9,-9 29,-12l128 2c102,-2 224,-44 306,-106 19,-15 2,-3 25,-15 2,-1 11,-6 13,-7 18,-11 5,-1 18,-14l-86 3 -94 3 -103 -1 -188 0 -60 -2 -246 0c46,65 188,132 258,149l0 0z"/>
  <path class="fil3" d="M25 874l405 -1 57 0c-7,-4 -7,-9 -26,-12 -9,-2 -28,-2 -38,-2 10,-30 1,-82 1,-135l188 -16 -103 -1 -68 0 -74 1 -64 0 -101 1 -202 -1c-2,60 6,119 25,166l0 0z"/>
  <path class="fil4" d="M166 247l164 0 165 -2 23 2c16,-15 -20,-12 20,-13 -13,-24 -9,-11 -10,-48 25,-12 13,-10 48,-11 9,-71 17,21 21,-88 51,-13 15,-26 78,-41 8,-2 40,-9 47,-11 32,-16 -12,-2 30,-24l0 -11 -99 0c-20,8 -108,17 -146,27 -49,12 -96,31 -135,51 -75,41 -174,113 -206,169l0 0z"/>
  <path class="fil5" d="M466 382l6 237 73 -3 40 3 0 -229 93 -6 35 -1 14 -117 181 -14 168 0 4 -7 -482 2c-35,20 -36,14 -85,18 -2,40 -6,88 7,114l-54 3 0 0z"/>
  <path class="fil6" d="M487 873l76 -1 142 0 78 1 88 -1 62 0 0 -1 -174 -14 18 -104c-18,-14 -16,-2 -18,-30l299 -14 0 0 -56 -1 -86 0 -55 0 -88 1 -109 -1 -52 0 -188 16c0,53 9,105 -1,135 10,0 29,0 38,2 19,3 19,8 26,12l0 0z"/>
  <path class="fil7" d="M33 521l2 91c94,15 172,-3 246,6l4 -229 -212 2c-15,35 -41,81 -40,130l0 0z"/>
  <path class="fil0" d="M5516 1033l29 0 32 -59c39,-98 169,-417 179,-473 -60,1 -38,-12 -81,91 -17,41 -29,75 -47,120 -28,71 -77,178 -93,251l-94 -231c-27,-72 -62,-167 -91,-231l-45 0c10,62 137,362 177,465l19 49c7,12 8,12 15,18l0 0z"/>
  <path class="fil8" d="M933 871l149 -12c0,-68 -5,-104 21,-147l-45 -3 -299 14c2,28 0,16 18,30l-18 104 174 14 0 0z"/>
  <path class="fil9" d="M31 883c37,24 21,16 43,44 18,21 28,20 52,37 28,20 21,19 59,29 43,14 28,5 51,36 78,0 40,3 86,19 40,-19 20,12 43,-7 2,-2 21,-41 27,-50 24,-35 38,-38 38,-118l-405 1 6 9z"/>
  <path class="fil10" d="M322 1048l1 13c37,5 21,3 44,14l-2 57 -40 0 5 15c53,1 103,-12 148,-15l-18 27 51 -8c15,-35 -2,-30 43,-41l9 -238 -76 1 -57 0c0,80 -14,83 -38,118 -6,9 -25,48 -27,50 -23,19 -3,-12 -43,7l0 0z"/>
  <path class="fil0" d="M4367 1030l2 -29c-44,-23 -58,8 -109,-40 -72,-68 -44,-284 -44,-414l139 0 2 -45 -141 -1 -1 -142 -47 -7c-4,118 -27,541 41,630 28,37 98,74 158,48l0 0z"/>
  <path class="fil11" d="M511 1151l32 3c-35,11 -6,4 -17,31l-47 1 -1 20 60 2c27,-18 14,-11 67,-15l21 -27c13,-14 13,-14 30,-26 -27,-28 8,-25 12,-90l26 -11c0,-61 9,-99 11,-167l-142 0 -9 238c-45,11 -28,6 -43,41l0 0z"/>
  <path class="fil0" d="M4492 622l-4 -121 -44 0 -2 532 47 0c0,-139 -41,-502 199,-487 1,-11 5,-11 2,-26 -17,-76 -185,27 -198,102z"/>
  <path class="fil0" d="M6445 1031l51 5 -3 -43c-74,-6 -73,-43 -73,-109 -1,-152 9,-438 -2,-558l-40 0c-11,110 -2,266 -2,381 0,107 -34,294 69,324l0 0z"/>
  <path class="fil12" d="M490 1355c202,52 425,30 593,-94l58 -54 -69 -2 -53 2 -10 -4c-13,13 0,3 -18,14 -2,1 -11,6 -13,7 -23,12 -6,0 -25,15 -82,62 -204,104 -306,106l-128 -2c-38,3 -16,-7 -29,12l0 0z"/>
  <path class="fil13" d="M943 1089l48 -1 4 38c51,-7 13,-28 51,-12l2 -46c43,-25 38,-38 52,-94 12,-55 17,-29 30,-49 10,-15 4,-9 11,-27 6,-11 9,-17 15,-25l-22 -1 -162 0c-1,52 -4,72 -10,111 -2,20 0,34 -6,54 -10,37 -12,6 -13,52l0 0z"/>
  <path class="fil14" d="M105 1054c22,7 37,11 55,22 34,22 1,10 44,24 45,12 63,26 121,32l40 0 2 -57c-23,-11 -7,-9 -44,-14l-1 -13c-46,-16 -8,-19 -86,-19 -23,-31 -8,-22 -51,-36 -38,-10 -31,-9 -59,-29 -24,-17 -34,-16 -52,-37 -22,-28 -6,-20 -43,-44 11,58 39,141 74,171z"/>
  <path class="fil15" d="M723 1116l26 -3 3 74 27 -5c12,-26 26,-43 44,-63 1,1 19,10 22,13l15 -22 11 -238 -88 1c0,53 -3,100 -14,148 -4,17 -12,34 -21,59 -9,30 -5,26 -25,36z"/>
  <path class="fil16" d="M232 1206l246 0 1 -20 47 -1c11,-27 -18,-20 17,-31l-32 -3 -51 8 18 -27c-45,3 -95,16 -148,15l-5 -15c-58,-6 -76,-20 -121,-32 -43,-14 -10,-2 -44,-24 -18,-11 -33,-15 -55,-22 28,57 86,127 127,152l0 0z"/>
  <path class="fil17" d="M880 381l161 2 76 3c-3,-17 -11,-61 -18,-74 -10,-22 -26,-25 -23,-60l-168 0 -15 98c-9,28 -2,-8 -13,31z"/>
  <path class="fil18" d="M1046 1114c-14,44 -10,19 -7,71 43,-53 82,-73 121,-143 18,-31 34,-56 51,-88 12,-27 14,-20 27,-38 10,-16 12,-28 18,-43l-22 0 -78 0c-6,8 -9,14 -15,25 -7,18 -1,12 -11,27 -13,20 -18,-6 -30,49 -14,56 -9,69 -52,94l-2 46z"/>
  <polygon class="fil19" points="808,618 866,620 915,621 914,389 807,390 "/>
  <path class="fil20" d="M285 389c37,-3 57,3 91,13l1 220 95 -3 -6 -237 -94 2 -112 -2 -187 4 0 5 212 -2 0 0z"/>
  <polygon class="fil21" points="915,621 961,621 1018,620 1017,388 914,389 "/>
  <path class="fil22" d="M845 1132l6 6c1,0 5,3 5,3l12 9c18,-7 25,-11 38,-27 25,-29 -10,-8 37,-34 1,-46 3,-15 13,-52 6,-20 4,-34 6,-54 6,-39 9,-59 10,-111l-39 0 -62 0 -11 238 -15 22 0 0z"/>
  <path class="fil23" d="M713 383l27 -1 140 -1c11,-39 4,-3 13,-31l15 -98 -181 14 -14 117z"/>
  <path class="fil24" d="M281 618l84 1 12 3 -1 -220c-34,-10 -54,-16 -91,-13l-4 229 0 0z"/>
  <path class="fil25" d="M73 386l187 -4 4 -121 66 -14 -164 0c-33,30 -76,84 -93,139l0 0z"/>
  <path class="fil26" d="M1072 1205l69 2c63,-21 188,-222 211,-336l-40 2c-10,86 -149,240 -208,290l-32 42 0 0z"/>
  <path class="fil27" d="M0 708l202 1 0 -81 79 -10c-74,-9 -152,9 -246,-6l-2 -91 -10 13c-17,40 -22,130 -23,174z"/>
  <path class="fil28" d="M656 1140c12,-9 0,-6 27,-15 17,-6 16,-4 40,-9 20,-10 16,-6 25,-36 9,-25 17,-42 21,-59 11,-48 14,-95 14,-148l-78 -1c-2,68 -11,106 -11,167l-26 11c-4,65 -39,62 -12,90z"/>
  <path class="fil29" d="M1103 712l105 9c-7,64 -36,86 -40,139l-34 12 22 1 78 0 59 -16c6,-57 25,-44 31,-132l-57 -17 -44 0 -107 0 -58 1 0 0 45 3z"/>
  <path class="fil30" d="M372 384l94 -2 54 -3c-13,-26 -9,-74 -7,-114 49,-4 50,2 85,-18l-80 0 -23 -2 -121 20 -2 119 0 0z"/>
  <path class="fil31" d="M1039 1185c-30,12 -11,-9 -20,22l53 -2 32 -42c59,-50 198,-204 208,-290l-56 0c-6,15 -8,27 -18,43 -13,18 -15,11 -27,38 -17,32 -33,57 -51,88 -39,70 -78,90 -121,143l0 0z"/>
  <path class="fil32" d="M1091 621l77 -1c3,-60 9,-177 -11,-222l46 -7 16 -8 -102 3 -76 -3 0 3 48 4 2 231 0 0z"/>
  <polygon class="fil33" points="1018,620 1073,620 1091,621 1089,390 1041,386 1017,388 "/>
  <path class="fil34" d="M933 871l0 1 39 0 162 0 34 -12c4,-53 33,-75 39,-139l-104 -9c-26,43 -21,79 -21,147l-149 12 0 0z"/>
  <path class="fil35" d="M1203 391c26,58 18,150 18,229l74 0 -14 -222 23 -5 -8 -10 -66 1 -11 -1 -16 8 0 0z"/>
  <polygon class="fil36" points="260,382 372,384 374,265 495,245 330,247 264,261 "/>
  <path class="fil37" d="M647 620l59 -2 5 2 0 -208c16,-28 -6,-6 29,-30l-27 1 -35 1c-42,24 -17,-1 -31,28l0 208 0 0z"/>
  <path class="fil30" d="M585 619l36 1 26 0 0 -208c14,-29 -11,-4 31,-28l-93 6 0 229z"/>
  <path class="fil38" d="M1295 620l77 -2c-10,-70 -30,-173 -68,-225l-23 5 14 222 0 0z"/>
  <path class="fil39" d="M1117 386l102 -3 11 1c-7,-23 0,-2 -8,-17l-7 -13c-10,-20 -6,-17 -14,-38 -7,-22 -15,-32 -24,-51l-101 -13c-3,35 13,38 23,60 7,13 15,57 18,74l0 0z"/>
  <path class="fil40" d="M711 620l45 0 0 -222 51 -8 107 -1 103 -1 24 -2 0 -3 -161 -2 -140 1c-35,24 -13,2 -29,30l0 208 0 0z"/>
  <polygon class="fil41" points="756,620 808,618 807,390 756,398 "/>
  <path class="fil42" d="M1168 620l27 0 26 0c0,-79 8,-171 -18,-229l-46 7c20,45 14,162 11,222z"/>
  <path class="fil43" d="M656 1140c-17,12 -17,12 -30,26l-21 27c-53,4 -40,-3 -67,15l188 0c10,-11 -3,0 15,-14 1,-1 5,-1 6,-4 1,-3 4,-2 5,-3l-3 -74 -26 3c-24,5 -23,3 -40,9 -27,9 -15,6 -27,15z"/>
  <path class="fil44" d="M868 1150c-12,48 -14,30 -39,59l94 -3 72 -80 -4 -38 -48 1c-47,26 -12,5 -37,34 -13,16 -20,20 -38,27l0 0z"/>
  <polygon class="fil45" points="1002,708 1058,709 1116,708 1117,638 1195,620 1168,620 1091,621 1073,620 1004,637 "/>
  <path class="fil46" d="M664 708l109 1 0 -77 92 -13 1 1 -58 -2 -52 2 -45 0 -5 -2c-4,2 -21,9 -21,9 -23,14 -11,0 -21,21l0 60 0 0z"/>
  <polygon class="fil47" points="1116,708 1223,708 1224,630 1293,624 1373,623 1372,618 1295,620 1221,620 1195,620 1117,638 "/>
  <path class="fil48" d="M1234 873l22 0 56 0 40 -2 23 -163 -83 0 -25 0 57 17c-6,88 -25,75 -31,132l-59 16z"/>
  <polygon class="fil49" points="202,709 303,708 303,631 366,622 365,619 281,618 202,628 "/>
  <path class="fil50" d="M1230 384l66 -1c-17,-50 -58,-103 -90,-136l-126 -2 -4 7 101 13c9,19 17,29 24,51 8,21 4,18 14,38l7 13c8,15 1,-6 8,17l0 0z"/>
  <path class="fil51" d="M509 623l0 84 103 1c-6,-43 -11,-49 9,-88l-36 -1 -40 -3 -36 7 0 0z"/>
  <path class="fil52" d="M916 708l86 0 2 -71 69 -17 -55 0 -57 1c-7,4 -9,9 -27,15 -10,3 -10,2 -18,2l0 70z"/>
  <polygon class="fil53" points="773,709 861,708 865,619 773,632 "/>
  <polygon class="fil54" points="367,708 441,707 441,633 509,623 545,616 472,619 377,622 365,619 366,622 "/>
  <polygon class="fil55" points="1292,708 1375,708 1373,623 1293,624 "/>
  <path class="fil56" d="M995 1126l-72 80 86 -3 10 4c9,-31 -10,-10 20,-22 -3,-52 -7,-27 7,-71 -38,-16 0,5 -51,12l0 0z"/>
  <path class="fil57" d="M752 1187c-1,1 -4,0 -5,3 -1,3 -5,3 -6,4 -18,14 -5,3 -15,14l103 1c25,-29 27,-11 39,-59l-12 -9c0,0 -4,-3 -5,-3l-5 -6c-4,-3 -22,-12 -23,-13 -18,20 -32,37 -44,63l-27 5 0 0z"/>
  <polygon class="fil58" points="1223,708 1267,708 1292,708 1293,624 1224,630 "/>
  <polygon class="fil59" points="441,707 509,707 509,623 441,633 "/>
  <path class="fil60" d="M861 708l55 0 0 -70c8,0 8,1 18,-2 18,-6 20,-11 27,-15l-46 0 -49 -1 -1 -1 -4 89z"/>
  <polygon class="fil61" points="303,708 367,708 366,622 303,631 "/>
  <path class="fil62" d="M612 708l52 0 0 -60c10,-21 -2,-7 21,-21 0,0 17,-7 21,-9l-59 2 -26 0c-20,39 -15,45 -9,88l0 0z"/>
  <path class="fil0" d="M6445 1031c29,18 19,17 57,6 7,-52 3,-30 -9,-44l3 43 -51 -5z"/>
 </g>
</svg>
