<?xml version="1.0" encoding="UTF-8"?>
<!DOCTYPE svg PUBLIC "-//W3C//DTD SVG 1.1//EN" "http://www.w3.org/Graphics/SVG/1.1/DTD/svg11.dtd">
<!-- Creator: CorelDRAW X7 -->
<svg xmlns="http://www.w3.org/2000/svg" xml:space="preserve" width="98.654mm" height="32.962mm" version="1.1" style="shape-rendering:geometricPrecision; text-rendering:geometricPrecision; image-rendering:optimizeQuality; fill-rule:evenodd; clip-rule:evenodd"
viewBox="0 0 9574 3199"
 xmlns:xlink="http://www.w3.org/1999/xlink">
 <defs>
  <style type="text/css">
   <![CDATA[
    .fil0 {fill:#FEFEFE;fill-rule:nonzero}
   ]]>
  </style>
 </defs>
 <g id="Слой_x0020_1">
  <metadata id="CorelCorpID_0Corel-Layer"/>
  <path class="fil0" d="M2528 620l43 -447 173 0 66 196 17 52 1 0c7,-19 13,-37 18,-52l66 -196 173 0 42 447 -144 0 -10 -206 1 -76 -2 0c-9,26 -17,47 -24,66l-59 156 -121 0 -59 -156 -26 -66 -2 0 1 76 -11 206 -143 0zm682 0l0 -142 142 0 0 142 -142 0zm360 -219c-64,0 -112,-18 -145,-52 -33,-34 -49,-81 -49,-143l0 -206 155 0 0 171c0,61 28,92 83,92 41,0 77,-10 109,-29l0 -234 155 0 0 620 -155 0 0 -225 2 -27 -2 0c-52,22 -102,33 -153,33zm389 -5c0,-67 21,-122 63,-167 42,-44 98,-66 169,-66 64,0 115,20 151,60 37,40 55,92 55,156 0,10 -1,26 -3,47l-282 0c5,26 18,45 37,59 19,14 42,20 67,20 37,0 78,-15 123,-45l56 105c-24,20 -53,36 -87,48 -35,11 -69,17 -104,17 -76,0 -136,-23 -179,-69 -44,-46 -66,-101 -66,-165zm157 -56l133 0c0,-19 -6,-35 -17,-48 -11,-13 -26,-19 -44,-19 -39,0 -63,22 -72,67zm359 453l0 -620 136 0 0 23 -2 29 2 0c30,-42 75,-62 135,-62 60,0 109,22 146,65 37,43 55,99 55,169 0,70 -20,126 -59,169 -39,43 -89,64 -149,64 -43,0 -81,-14 -114,-42l-1 0c1,10 1,23 1,38l0 167 -150 0zm146 -393c0,29 8,54 23,75 15,21 37,31 65,31 24,0 45,-9 62,-28 17,-19 25,-45 25,-78 0,-33 -8,-60 -24,-80 -16,-20 -37,-30 -63,-30 -25,0 -46,9 -63,27 -17,19 -25,46 -25,83zm403 220l0 -447 150 0 0 158 138 0 0 -158 150 0 0 447 -150 0 0 -163 -138 0 0 163 -150 0zm540 -503l0 -117 147 0 0 117 -147 0zm-2 503l0 -447 150 0 0 447 -150 0zm251 0l0 -447 244 0c46,0 83,10 110,31 28,20 41,49 41,86 0,20 -4,39 -14,56 -9,18 -22,32 -38,42l0 0c24,8 42,21 53,39 12,18 17,38 17,60 0,46 -16,79 -48,101 -32,21 -72,32 -121,32l-244 0zm150 -271l56 0c14,0 24,-4 30,-12 7,-9 10,-19 10,-32 0,-11 -3,-21 -10,-28 -7,-7 -18,-11 -31,-11l-55 0 0 83zm0 177l66 0c15,0 27,-4 35,-13 8,-8 12,-19 12,-31 0,-13 -4,-23 -12,-32 -8,-9 -19,-13 -34,-13l-67 0 0 89zm341 94l0 -447 150 0 0 321 126 0 0 -321 150 0 0 321 64 0 0 230 -133 0 0 -104 -357 0zm561 -503l0 -117 147 0 0 117 -147 0zm-1 503l0 -447 150 0 0 447 -150 0zm-6864 1284l0 -446 244 0c46,0 83,10 110,30 28,20 41,49 41,87 0,19 -4,38 -14,56 -9,17 -22,31 -38,41l0 1c24,7 42,20 53,38 12,18 18,39 18,60 0,46 -17,80 -49,101 -32,21 -72,32 -121,32l-244 0zm150 -270l56 0c14,0 24,-5 30,-13 7,-8 10,-19 10,-32 0,-11 -3,-21 -10,-28 -7,-7 -18,-11 -31,-11l-55 0 0 84zm0 177l66 0c15,0 27,-5 35,-13 8,-9 13,-20 13,-32 0,-12 -5,-23 -13,-32 -8,-8 -19,-13 -34,-13l-67 0 0 90zm335 134c16,11 31,16 46,16 35,0 59,-15 71,-45l9 -21 -190 -437 170 0 66 205 17 69 1 0c6,-28 11,-50 15,-66l56 -208 164 0 -183 494c-17,46 -43,80 -76,102 -34,21 -71,32 -110,32 -17,0 -35,-2 -52,-8 -17,-5 -30,-10 -39,-15l-13 -8 48 -110zm423 -37l0 -130c9,-2 17,-3 24,-6 7,-3 14,-8 22,-15 9,-7 15,-17 20,-29 5,-12 9,-29 13,-51 3,-21 5,-47 5,-76l0 -143 366 0 0 446 -150 0 0 -328 -75 0 0 26c0,98 -17,174 -51,227 -34,53 -92,79 -174,79zm551 -4l0 -142 142 0 0 142 -142 0zm258 0l0 -620 152 0 0 248 225 0 0 -248 152 0 0 620 -152 0 0 -243 -225 0 0 243 -152 0zm610 -224c0,-67 21,-122 63,-166 42,-45 99,-67 169,-67 64,0 115,20 151,61 37,40 55,92 55,155 0,11 -1,26 -3,47l-282 0c5,26 18,46 37,59 19,14 42,21 67,21 37,0 78,-15 123,-45l56 105c-24,20 -53,36 -87,47 -35,12 -69,18 -104,18 -76,0 -135,-24 -179,-70 -44,-46 -66,-101 -66,-165zm157 -56l133 0c0,-19 -5,-35 -17,-48 -11,-12 -26,-19 -44,-19 -39,0 -63,23 -72,67zm339 13c0,-90 20,-161 59,-212 39,-52 102,-92 190,-122l145 -49 43 120 -169 54c-23,8 -43,16 -57,23 -15,7 -29,18 -42,32 -14,15 -21,32 -21,53l2 0c33,-29 77,-43 130,-43 59,0 106,19 141,57 35,38 52,87 52,148 0,63 -21,115 -63,155 -43,41 -98,62 -168,62 -78,0 -138,-26 -180,-76 -41,-50 -62,-117 -62,-202zm150 63c0,28 8,50 25,67 16,17 37,25 61,25 25,0 45,-8 62,-25 17,-17 25,-39 25,-67 0,-28 -8,-51 -25,-68 -17,-17 -37,-26 -62,-26 -24,0 -45,9 -61,26 -17,17 -25,40 -25,68zm376 -20c0,-67 21,-122 63,-166 42,-45 99,-67 169,-67 64,0 115,20 151,61 37,40 55,92 55,155 0,11 -1,26 -3,47l-282 0c5,26 18,46 37,59 19,14 42,21 67,21 37,0 78,-15 123,-45l56 105c-24,20 -53,36 -87,47 -35,12 -69,18 -104,18 -76,0 -135,-24 -179,-70 -44,-46 -66,-101 -66,-165zm157 -56l133 0c0,-19 -5,-35 -17,-48 -11,-12 -26,-19 -44,-19 -38,0 -62,23 -72,67zm334 56c0,-63 23,-118 68,-164 44,-46 105,-69 181,-69 34,0 66,6 99,17 32,11 58,28 79,51l-63 100c-30,-28 -65,-43 -105,-43 -34,0 -60,11 -79,32 -19,21 -28,46 -28,75 0,29 10,55 30,77 19,23 47,34 82,34 40,0 81,-18 122,-54l55 105c-22,22 -50,40 -85,54 -34,13 -70,20 -107,20 -76,0 -137,-23 -181,-69 -45,-46 -68,-101 -68,-166zm504 224l0 -446 150 0 0 157 138 0 0 -157 150 0 0 446 -150 0 0 -163 -138 0 0 163 -150 0zm586 -54c-49,-43 -73,-99 -73,-168 0,-69 24,-125 73,-169 49,-44 108,-66 179,-66 72,0 132,22 181,66 49,43 73,100 73,169 0,69 -24,125 -72,168 -49,43 -109,65 -181,65 -71,0 -131,-22 -180,-65zm79 -168c0,33 10,59 29,78 20,20 44,30 72,30 29,0 53,-10 72,-30 20,-19 30,-45 30,-78 0,-33 -10,-59 -30,-80 -19,-20 -43,-30 -72,-30 -28,0 -52,10 -72,30 -19,21 -29,47 -29,80zm430 222l0 -446 150 0 0 446 -150 0zm112 -498l0 -122 109 0 0 122 -109 0zm-181 0l0 -122 109 0 0 122 -109 0zm511 274c0,-63 22,-118 67,-164 45,-46 106,-69 182,-69 33,0 66,6 98,17 32,11 59,28 80,51l-64 100c-30,-28 -65,-43 -105,-43 -33,0 -59,11 -78,32 -19,21 -28,46 -28,75 0,29 10,55 29,77 20,23 47,34 83,34 39,0 80,-18 122,-54l54 105c-22,22 -50,40 -84,54 -35,13 -70,20 -107,20 -76,0 -137,-23 -182,-69 -45,-46 -67,-101 -67,-166zm542 170c-49,-43 -73,-99 -73,-168 0,-69 24,-125 73,-169 48,-44 108,-66 179,-66 72,0 132,22 181,66 49,43 73,100 73,169 0,69 -24,125 -73,168 -48,43 -108,65 -180,65 -72,0 -132,-22 -180,-65zm79 -168c0,33 10,59 29,78 20,20 44,30 72,30 28,0 52,-10 72,-30 20,-19 30,-45 30,-78 0,-33 -10,-59 -30,-80 -20,-20 -44,-30 -72,-30 -28,0 -52,10 -72,30 -19,21 -29,47 -29,80zm522 222l0 -321 -135 0 0 -125 422 0 0 125 -137 0 0 321 -150 0zm350 0l0 -446 150 0 0 157 138 0 0 -157 150 0 0 446 -150 0 0 -163 -138 0 0 163 -150 0zm540 -503l0 -117 146 0 0 117 -146 0zm-2 503l0 -446 150 0 0 446 -150 0zm723 0c-4,-26 -7,-48 -7,-67 0,-35 7,-69 20,-99 13,-31 30,-56 50,-76 19,-19 41,-38 64,-56 24,-18 45,-33 65,-46 19,-12 36,-25 49,-39 13,-15 20,-29 20,-43 0,-20 -7,-35 -20,-45 -13,-11 -29,-16 -47,-16 -19,0 -36,6 -53,19 -16,13 -29,28 -39,47l-112 -76c20,-39 48,-71 85,-96 37,-25 81,-37 133,-37 57,0 106,16 148,49 43,33 64,79 64,141 0,36 -9,68 -26,98 -18,29 -39,53 -64,72 -24,19 -49,36 -74,51 -25,16 -47,31 -65,45 -19,15 -28,30 -30,44l268 0 0 130 -429 0zm498 -71l73 -117c38,37 80,55 127,55 27,0 49,-5 65,-17 15,-12 23,-27 23,-44 0,-46 -38,-69 -115,-69l-43 0 -32 -73 81 -98c9,-11 18,-21 27,-31 9,-9 15,-16 20,-20l7 -7 0 -2c-13,3 -33,4 -59,4l-148 0 0 -130 391 0 0 95 -126 145c46,9 82,31 109,64 27,33 41,71 41,115 0,58 -20,108 -60,149 -40,42 -97,63 -170,63 -87,0 -158,-28 -211,-82zm-1011 167l65 -240 143 0 -98 240 -110 0zm-7073 1188l0 -320 -135 0 0 -126 421 0 0 126 -136 0 0 320 -150 0zm319 -223c0,-67 21,-123 64,-167 42,-44 98,-66 169,-66 64,0 114,20 151,60 37,40 55,92 55,155 0,11 -1,26 -3,47l-282 0c5,26 17,46 37,60 19,13 41,20 67,20 37,0 78,-15 123,-45l55 105c-23,20 -52,36 -87,47 -34,12 -69,18 -103,18 -76,0 -136,-23 -180,-70 -44,-46 -66,-101 -66,-164zm157 -57l134 0c0,-19 -6,-35 -17,-47 -11,-13 -26,-19 -45,-19 -38,0 -62,22 -72,66zm324 285l0 -131c9,-1 17,-3 24,-6 7,-2 14,-7 22,-15 9,-7 15,-16 20,-29 5,-12 9,-29 13,-50 3,-22 5,-48 5,-77l0 -143 366 0 0 446 -150 0 0 -327 -75 0 0 25c0,98 -17,174 -51,227 -34,53 -92,80 -174,80zm1347 -19c-31,17 -68,25 -110,25 -43,0 -80,-8 -111,-25 -31,-16 -55,-40 -72,-70 -18,-30 -30,-64 -38,-101 -8,-38 -12,-80 -12,-126 0,-46 4,-88 12,-125 8,-37 20,-71 38,-101 17,-29 41,-52 72,-69 31,-16 68,-24 111,-24 42,0 79,8 110,24 31,17 55,40 73,69 17,30 30,64 38,101 8,37 12,79 12,125 0,46 -4,88 -12,126 -8,37 -21,71 -38,101 -18,30 -42,54 -73,70zm-187 -297c0,122 25,183 77,183 51,0 77,-61 77,-183 0,-120 -26,-180 -77,-180 -52,0 -77,60 -77,180zm391 25c0,-42 7,-84 20,-124 13,-41 31,-78 55,-111 24,-33 56,-59 94,-79 38,-20 81,-30 127,-30 54,0 99,9 137,27l-41 130c-7,-4 -20,-8 -38,-12 -18,-4 -33,-6 -47,-6 -66,0 -111,34 -133,102l2 0c7,-5 19,-10 37,-15 17,-4 33,-6 47,-6 62,0 111,21 148,63 37,43 55,92 55,149 0,56 -19,105 -57,146 -39,42 -90,63 -154,63 -68,0 -127,-26 -177,-77 -50,-52 -75,-125 -75,-220zm252 158c18,0 33,-7 45,-20 11,-14 17,-30 17,-49 0,-25 -8,-46 -23,-64 -16,-18 -39,-27 -70,-27 -43,0 -65,12 -65,37 0,35 11,64 31,88 20,23 42,35 65,35zm282 -158c0,-42 6,-84 19,-124 13,-41 32,-78 56,-111 24,-33 55,-59 93,-79 39,-20 81,-30 127,-30 54,0 100,9 137,27l-41 130c-7,-4 -20,-8 -38,-12 -18,-4 -33,-6 -47,-6 -66,0 -111,34 -133,102l2 0c7,-5 20,-10 37,-15 17,-4 33,-6 48,-6 61,0 110,21 147,63 37,43 55,92 55,149 0,56 -19,105 -57,146 -39,42 -90,63 -154,63 -68,0 -127,-26 -177,-77 -50,-52 -74,-125 -74,-220zm251 158c18,0 33,-7 45,-20 12,-14 17,-30 17,-49 0,-25 -7,-46 -23,-64 -16,-18 -39,-27 -70,-27 -43,0 -64,12 -64,37 0,35 10,64 30,88 20,23 42,35 65,35zm507 128c-5,-26 -7,-48 -7,-66 0,-36 7,-69 20,-100 13,-31 30,-56 49,-75 20,-20 42,-39 65,-57 23,-18 45,-33 65,-45 19,-13 36,-26 49,-40 13,-14 20,-28 20,-42 0,-20 -7,-36 -20,-46 -13,-11 -29,-16 -47,-16 -19,0 -36,7 -53,19 -16,13 -29,29 -39,47l-112 -75c20,-40 48,-72 85,-97 37,-24 81,-37 133,-37 57,0 106,17 148,49 43,33 64,80 64,141 0,36 -9,69 -26,98 -18,29 -39,54 -64,72 -24,19 -49,36 -74,52 -25,15 -47,30 -65,45 -19,14 -29,29 -30,43l268 0 0 130 -429 0zm858 -14c-31,17 -68,25 -111,25 -42,0 -79,-8 -110,-25 -31,-16 -55,-40 -73,-70 -17,-30 -30,-64 -38,-101 -8,-38 -12,-80 -12,-126 0,-46 4,-88 12,-125 8,-37 21,-71 38,-101 18,-29 42,-52 73,-69 31,-16 68,-24 110,-24 43,0 80,8 111,24 31,17 55,40 72,69 18,30 30,64 38,101 8,37 13,79 13,125 0,46 -5,88 -13,126 -8,37 -20,71 -38,101 -17,30 -41,54 -72,70zm-188 -297c0,122 26,183 77,183 52,0 77,-61 77,-183 0,-120 -25,-180 -77,-180 -51,0 -77,60 -77,180zm617 311l0 -130 132 0 0 -258 1 -48 -2 0c-5,12 -13,23 -24,33l-37 34 -88 -93 168 -157 130 0 0 489 133 0 0 130 -413 0zm463 -71l73 -117c39,37 81,56 126,56 22,0 42,-7 60,-21 18,-13 27,-32 27,-55 0,-24 -10,-43 -28,-57 -19,-14 -42,-21 -71,-21 -28,0 -56,7 -84,21l-80 -30 25 -324 347 0 0 130 -215 0 -4 57 -3 24 2 0c11,-4 26,-6 45,-6 70,0 125,19 163,58 39,38 59,87 59,146 0,64 -22,117 -65,158 -42,42 -98,63 -165,63 -85,0 -155,-27 -212,-82zm505 0l73 -117c39,37 81,56 125,56 23,0 43,-7 61,-21 17,-13 26,-32 26,-55 0,-24 -9,-43 -28,-57 -18,-14 -42,-21 -71,-21 -27,0 -55,7 -83,21l-81 -30 26 -324 346 0 0 130 -215 0 -3 57 -4 24 2 0c11,-4 26,-6 45,-6 71,0 125,19 164,58 39,38 58,87 58,146 0,64 -21,117 -64,158 -43,42 -98,63 -166,63 -84,0 -155,-27 -211,-82zm737 71c-5,-26 -7,-48 -7,-66 0,-36 6,-69 20,-100 13,-31 29,-56 49,-75 20,-20 41,-39 65,-57 23,-18 45,-33 64,-45 20,-13 36,-26 50,-40 13,-14 20,-28 20,-42 0,-20 -7,-36 -20,-46 -14,-11 -29,-16 -47,-16 -19,0 -37,7 -53,19 -16,13 -29,29 -39,47l-113 -75c21,-40 49,-72 86,-97 36,-24 81,-37 133,-37 56,0 106,17 148,49 42,33 63,80 63,141 0,36 -8,69 -26,98 -17,29 -38,54 -63,72 -25,19 -50,36 -75,52 -24,15 -46,30 -65,45 -18,14 -28,29 -29,43l268 0 0 130 -429 0zm503 -71l73 -117c40,37 81,56 126,56 22,0 43,-7 60,-21 18,-13 27,-32 27,-55 0,-24 -10,-43 -28,-57 -19,-14 -42,-21 -71,-21 -28,0 -56,7 -83,21l-81 -30 25 -324 347 0 0 130 -215 0 -4 57 -3 24 2 0c11,-4 26,-6 45,-6 70,0 125,19 164,58 38,38 58,87 58,146 0,64 -22,117 -65,158 -42,42 -97,63 -165,63 -84,0 -155,-27 -212,-82zm-5787 71l0 -142 142 0 0 142 -142 0z"/>
 </g>
</svg>
