<?xml version="1.0" encoding="UTF-8"?>
<!DOCTYPE svg PUBLIC "-//W3C//DTD SVG 1.1//EN" "http://www.w3.org/Graphics/SVG/1.1/DTD/svg11.dtd">
<!-- Creator: CorelDRAW X7 -->
<svg xmlns="http://www.w3.org/2000/svg" xml:space="preserve" width="91.66mm" height="14.57mm" version="1.1" style="shape-rendering:geometricPrecision; text-rendering:geometricPrecision; image-rendering:optimizeQuality; fill-rule:evenodd; clip-rule:evenodd"
viewBox="0 0 9166 1457"
 xmlns:xlink="http://www.w3.org/1999/xlink">
 <defs>
  <style type="text/css">
   <![CDATA[
    .fil0 {fill:#FFED00;fill-rule:nonzero}
   ]]>
  </style>
 </defs>
 <g id="Слой_x0020_1">
  <metadata id="CorelCorpID_0Corel-Layer"/>
  <path class="fil0" d="M842 374l-339 0c-155,0 -244,85 -273,230 -11,61 -23,117 -33,161 -25,111 -62,187 -120,187 -10,0 -25,-1 -39,-6l-38 192c31,12 71,17 105,17 142,0 245,-88 292,-270 24,-91 41,-171 59,-238 11,-49 34,-79 93,-79l34 0 -71 576 235 0 95 -770 0 0zm327 -100c86,0 146,-60 146,-141 0,-77 -56,-133 -142,-133 -86,0 -146,57 -146,138 0,78 58,136 142,136zm-147 100l-95 770 238 0 94 -770 -237 0 0 0zm418 0l-94 770 236 0 36 -301c23,-179 125,-273 177,-273 54,0 57,49 42,157l-55 417 236 0 37 -284c26,-195 127,-290 179,-290 50,0 57,49 44,157l-55 417 233 0 61 -462c30,-223 -25,-324 -178,-324 -108,0 -192,40 -258,117l-8 0c-22,-80 -79,-117 -167,-117 -90,0 -171,40 -236,112l-6 -1 13 -95 -237 0 0 0zm1518 784c294,0 429,-218 429,-470 0,-210 -132,-330 -330,-330 -271,0 -427,221 -427,470 0,210 132,330 328,330zm17 -210c-51,0 -104,-42 -104,-134 0,-118 63,-244 167,-244 42,0 109,23 109,134 0,127 -69,244 -172,244zm873 -574l-96 770 236 0 37 -301c22,-179 124,-273 176,-273 54,0 57,49 44,157l-55 417 234 0 39 -284c24,-195 125,-290 179,-290 50,0 56,49 43,157l-55 417 234 0 61 -462c28,-223 -27,-324 -179,-324 -107,0 -193,40 -259,117l-8 0c-21,-80 -78,-117 -167,-117 -89,0 -170,40 -234,112l-6 -1 11 -95 -235 0 0 0zm1282 0l-135 1083 236 0 43 -348 6 -2c48,35 108,51 180,51 207,0 369,-209 369,-484 0,-174 -83,-316 -243,-316 -99,0 -175,51 -232,134l-3 -3 15 -115 -236 0 0 0zm267 575c-40,0 -80,-16 -104,-48l1 -19c29,-203 126,-314 212,-314 53,0 87,55 87,130 0,128 -67,251 -196,251zm739 209c96,0 172,-49 229,-128l3 0 -10 114 232 0 95 -770 -237 0 -42 353c-14,114 -107,221 -174,221 -55,0 -68,-42 -50,-166l58 -408 -235 0 -66 478c-33,229 53,306 197,306l0 0zm1206 -423l0 -3c77,-27 147,-82 147,-172 0,-134 -137,-202 -289,-202 -284,0 -435,221 -435,478 0,202 107,322 348,322 193,0 358,-88 358,-255 0,-73 -45,-141 -129,-168l0 0zm-236 -42l-109 25c28,-106 105,-172 178,-172 39,0 68,21 68,56 0,51 -68,75 -137,91l0 0zm18 276c-73,0 -124,-31 -135,-123l93 -15c88,-17 156,-9 156,58 0,64 -71,80 -114,80l0 0zm693 189c87,0 164,-46 221,-129l5 1 -15 114 239 0 94 -770 -239 0 -6 53 -4 0c-42,-42 -102,-69 -181,-69 -203,0 -365,210 -365,485 0,178 85,315 251,315l0 0zm75 -209c-54,0 -88,-49 -88,-123 0,-115 63,-256 168,-256 48,0 92,19 127,55l-3 22c-28,194 -121,302 -204,302zm911 14c-66,0 -129,-34 -131,-132l274 -3 18 -151 -274 3c31,-78 94,-122 176,-122 45,0 105,17 144,62l156 -140c-79,-94 -200,-122 -298,-122 -272,0 -423,197 -426,464 -4,219 134,336 344,336 128,0 243,-34 336,-145l-179 -119c-42,51 -95,69 -140,69l0 0z"/>
 </g>
</svg>
