<?xml version="1.0" encoding="UTF-8"?>
<!DOCTYPE svg PUBLIC "-//W3C//DTD SVG 1.1//EN" "http://www.w3.org/Graphics/SVG/1.1/DTD/svg11.dtd">
<!-- Creator: CorelDRAW X7 -->
<svg xmlns="http://www.w3.org/2000/svg" xml:space="preserve" width="95.8905mm" height="26.1079mm" version="1.1" style="shape-rendering:geometricPrecision; text-rendering:geometricPrecision; image-rendering:optimizeQuality; fill-rule:evenodd; clip-rule:evenodd"
viewBox="0 0 5243 1427"
 xmlns:xlink="http://www.w3.org/1999/xlink">
 <defs>
  <style type="text/css">
   <![CDATA[
    .fil0 {fill:#FEFEFE;fill-rule:nonzero}
   ]]>
  </style>
 </defs>
 <g id="Слой_x0020_1">
  <metadata id="CorelCorpID_0Corel-Layer"/>
  <path class="fil0" d="M371 607c148,0 224,-79 224,-187 0,-68 -37,-115 -85,-139l0 -1c63,-29 97,-85 97,-143 0,-87 -72,-137 -183,-137 -68,0 -141,18 -199,66l74 93c30,-24 69,-37 106,-37 38,0 67,14 67,52 0,43 -37,69 -91,69l-68 0 -15 107 81 0c48,0 77,19 77,58 0,40 -27,77 -84,77 -48,0 -94,-22 -122,-67l-92 89c45,71 127,100 213,100zm471 -416l-50 408 122 0 13 -108c17,-8 34,-17 50,-27l8 26c22,68 52,117 115,117 20,0 29,-1 38,-2l28 -102c-36,-2 -58,-12 -77,-71l-12 -36c57,-54 99,-122 115,-205l-129 0c-17,67 -49,127 -116,175l-2 -1 22 -174 -125 0zm495 416c46,0 87,-25 117,-69l3 1 -8 60 126 0 50 -408 -126 0 -3 28 -3 0c-21,-22 -53,-35 -96,-35 -106,0 -192,111 -192,256 0,94 45,167 132,167zm40 -111c-28,0 -46,-26 -46,-65 0,-61 33,-136 88,-136 26,0 49,10 68,30l-2 11c-14,103 -64,160 -108,160zm338 -305l-71 573 126 0 22 -184 3 -1c25,19 57,28 96,28 109,0 195,-111 195,-257 0,-92 -44,-166 -130,-166 -51,0 -92,26 -122,70l-1 -2 7 -61 -125 0zm142 305c-22,0 -42,-9 -55,-25l1 -11c15,-107 66,-165 112,-165 28,0 46,29 46,68 0,68 -36,133 -104,133zm407 111c46,0 87,-25 117,-69l3 1 -8 60 126 0 50 -408 -126 0 -3 28 -3 0c-21,-22 -53,-35 -96,-35 -106,0 -192,111 -192,256 0,94 45,167 132,167zm40 -111c-28,0 -46,-26 -46,-65 0,-61 33,-136 88,-136 26,0 49,10 68,30l-2 11c-14,103 -64,160 -108,160zm701 -305l-125 0 -19 157 -113 1 19 -158 -125 0 -50 408 125 0 18 -148 114 -1 -19 149 125 0 50 -408zm92 0l-50 408 125 0 20 -159c11,-95 66,-145 93,-145 28,0 30,26 23,83l-30 221 125 0 20 -150c13,-104 67,-154 95,-154 26,0 30,26 22,83l-29 221 124 0 33 -244c15,-118 -14,-171 -95,-171 -57,0 -102,20 -137,61l-4 0c-12,-42 -42,-61 -89,-61 -47,0 -90,20 -124,59l-3 -1 6 -51 -125 0zm746 416c51,0 91,-27 121,-68l1 0 -5 60 123 0 50 -408 -125 0 -23 187c-7,60 -56,117 -91,117 -30,0 -36,-22 -27,-88l31 -216 -124 0 -36 254c-17,121 29,162 105,162zm745 -416l-125 0 -19 157 -113 1 19 -158 -125 0 -51 408 126 0 18 -148 114 -1 -19 149 125 0 50 -408zm447 0l-124 0 -23 186c-7,59 -56,118 -92,118 -30,0 -36,-22 -27,-88l30 -216 -124 0 -35 254c-18,121 27,162 104,162 51,0 91,-26 121,-67l3 1 0 1c-16,108 -57,127 -113,127 -34,0 -68,-9 -102,-31l-39 94c47,29 98,40 148,40 103,0 208,-44 230,-228l43 -353z"/>
  <path class="fil0" d="M414 1012l-125 0 -19 157 -114 1 19 -158 -125 0 -50 408 125 0 19 -148 113 -1 -18 149 125 0 50 -408zm175 415c46,0 87,-25 117,-68l2 1 -7 60 126 0 50 -408 -126 0 -3 28 -3 0c-22,-22 -53,-36 -96,-36 -107,0 -193,111 -193,257 0,94 46,166 133,166zm40 -110c-28,0 -47,-26 -47,-66 0,-61 34,-135 89,-135 26,0 49,10 68,29l-2 12c-14,103 -64,160 -108,160zm742 -113l0 -2c41,-14 78,-43 78,-92 0,-71 -73,-106 -153,-106 -150,0 -230,117 -230,252 0,108 56,171 184,171 102,0 189,-46 189,-135 0,-39 -24,-74 -68,-88zm-124 -23l-59 13c15,-56 56,-91 95,-91 20,0 35,12 35,30 0,27 -35,40 -71,48zm9 146c-39,0 -66,-16 -72,-65l49 -8c47,-8 83,-5 83,31 0,34 -38,42 -60,42zm365 -368c46,0 78,-31 78,-74 0,-41 -30,-71 -75,-71 -46,0 -78,31 -78,74 0,40 31,71 75,71zm-77 53l-50 408 125 0 50 -408 -125 0zm347 415c155,0 229,-141 232,-335 2,-138 -43,-292 -274,-295l-24 105c27,1 55,4 79,11 61,18 86,52 92,131l-1 1c-26,-21 -54,-29 -87,-29 -102,0 -192,99 -192,231 0,110 65,180 175,180zm6 -110c-25,0 -55,-20 -55,-75 0,-59 37,-120 93,-120 19,0 42,6 59,23 -8,98 -46,172 -97,172zm312 -305l-51 408 125 0 19 -151c13,-102 66,-153 104,-153 27,0 32,26 24,83l-29 221 124 0 33 -250c15,-114 -17,-166 -95,-166 -53,0 -98,23 -135,65l-1 0 6 -57 -124 0zm581 415c156,0 227,-116 227,-248 0,-111 -70,-175 -175,-175 -143,0 -225,117 -225,248 0,112 69,175 173,175zm9 -111c-27,0 -55,-22 -55,-70 0,-63 33,-130 88,-130 23,0 58,13 58,71 0,67 -36,129 -91,129zm497 -61l-21 165 124 0 51 -408 -125 0 -16 128c-3,25 -41,65 -79,65 -30,0 -36,-19 -31,-50l21 -143 -124 0 -22 155c-12,88 9,144 94,144 40,0 95,-20 126,-56l2 0zm313 172c51,0 91,-26 121,-67l2 0 -5 60 123 0 50 -408 -125 0 -23 187c-7,60 -57,117 -92,117 -29,0 -35,-22 -26,-88l31 -216 -125 0 -35 254c-17,121 29,161 104,161zm746 -415l-125 0 -19 157 -114 1 19 -158 -125 0 -50 408 125 0 19 -148 113 -1 -18 149 125 0 50 -408zm216 415c156,0 227,-116 227,-248 0,-111 -69,-175 -174,-175 -144,0 -226,117 -226,248 0,112 70,175 173,175zm9 -111c-26,0 -55,-22 -55,-70 0,-63 34,-130 89,-130 22,0 57,13 57,71 0,67 -36,129 -91,129zm312 -304l-50 408 123 0 13 -109c17,-7 34,-16 50,-26l8 26c22,68 52,116 115,116 20,0 29,0 38,-1l28 -102c-37,-2 -58,-13 -77,-71l-12 -36c57,-54 99,-122 115,-205l-129 0c-17,67 -49,127 -116,175l-2 -1 22 -174 -126 0z"/>
 </g>
</svg>
